<svg version="1.2" baseProfile="tiny-ps" xmlns="http://www.w3.org/2000/svg" viewBox="0 0 457 405" width="457" height="405">
	<title>global-dark-image-svg</title>
	<defs>
		<clipPath clipPathUnits="userSpaceOnUse" id="cp1">
			<path d="M159.5 116.41C140.97 116.41 126 101.44 126 82.91C126 64.38 140.97 49.41 159.5 49.41C178.03 49.41 193 64.38 193 82.91C193 101.44 178.03 116.41 159.5 116.41Z" />
		</clipPath>
		<clipPath clipPathUnits="userSpaceOnUse" id="cp2">
			<path d="M269.5 234.12C243.39 234.12 222.29 213.02 222.29 186.91C222.29 160.8 243.39 139.7 269.5 139.7C295.61 139.7 316.71 160.8 316.71 186.91C316.71 213.02 295.61 234.12 269.5 234.12Z" />
		</clipPath>
		<clipPath clipPathUnits="userSpaceOnUse" id="cp3">
			<path d="M121.3 276.35C100.71 276.35 84.06 259.7 84.06 239.11C84.06 218.51 100.71 201.86 121.3 201.86C141.9 201.86 158.55 218.51 158.55 239.11C158.55 259.7 141.9 276.35 121.3 276.35Z" />
		</clipPath>
		<clipPath clipPathUnits="userSpaceOnUse" id="cp4">
			<path d="M305.67 400.52C287.73 400.52 273.22 386.02 273.22 368.08C273.22 350.14 287.73 335.63 305.67 335.63C323.61 335.63 338.11 350.14 338.11 368.08C338.11 386.02 323.61 400.52 305.67 400.52Z" />
		</clipPath>
		<clipPath clipPathUnits="userSpaceOnUse" id="cp5">
			<path d="M416.6 281.12C437.23 281.12 453.9 264.44 453.9 243.81C453.9 223.18 437.23 206.51 416.6 206.51C395.97 206.51 379.29 223.18 379.29 243.81C379.29 264.44 395.97 281.12 416.6 281.12Z" />
		</clipPath>
	</defs>
	<style>
		tspan { white-space:pre }
		.shp0 { opacity: 0.502;fill: #142662 } 
		.shp1 { mix-blend-mode: darken;fill: #142662 } 
		.shp2 { fill: #364b92 } 
		.shp3 { fill: #6281cf } 
		.shp4 { opacity: 0.31;fill: #0e1e3e } 
		.shp5 { fill: #39c677 } 
		.shp6 { fill: #2346c1 } 
		.shp7 { fill: #ffbb0b } 
	</style>
	<path id="Layer" class="shp0" d="M103 5C103 2.79 104.79 1 107 1L225 1C227.21 1 229 2.79 229 5L229 123C229 125.21 227.21 127 225 127L107 127C104.79 127 103 125.21 103 123L103 5Z" />
	<g id="Layer" style="opacity: 0.502">
		<path id="Layer" class="shp1" d="M34 130C34 127.79 35.79 126 38 126L99 126C101.21 126 103 127.79 103 130L103 191C103 193.21 101.21 195 99 195L38 195C35.79 195 34 193.21 34 191L34 130Z" />
	</g>
	<g id="Layer" style="opacity: 0.502">
		<path id="Layer" class="shp1" d="M0 95C0 92.79 1.79 91 4 91L30.5 91C32.71 91 34.5 92.79 34.5 95L34.5 121.5C34.5 123.71 32.71 125.5 30.5 125.5L4 125.5C1.79 125.5 0 123.71 0 121.5L0 95Z" />
	</g>
	<path id="Layer" class="shp2" d="M246.77 383.05C352.45 383.05 437.55 297.38 436.85 191.71C436.14 86.03 349.91 0.36 244.23 0.36C138.55 0.36 53.45 86.03 54.15 191.71C54.86 297.38 141.09 383.05 246.77 383.05Z" />
	<path id="Layer" fill-rule="evenodd" class="shp3" d="M428.1 154.33C427.99 156.24 428.58 159.39 428.58 159.39C428.58 159.39 430.2 161.44 428.6 163.26C428.05 163.87 427.5 164.22 427.01 164.54C426.04 165.16 425.28 165.64 425.17 167.65C425.17 167.7 425.16 167.76 425.16 167.81C425.23 167.66 425.3 167.58 425.38 167.57C425.9 167.53 426.53 170.97 426.72 171.97L426.72 171.97C426.74 172.08 426.75 172.16 426.76 172.2C427.02 173.9 427.51 177.66 426.98 177.79C426.51 177.89 425.25 175.26 424.9 172.4C424.73 173.89 424.39 174.66 423.64 173.24C423.09 168.56 421.93 168 420.14 171.54C419.04 174.54 418.78 177.6 419.31 180.73C419.94 181.91 422.08 186.36 423.11 189.97C423.62 191.78 423.9 192.54 424.09 193.08C424.29 193.61 424.4 193.92 424.58 194.81C425.21 197.6 425.32 200.36 424.93 203.16C424.6 204.57 421.73 212.2 420.73 213.59C419.74 216.59 418.85 217.07 417.99 215L418.63 213.03C418.58 211.4 418.01 209.92 416.92 208.63C416.75 207.09 416.46 205.92 416.46 205.92C416.46 205.92 415.85 204.05 415.5 203.38C415.31 203.01 414.75 202.91 414.21 202.81C413.76 202.73 413.32 202.65 413.11 202.42C412.89 201.33 412.61 200.27 412.26 199.2C411.87 199.81 411.36 201.07 411.3 202.25C411.27 202.7 411.44 202.54 411.57 202.4C411.79 202.18 411.96 202.02 411.23 204.44C410.05 207.31 409.44 210.31 409.42 213.39C409.54 213.9 409.6 214.28 409.65 214.57C409.75 215.21 409.77 215.31 410.16 214.92C412.11 214.37 412.39 215.7 411.01 218.91C410.6 222.04 411.71 223.3 412.83 224.58C414.18 226.11 415.54 227.65 414.25 232.47C414.45 231.74 413.53 245.1 411.78 241.86C410.12 239.38 409.7 236.71 410.51 233.82C410.01 230.63 409.83 227.41 410.01 224.17C408.8 218.98 409 214.26 409.19 209.48C409.35 205.41 409.52 201.28 408.83 196.77C408.24 192.88 407.51 190.21 406.84 188.4C406.16 186.6 404.85 183.95 404.63 185.53C404.47 186.63 404.37 186.75 403.98 187.21C403.81 187.41 403.58 187.68 403.27 188.12C402.65 189.01 402.34 189.79 402.14 190.28C402.01 190.61 401.94 190.81 401.85 190.84C401.7 190.87 401.26 190.56 400.87 190.28L400.87 190.28C400.65 190.14 400.45 190 400.32 189.93C400.21 189.87 400.11 189.87 400.01 189.88C399.74 189.89 399.52 189.9 399.57 188.58C399.62 186.77 399.68 183.51 399.68 183.51C400.08 179.3 399.33 177.93 397.47 179.41C396.9 180.15 396.55 180.04 396.84 178.45C397.12 176.86 397.12 176.08 397.12 176.08L396.1 174.84L395.02 173.54C393.47 172.93 392.86 171.91 393.21 170.48C393.21 170.48 391.89 172.32 391.96 170.24C392 168.15 391.04 166.11 391.04 166.11L389.86 164.89C389.86 164.89 388.33 166.26 388.55 166.89C388.79 167.52 389.01 169.22 389.01 169.22L388.15 171.15L386.27 171.15L385.77 170.11L385.55 169.3L384.19 168.95C384.19 168.95 383.45 166.69 383.06 168C383.01 168.16 382.97 168.3 382.93 168.42C382.81 168.82 382.75 169 382.69 169.18C382.63 169.32 382.56 169.46 382.44 169.72C382.4 169.79 382.36 169.88 382.31 169.98C381.68 171.15 381.39 172.43 381.53 173.8C381.53 173.8 380.24 175.71 379.88 175.89C379.12 175.73 378.51 175.93 378 176.45C376.93 177.97 375.77 179.41 374.55 180.8C373.98 181.86 373.13 184.34 373.13 184.34C373.13 184.34 371.99 185.43 371.88 186.49C371.53 188.06 370.7 188.69 369.38 188.4C368.93 189.69 368.09 190.64 366.89 191.27C366.88 191.78 366.97 192.26 367.07 192.8C367.26 193.76 367.49 194.92 367.24 196.86C366.85 199.9 367.02 202.33 367.02 202.33L366.52 205.05C366.52 205.05 365.84 205.16 366.02 207.31C366.17 209.46 366.23 210.03 366.23 210.03C366.23 210.03 367.61 209.7 366.02 210.94C364.57 212.1 364.39 212.56 364.16 213.2C364.13 213.26 364.11 213.31 364.09 213.37C363.81 214.11 363.81 215.35 363.81 215.35C363.81 215.35 362.54 215.18 361.36 216.81C349.5 216.37 344.99 206.77 347.86 187.99C347.79 187.8 343.85 175.82 342.75 169.71C342.83 170.61 342.68 171.33 341.56 171.52C335 172.65 332.42 168.15 335.76 165.19C335.79 165.17 335.81 165.15 335.84 165.12C335.88 165.09 335.92 165.06 335.95 165.03C336.41 164.64 336.77 164.33 335.08 164.52C333.16 164.74 331.34 163.85 330.77 163.22C330.2 162.61 330.03 161.31 330.03 161.31C330.03 161.31 328.28 163.17 327.25 160.81C326.53 158.11 324.89 156.24 322.37 155.22C321.17 154.39 319.31 154.68 317.51 154.96C316.75 155.07 316.01 155.19 315.33 155.22C313.03 157.11 310.98 157.37 309.14 156C309.14 156 308.35 157.85 306.82 156.5C306.56 156.28 306.51 156.16 306.56 156.07C305.99 156 305.11 155.85 303.8 155.61C298.6 155.53 294.18 153.72 290.52 150.2C287.18 151.46 284.07 151.18 281.23 149.35C281.23 149.35 281.57 148.22 278.45 147.2C275.45 144.77 272.85 142.01 270.68 138.86C269.25 139.09 268.37 138.39 267.82 137.96C267.37 137.6 267.15 137.43 267.05 138.12C265.98 140.31 264.23 140.92 261.78 139.92C261.44 140.2 260.89 140.33 260.39 140.44C259.38 140.68 258.64 140.86 260.75 142.12C263.86 143.99 265.56 144.66 265.56 144.66L268.56 146.25C268.56 146.25 267.77 147.31 270.27 149.4L272.76 151.48L272.94 154.46C272.94 154.46 276.7 156.37 277.49 158.07C277.72 158.57 277.85 159.02 277.96 159.41C278.24 160.32 278.39 160.86 279.52 160.78C280.2 160.74 280.63 160.55 281.03 160.37C281.57 160.13 282.06 159.91 283.04 160.11C285.62 160.7 287.24 159.76 287.92 157.28C288.06 157.07 288.18 156.89 288.29 156.72C288.9 155.8 289.14 155.43 290.19 154.57C290.7 154.15 291.06 153.41 291.33 152.83C291.73 151.99 291.96 151.51 292.23 152.98C292.31 153.39 292.37 153.74 292.42 154.03C292.68 155.5 292.71 155.68 293.37 156.81C293.67 157.34 293.55 157.58 293.47 157.76C293.33 158.04 293.26 158.17 295.07 159.07C298.03 160.54 300.3 162 300.3 162C300.3 162 303.36 163.24 304.04 164.15C303.93 167.56 303.19 170.84 301.77 173.95C301.43 173.81 301.14 173.67 300.88 173.56C299.51 172.92 299.31 172.82 299.6 175.3C299.76 176.59 300.33 177.45 300.72 178.02C301.2 178.74 301.39 179 300.06 179.12C299.29 179.19 298.7 179.11 298.23 179.04C297.26 178.91 296.77 178.84 296.08 180.36C295.24 182.21 294.63 182.31 293.7 182.48C293.49 182.52 293.27 182.56 293.02 182.62C292.44 182.77 292.48 182.92 292.55 183.16C292.65 183.47 292.79 183.94 291.55 184.78C288.09 185.51 285.23 187.23 282.93 189.97C282.93 189.97 285.56 192.58 280.52 192.92C278.7 193.04 277.67 192.91 276.98 192.81C275.76 192.65 275.56 192.63 273.88 194.36C273.44 194.8 273.07 195.19 272.75 195.52L272.75 195.53L272.75 195.53C271.14 197.22 270.81 197.56 269.61 197.49C269.53 197.48 269.45 197.48 269.38 197.47L269.38 197.47C268.95 197.44 268.69 197.43 268.44 197.47C268.04 197.53 267.67 197.74 266.7 198.28C266.58 198.35 266.44 198.43 266.28 198.51C264.59 199.44 264.31 199.47 263.05 199.57L263.05 199.57C262.73 199.6 262.35 199.63 261.87 199.68C260.79 199.8 260.34 200.43 259.89 201.05C259.35 201.8 258.82 202.54 257.18 202.31C254.46 201.91 252.8 197.85 252.16 196.25C252.09 196.11 252.04 195.98 252 195.88C251.89 192.4 251.21 189.06 249.97 185.82C248.66 184.12 247.85 182.62 246.83 180.74L246.83 180.74C246.38 179.9 245.88 178.99 245.28 177.95C244.28 176.22 243.34 175.46 242.4 174.71C241.51 173.99 240.61 173.26 239.66 171.69C238.61 167.17 236.51 163.2 233.36 159.76C229.88 155.53 229.53 152.48 229.53 152.48L224.68 147.75C224.68 147.75 222.21 147.66 222.79 145.64C222.84 145.48 222.89 145.31 222.95 145.12C222.98 145.03 223.01 144.93 223.04 144.82L223.04 144.82C223.68 142.64 224.64 139.42 223.74 140.99C222.97 145.97 221.44 147.46 219.15 145.44C219.37 145.87 219.59 146.36 219.82 146.92C220.76 149.23 221.19 150.06 221.53 150.73C221.83 151.34 222.07 151.8 222.56 153.09C223.58 155.81 225.03 157.74 225.03 157.74C225.03 157.74 227.41 159.85 226.73 160.96C226.62 161.14 226.52 161.29 226.44 161.41C226.03 162.02 226.01 162.06 226.23 162.98C227.04 166.42 229.75 170.17 232.49 173.95C235.25 177.76 238.04 181.61 238.92 185.21C239.71 188.49 240.73 191.64 240.73 191.64L248.56 196.84C251.8 204.55 256.92 209.13 263.77 209.11C263.77 209.11 266.83 208.44 269.78 207.98C271.09 207.78 272.33 207.8 273.39 207.82C274.73 207.84 275.8 207.85 276.37 207.42C282.21 202.9 260.68 239.6 256.79 243.04C253.73 245.75 250.56 250.14 250.56 250.14C249.55 253.03 247.78 253.53 247.78 253.53C247.78 253.53 245.76 253.44 245.41 254.47C244.96 255.81 244.12 256.92 242.92 257.79C242.75 258.96 241.04 261.16 241.04 261.16L238.04 263.35L238.04 269.44C238.04 269.44 241.72 269.09 241.04 270.11C240.36 271.13 240.75 272.65 240.75 272.65C240.75 272.65 241.78 274.85 241.96 276.37C242.02 276.95 241.81 277.47 241.61 277.94C241.29 278.7 241.02 279.36 241.96 280.09C242.72 280.67 242.98 280.42 243.11 280.29C243.14 280.26 243.17 280.23 243.19 280.23C243.26 280.24 243.3 280.45 243.49 281.26C244.12 285.04 244.5 288.85 244.61 292.67C245.04 294.1 244.96 294.78 244.96 294.78L243.69 295.89L243.1 297.99L241.22 299.43L239.27 300.95C236.85 301.38 235.9 302.46 234.92 303.58C234.33 304.25 233.73 304.93 232.79 305.49C231.35 306.3 230.17 307.36 229.27 308.71C228.94 308.99 228.68 309.09 228.5 309.16C228.19 309.28 228.13 309.31 228.35 310.05C228.48 310.53 228.76 311.05 229.05 311.57C229.48 312.38 229.92 313.19 229.82 313.83C229.75 314.27 229.63 314.5 229.54 314.66C229.42 314.89 229.37 314.99 229.64 315.36C230.32 316.29 230.41 317.27 229.86 318.33C229.86 318.33 229.91 319.29 230.08 319.79C230.25 320.31 229.91 321.38 229.91 321.38L228.94 322.01L225.66 322.64L224.19 323.77C224.19 323.77 222.88 324.2 223.74 325.11C224.16 325.57 224.4 325.42 224.52 325.34C224.64 325.27 224.64 325.27 224.59 326.03C224.54 326.69 224.71 326.99 224.84 327.21C225 327.5 225.11 327.69 224.63 328.42C224.45 328.7 224.28 328.94 224.13 329.15L224.13 329.15C223.6 329.92 223.33 330.31 223.45 330.87C223.5 331.08 223.6 331.27 223.68 331.43C223.89 331.84 224.03 332.12 223.23 332.18C222.1 332.25 219.15 337.17 217.93 339.2L217.93 339.2C217.75 339.49 217.62 339.72 217.52 339.87C216.67 341.22 215.91 342.06 215.91 342.06L213.34 343C213.34 343 212.34 343 212.16 343.41C212.11 343.53 212.11 343.63 212.1 343.71C212.09 343.9 212.09 343.97 211.49 343.91C211.06 343.87 211.19 343.82 211.25 343.8C211.31 343.78 211.31 343.78 210.63 343.82C210.02 343.86 209.7 343.93 209.49 343.97C209.22 344.02 209.12 344.04 208.84 343.93C207.94 343.63 207 343.45 206.04 343.41C205.68 343.67 205.68 344.01 205.68 344.29C205.68 344.66 205.68 344.91 204.86 344.67C204.34 344.52 204.04 344.35 203.82 344.23C203.44 344.02 203.31 343.95 202.65 344.32C202.33 344.51 202.14 344.68 202 344.81C201.68 345.09 201.58 345.18 200.77 344.76C200.26 344.51 200.05 344.29 199.9 344.14C199.69 343.93 199.61 343.85 199.06 344C198.35 344.19 198.04 343.81 197.49 343.14C197.31 342.92 197.1 342.66 196.85 342.39C194.73 340.12 191.35 335.9 188.56 332.41C187.77 331.43 187.03 330.51 186.37 329.7C184.58 327.5 182.37 324.55 180.66 321.92C179.94 320.8 179.63 319.72 179.33 318.69C178.94 317.31 178.57 316.02 177.25 314.9C171.98 311.49 168.28 307.01 166.18 301.45C166.18 301.45 164.72 299.32 165.06 297.97C165.26 297.23 165.19 296.16 165.1 294.93C165.04 293.93 164.96 292.82 165.02 291.71C168.11 287.93 168.08 283.87 165 279.54C164.26 278.88 163.6 278.5 163.12 278.22C162.26 277.71 161.96 277.54 162.77 276.68C163.8 275.58 163.16 274.7 162.28 273.5C162.08 273.23 161.86 272.93 161.65 272.61C161.25 271.99 160.83 271.22 160.39 270.43C159.65 269.07 158.85 267.63 158 266.61C157.27 265.74 157.2 265.42 157.14 265.08C157.09 264.79 157.03 264.49 156.56 263.83C156.36 263.53 151.24 256.68 149.71 256.6C148.9 254.86 147.72 253.42 146.19 252.25C143.39 250.97 143.39 248.64 146.16 245.3C146.14 244.44 146.06 243.87 146 243.41C145.92 242.79 145.86 242.37 145.99 241.69C146.09 241.13 146.01 240.87 145.95 240.67C145.88 240.43 145.83 240.27 146.1 239.82C146.62 238.3 146.65 236.82 146.16 235.37C145.57 233.91 144.5 233.1 142.93 233C143.1 232.5 142.99 231.87 142.25 231.65C141.29 230.11 140.61 230.08 140.22 231.58C139.14 230.97 138.42 231.17 138.03 232.17C137.64 231.79 137.59 231.83 137.44 231.95C137.36 232.02 137.25 232.11 137.04 232.17C136.76 232.25 136.54 232.25 136.32 232.24C136.07 232.24 135.84 232.23 135.56 232.34C135.52 232.35 135.49 232.37 135.46 232.38C135 232.55 134.88 232.59 134.24 232C134.01 231.78 133.83 231.64 133.67 231.51C133.36 231.27 133.16 231.11 132.93 230.69C132.89 230.61 132.85 230.55 132.82 230.5L132.82 230.5C132.74 230.35 132.71 230.29 132.69 230.24C132.68 230.21 132.68 230.18 132.67 230.13C132.66 230.06 132.63 229.94 132.58 229.71C132.5 229.38 132.62 228.93 132.7 228.59C132.8 228.21 132.87 227.97 132.58 228.15C132.06 228.47 131.85 228.15 131.62 227.79C131.59 227.76 131.57 227.73 131.55 227.69C131.38 227.41 128.05 223.17 127 224.65C126.87 224.83 125.06 224.99 124.39 225.04L124.27 225.05C124.21 225.06 124.17 225.06 124.16 225.06C124.16 225.06 123.72 225.37 123 225.32C122.88 225.32 122.78 225.31 122.69 225.3L122.69 225.3C122.21 225.26 122.03 225.25 121.77 225.54C121.09 226.15 120.35 226.72 119.56 227.17C118.1 227.17 116.85 227.67 115.82 228.67C115.51 228.85 115.28 228.87 115.1 228.89C114.84 228.92 114.67 228.94 114.47 229.3C114.35 229.5 114.3 229.68 114.26 229.83C114.17 230.13 114.11 230.32 113.61 230.37C113.33 230.39 113.25 230.47 113.2 230.53C113.11 230.62 113.08 230.65 112.3 230.26C111.27 229.65 110.16 229.39 108.95 229.47C106.15 228.93 104.16 228.82 102.04 230.67C102.04 230.67 101.19 231.04 101.01 231.39C100.97 231.48 100.95 231.61 100.94 231.76C100.89 232.18 100.83 232.66 100.03 232.19C99.77 232.04 99.43 231.89 99.04 231.72C97.81 231.19 96.14 230.46 95.39 228.89C95.25 228.59 95.13 228.33 95.02 228.09L95.01 228.09L95.01 228.08C94.35 226.66 94.1 226.12 92.83 225.17C92.36 224.82 92.02 224.6 91.77 224.44L91.77 224.44L91.77 224.44C91.22 224.08 91.05 223.97 90.71 223.3C90.53 222.97 90.49 222.78 90.46 222.64C90.4 222.37 90.38 222.31 89.55 221.96C88.85 220.74 88.04 219.61 87.17 218.52C87.07 218.18 87 218 86.94 217.88C86.84 217.65 86.82 217.59 86.9 216.96C86.94 216.66 86.99 216.48 87.02 216.34C87.1 216.03 87.12 215.97 86.86 215.35C86.75 215.07 86.66 214.75 86.58 214.43C86.39 213.71 86.19 212.96 85.63 212.68C85.18 212.44 84.99 212.07 84.77 211.62C84.59 211.27 84.39 210.87 84.02 210.44C83.51 209.87 83.44 209.51 83.37 209.22C83.33 209.01 83.29 208.84 83.12 208.66C82.94 208.48 80.71 205.51 81.32 205.08C80.82 205.41 80.19 204.91 79.97 203.85C79.77 202.81 79.51 201.92 79.51 201.92C79.51 201.92 78.92 199.94 79.51 199.05C80.06 198.22 79.51 197.23 78.72 195.77L78.71 195.77C78.65 195.66 78.59 195.54 78.53 195.42C77.98 194.42 78.58 193.63 79.15 192.89C79.52 192.42 79.86 191.97 79.88 191.49C79.93 190.27 80.01 188.79 80.19 187.95C80.36 187.1 80.8 182.17 80.49 179.54C80.38 178.58 80.2 177.84 80.07 177.26C79.83 176.26 79.72 175.8 80.32 175.69C81.02 175.56 80.8 174.55 80.58 173.58C80.51 173.25 80.44 172.93 80.41 172.65C80.8 168.32 81.94 164.22 83.82 160.31C83.84 160.24 83.85 160.17 83.87 160.11C83.93 159.83 83.97 159.68 84.04 159.55C84.11 159.4 84.23 159.27 84.47 159.01L84.47 159.01C84.53 158.94 84.6 158.87 84.67 158.78C85.09 158.32 85.73 157.05 86.4 155.74L86.4 155.74C86.89 154.78 87.39 153.79 87.82 153.07C88.28 152.31 88.68 151.96 89.03 151.66C89.45 151.28 89.8 150.98 90.08 150.07C90.58 148.42 91.98 146.09 93.86 145.83C95.72 145.57 99.18 142.14 99.81 139.4C100.44 136.64 102.59 129.95 105.43 128.58C105.72 128.44 106.01 128.3 106.31 128.16L106.31 128.16C108.92 126.93 111.67 125.64 112.13 123.1C112.63 120.3 114.73 117.86 114.8 119.84C114.86 121.82 117.07 121.71 117.07 121.71C117.07 121.71 119.17 120.82 119.74 121.49C120.31 122.17 120.83 122.36 122.58 121.86C127.7 118.13 133.41 116.45 139.67 116.82C139.95 116.99 140.13 117.2 140.29 117.39C140.7 117.87 141 118.22 142.64 117.43C144.36 116.6 146.03 116.65 146.76 116.72C146.91 116.29 146.82 115.9 146.74 115.56C146.66 115.2 146.59 114.9 146.82 114.66C147.26 114.16 148.31 114.46 148.37 114.48L148.38 114.48C148.6 114.55 148.97 114.66 149.16 114.98C149.35 115.3 149.23 115.66 149.07 116.16C149.04 116.25 149.01 116.34 148.99 116.44C148.95 116.56 148.92 116.67 148.89 116.78L150.21 116.78C150.21 116.78 152.09 114.63 152.51 115.73C152.63 116.03 152.68 116.25 152.72 116.4C152.76 116.56 152.78 116.65 152.83 116.68C152.9 116.72 153.03 116.66 153.31 116.53C153.4 116.49 153.5 116.44 153.62 116.39C154.74 115.89 156.51 115.63 155.33 116.73C154.89 117.14 154.4 117.34 153.99 117.5C153.31 117.77 152.87 117.95 153.3 118.84C153.57 119.41 154.13 119.64 154.58 119.82C155.27 120.09 155.7 120.26 154.48 121.39C152.44 123.25 152.09 123.84 152.09 123.84C152.09 123.84 149.47 123.84 150.65 125.95C150.72 126.07 150.78 126.19 150.85 126.3L150.97 126.51C151.89 128.14 152.11 128.53 153.12 128.9C154.24 129.32 155 129.58 155 129.58L159.33 130.34C159.33 130.34 163.34 130.75 163.43 131.1C163.46 131.23 163.6 131.37 163.79 131.56C164.1 131.86 164.52 132.28 164.78 132.97C167.16 135.14 169.86 136.77 172.88 137.88C177.62 139.14 179.35 137.94 178.06 134.34C177.88 133.31 177.71 132.14 179.59 131.29C181.69 130.16 183.94 129.77 186.31 130.12C187.23 130.62 187.31 130.79 187.49 131.29C187.56 131.49 187.26 131.62 187.03 131.72C186.67 131.89 186.46 131.98 188.08 132.14C189.34 132.27 190.06 132.2 190.6 132.15C191.2 132.09 191.59 132.05 192.26 132.32C192.89 132.57 193.14 132.33 193.27 132.22C193.31 132.18 193.33 132.16 193.36 132.16C193.41 132.17 193.44 132.32 193.53 132.82C194.09 135.25 195.98 135.99 199.15 135.01C199.65 135.19 200 135.31 200.26 135.41C200.74 135.58 200.89 135.64 201.05 135.66C201.13 135.67 201.21 135.67 201.33 135.68C201.6 135.69 202.08 135.71 203.24 135.86C204.63 136.04 205.28 136.32 205.69 136.5C206.24 136.73 206.37 136.79 207.24 136.21C208.14 135.6 210.92 133.77 212.19 134.38C213.5 134.12 214.5 134.51 215.21 135.55C215.46 135.49 215.59 135.5 215.82 135.54C216.17 135.59 216.73 135.67 218.22 135.51C219.09 135.43 219.7 135.41 220.15 135.4C220.99 135.38 221.31 135.38 221.75 134.97C223.04 131.84 224.24 128.66 225.31 125.45C225.67 124.48 225.57 123.35 225.48 122.31C225.4 121.45 225.33 120.66 225.53 120.08C226.51 117.19 224.74 115.78 221.92 117.21C220.02 118.91 217.83 119.6 215.4 119.23C213.94 117.43 212.12 116.82 209.91 117.41C209.85 117.82 209.93 118.15 210 118.41C210.11 118.84 210.16 119.04 209.28 118.93C207.44 119.49 206.19 119 205.49 117.45C205.06 117.24 204.81 117.34 204.6 117.42C204.38 117.5 204.22 117.56 203.96 117.19C202.84 116.52 201.73 115.91 200.55 115.37C200.58 115.2 200.67 114.98 200.76 114.74C201.08 113.97 201.48 112.98 200.31 112.71C197.4 113.15 196.68 112.63 198.14 111.15C198.14 111.15 199.56 111.34 199.74 110.78C199.83 110.11 199.65 109.5 199.24 108.93C199.25 108.79 199.29 108.69 199.32 108.61C199.35 108.55 199.36 108.51 199.35 108.48C199.32 108.41 199.16 108.4 198.68 108.38L198.56 108.37C198.18 108.35 197.79 108.4 197.49 108.44C196.89 108.53 196.6 108.57 197.25 107.89C197.93 107.17 198.24 107.13 198.56 107.09C198.69 107.08 198.83 107.06 199 107C200.35 108.35 202.01 108.69 203.98 108.09C203.98 108.09 206.04 107.37 206.08 106.83C206.1 106.66 206.03 106.42 205.95 106.15C205.78 105.54 205.58 104.83 206.3 104.78C206.85 104.75 207.16 104.78 207.36 104.8C207.53 104.82 207.62 104.83 207.72 104.78C206.83 103.54 205.53 103.31 203.81 104.04C203.15 104.01 202.98 103.84 202.88 103.74C202.75 103.61 202.72 103.58 201.99 104.04C200.11 105.26 198.43 105.39 196.54 104.15C196.54 104.15 195.41 103.37 194.95 103.65C194.79 103.74 194.68 103.87 194.59 103.98C194.41 104.19 194.25 104.37 193.81 104.26C193.6 104.21 193.45 104.14 193.33 104.08C193.04 103.94 192.89 103.86 192.5 104.33C191.75 105.22 188.3 106.33 188.19 105.85C188.35 106.61 188.81 107 189.28 107.4C189.61 107.68 189.94 107.97 190.18 108.39C190.75 109.41 191.53 110.48 191.53 110.48C191.53 110.48 192.1 111.22 192.17 111.78C192.19 112.08 192.03 112.17 191.85 112.27C191.69 112.35 191.52 112.45 191.43 112.67C191.73 113.61 191.43 114.15 190.51 114.26C190.51 114.26 189.54 112.52 189.19 112.24C188.87 111.95 187.55 111.89 187.55 111.89C186.48 111.5 185.41 111.43 184.32 111.72C184.23 111.7 184.14 111.72 184.04 111.73C183.75 111.79 183.4 111.85 182.89 111.08C182.32 110.19 181.82 109.24 181.43 108.26C181.12 107.87 181.11 107.77 181.1 107.67C181.08 107.56 181.07 107.45 180.75 107.02C180.51 106.06 179.96 105.5 179.11 105.28C179.07 104.22 179.48 103.37 180.36 102.74C180.48 102.56 180.62 102.42 180.73 102.29C181.03 101.97 181.22 101.76 180.86 101.44C180.09 100.33 179.09 99.48 177.86 98.89C177.55 98.59 177.26 98.48 176.96 98.36C176.59 98.22 176.2 98.07 175.7 97.55C175.38 97.21 175.27 96.95 175.17 96.74C175 96.36 174.91 96.14 173.77 95.92C171.52 95.42 170.51 94.07 170.78 91.85C170.72 91.55 170.74 91.32 170.76 91.17C170.77 91.07 170.78 91.01 170.75 90.99C170.71 90.95 170.57 91.02 170.23 91.19L170.22 91.19C170.17 91.22 170.1 91.25 170.03 91.29C169.51 91.54 169.24 91.98 169.04 92.3C168.81 92.69 168.67 92.92 168.32 92.46C168.06 92.11 168.23 91.74 168.38 91.42C168.59 90.97 168.75 90.61 167.58 90.55C165.5 90.44 162.29 93.2 165.83 95.18C167.29 96 167.06 96.67 166.85 97.27C166.7 97.7 166.56 98.1 167.08 98.5C167.89 99.11 168.39 99.68 168.39 99.68C168.39 99.68 169 100.37 169.46 100.59C169.92 100.81 170.71 100.87 170.71 100.87C171.98 100.39 172.39 100.81 171.96 102.11C171.96 102.11 173.07 102.74 173.99 103.24C175.65 104 176.92 105.19 177.8 106.85C176.62 107.63 175.57 107.09 174.73 105.67L172.63 105.5C172.63 105.5 171.54 106.17 172 106.74C172.46 107.3 172.96 108.04 172.96 108.04L173.47 109.67C173.47 109.67 174.01 109.8 172.83 110.3C171.63 110.82 171.34 111.28 171.34 111.28C171.34 111.28 171.21 111.91 170.47 112.19C170.07 112.34 169.79 112.56 169.57 112.74C169.37 112.89 169.21 113.02 169.03 113.06C168.63 113.15 168.22 113 168.32 112.61C168.38 112.43 168.44 112.39 168.52 112.33C168.61 112.27 168.72 112.19 168.87 111.91C169.16 111.34 169.22 111.28 169.97 110.84C170.69 109.28 170.4 107.87 169.07 106.59C168.19 106.13 167.56 105.48 167.1 104.63C166.07 103 164.58 102.17 162.64 102.17C162.62 102.15 162.54 102.02 162.4 101.81L162.4 101.8L162.4 101.8C161.37 100.24 157.48 94.32 158.5 94.53C157.52 93.53 156.36 93.24 155.05 93.68C154.64 93.71 154.37 93.71 154.18 93.71C153.95 93.72 153.84 93.72 153.74 93.76C153.64 93.81 153.56 93.91 153.39 94.12L153.38 94.13C152.84 94.76 152.16 95.24 151.35 95.57C151.13 95.82 150.81 96.04 150.47 96.27C150.14 96.49 149.8 96.72 149.51 97C149.39 97.13 149.31 97.23 149.25 97.3C149.19 97.37 149.16 97.42 149.11 97.45C149.01 97.49 148.88 97.46 148.49 97.34C148.33 97.3 148.14 97.24 147.89 97.18C146.36 96.76 145.51 96.5 145.51 96.5C145.51 96.5 144.92 95.74 143.98 95.83C143.51 95.87 143.53 95.7 143.54 95.62C143.54 95.6 143.54 95.58 143.54 95.58C143.52 95.56 143.42 95.63 143.04 95.92C142.38 96.4 142.15 96.54 141.93 96.67C141.81 96.74 141.69 96.81 141.5 96.94C141.36 97.04 141.26 97.07 141.19 97.1C141.15 97.11 141.12 97.12 141.1 97.14C141.03 97.19 141.01 97.31 140.93 97.79L140.91 97.87C140.84 98.31 140.83 98.61 140.82 98.84C140.81 99.14 140.8 99.33 140.65 99.57C140.41 100 140.06 100.85 140.06 100.85C140.06 100.85 138.97 101.2 138.71 101.55C138.44 101.89 137.85 102.85 137.85 102.85C137.75 102.9 137.28 103.05 136.68 103.25C135.41 103.66 133.58 104.26 133.52 104.44C133.35 105.02 133.35 105.65 133.35 105.65C133.56 107.91 132.69 108.74 130.7 108.11L130.66 108.07C130.6 108.09 130.5 108.14 130.35 108.19C128.66 108.45 128.31 109.56 129.23 111.58C127.96 112.22 127.13 113.19 126.76 114.54C126.76 114.54 124.55 114.87 124.38 115.13C124.32 115.21 124.26 115.21 124.19 115.22C124.05 115.22 123.9 115.23 123.79 115.97C123.61 117.06 122.17 117.23 122.17 117.23C122.17 117.23 121.31 116.56 121.05 117.41C120.79 118.26 120.37 118.52 119.34 118.26C119.2 118.22 119.03 118.18 118.84 118.13C115.34 117.29 106.01 115.03 111.16 109.54C111.4 109.29 111.61 109.06 111.81 108.86L111.81 108.85C112.96 107.63 113.33 107.24 113.59 106.78C113.71 106.55 113.8 106.31 113.94 105.96L113.96 105.91C114.17 105.39 114.36 105.08 114.53 104.79C114.77 104.39 114.99 104.02 115.23 103.13C115.38 102.58 115.46 102.09 115.52 101.65C115.63 100.89 115.72 100.31 116.15 99.94C116.92 99.26 118.36 97.35 118.36 97.35L120.39 95.96C120.39 95.96 121.42 95.57 124.4 95.98C126.13 96.23 126.36 96.36 126.54 96.46C126.67 96.53 126.77 96.58 127.37 96.66C128.73 97.24 130.11 97.46 131.55 97.35C131.55 97.35 133.98 95.5 134.16 94.2C134.26 93.4 134.3 93.19 134.37 92.87C134.41 92.67 134.47 92.41 134.55 91.94C134.68 91.24 135.51 89.29 135.91 88.96C135.68 88.58 135.51 88.2 135.41 87.8C134.04 88.18 132.94 88.49 132.07 88.74C129.81 89.39 129.05 89.61 128.95 89.38C128.77 89.06 130.22 88.02 131.09 87.47C132 86.91 132.82 86.6 133.41 86.37C134.01 86.14 134.38 86 134.37 85.78C134.36 85.52 133.83 85.36 133.25 85.19C132.57 84.98 131.82 84.76 131.77 84.32C131.73 83.88 132.4 83.47 132.64 83.33C132.66 83.32 132.68 83.31 132.69 83.3C132.87 83.2 133.04 83.13 133.2 83.08C132.99 83.03 132.76 83.01 132.51 83.01C132.51 83.01 133.32 81.77 133.83 81.66C134.07 81.61 134.7 81.6 135.46 81.6L135.5 81.6C135.49 81.4 135.52 81.18 135.64 80.93C135.88 80.43 136.3 80.19 137 79.8C137.69 79.41 138.19 79.27 138.57 79.17C138.98 79.05 139.25 78.97 139.49 78.67C140.06 77.93 139.71 76.74 139.6 76.41C139.29 75.39 138.65 74.83 138.1 74.36C137.61 73.93 137.21 73.58 137.22 73.02C137.22 72.78 137.3 72.48 139.03 71C140.15 70.04 142.44 68.17 142.66 68.41C142.74 68.49 142.53 68.79 142.32 69.09C142.12 69.39 141.91 69.68 141.99 69.76C142.12 69.9 142.96 69.33 143.8 68.75C144.64 68.17 145.49 67.6 145.62 67.74C145.67 67.8 145.58 67.94 145.46 68.12C145.28 68.4 145.04 68.77 145.16 69.09C145.31 69.47 145.92 69.53 146.51 69.59C147.04 69.64 147.55 69.69 147.65 69.98C147.76 70.26 147.39 70.56 146.87 70.99C146.15 71.59 145.13 72.44 144.7 73.8C144.69 73.84 144.69 73.85 144.67 74.04L144.67 74.05C144.64 74.28 144.6 74.75 144.48 75.82C144.43 76.25 144.4 76.62 144.36 76.95L144.36 76.96L144.36 76.97C144.29 77.57 144.25 78.02 144.21 78.36C144.34 78.3 144.47 78.25 144.61 78.21C144.76 78.17 144.94 78.23 145.12 78.29C145.44 78.4 145.8 78.52 146.14 78.21C146.71 77.71 147.22 76.86 147.22 76.86C147.72 75.27 148.79 74.6 150.41 74.84C151.07 74.76 151.96 74.18 152.87 73.59C153.28 73.32 153.71 73.04 154.11 72.82C154.58 72.55 154.95 72.43 155.25 72.33C155.74 72.17 156.06 72.06 156.4 71.43C157.17 70.03 159.18 68.19 161.13 68.69C161.94 68.88 162.2 69.1 162.2 69.1C162.2 69.1 161.85 68.8 163.38 68.34C164.89 68.19 166.09 67.51 166.99 66.36C167.04 66.15 167.04 65.98 167.04 65.85C167.04 65.62 167.04 65.5 167.3 65.47C167.67 65.43 168.65 65.47 168.65 65.47C168.65 65.47 169.03 65.88 169.29 66.28C169.38 66.42 169.32 66.47 169.28 66.5C169.21 66.54 169.19 66.56 169.83 66.86C170.56 67.38 171.32 67.51 172.13 67.25C173.14 66.62 174.23 66.25 175.41 66.19C175.42 66.19 175.43 66.18 175.44 66.18C175.59 66.13 175.88 66.02 176.27 66.69C177.27 68.77 179.04 68.75 181.58 66.62C183.75 64.38 185.45 64.28 186.68 66.28C187.6 66.54 188.49 66.58 189.41 66.38C189.46 66.17 189.92 65.32 189.92 65.32C189.92 65.32 190.53 65.12 191.16 65.08C191.8 65.04 192.02 64.58 192.02 64.58C191.73 63.49 191.97 62.49 192.72 61.56C192.72 61.56 192.8 60.8 193.07 60.62C194.16 58.17 195.63 57.78 197.44 59.45C199.21 60.65 200.07 57.76 200 57.71C199.32 57.3 198.4 56.43 198.88 55.8C198.92 55.76 198.95 55.72 198.97 55.68L198.97 55.68C199.39 55.14 199.56 54.91 200.42 54.67C202.52 54.08 205.01 54.19 207.18 54.45C208.4 53.93 209.63 53.48 210.87 53.06C209.82 52.48 208.09 52.02 208.09 52.02C208.09 52.02 205.78 52.35 204.35 52.8C202.91 53.37 201.4 53.58 199.85 53.45C199.85 53.45 197.35 53.28 196.96 53.08C196.93 53.07 196.89 53.05 196.85 53.03C196.39 52.81 195.44 52.36 195.87 51.54C196.35 50.65 196.85 49.82 196.85 49.82C197.22 47.41 199.26 45.72 202.17 44.94C204.22 45.24 205.23 44.65 205.19 43.17L204.11 43.09L201.69 43.09C201.69 43.09 201.42 41.52 200.83 42.15C200.44 42.57 200.22 42.58 200.03 42.59C199.93 42.59 199.83 42.6 199.72 42.67C199.62 42.75 199.48 42.8 199.34 42.85C199.05 42.97 198.76 43.08 198.82 43.35C198.85 43.47 198.92 43.6 199 43.74C199.16 44.04 199.32 44.35 199.08 44.52C198.73 44.78 197.25 45.2 197.25 45.2C197.25 45.2 196.11 45.83 195.17 46.09C194.89 46.16 194.71 46.19 194.54 46.21C194.13 46.26 193.87 46.3 192.87 47.02L192.66 47.17C191.42 48.04 191.19 48.2 190.9 48.33C190.59 48.46 189.33 50.11 189.33 50.11L188.98 51.72L190.16 52.56C190.16 52.56 190.75 53 190.57 53.41C190.4 53.82 190.29 54 189.98 54.21C189.7 54.41 189.39 54.67 189.39 54.67C189.39 54.67 190.11 55.3 189.39 55.43C188.67 55.56 188.67 55.56 188.32 55.78C188.18 55.86 187.97 56.04 187.75 56.23C187.4 56.53 187.02 56.87 186.77 56.93C186.6 56.98 186.55 56.92 186.51 56.87C186.45 56.8 186.42 56.76 186.07 57.23C185.81 57.57 185.67 57.66 185.56 57.74C185.41 57.83 185.34 57.88 185.19 58.39C185.07 58.8 184.86 59.1 184.67 59.37C184.45 59.68 184.26 59.96 184.27 60.32C184.01 62.65 182.76 63.43 180.53 62.65C180.53 62.65 179.11 61.65 178.89 62.56C178.79 62.97 178.84 63.15 178.88 63.27C178.92 63.42 178.94 63.49 178.67 63.75C178.51 63.91 178.47 64.02 178.44 64.08C178.43 64.11 178.41 64.14 178.4 64.15C178.35 64.21 178.23 64.22 177.73 64.24C177.68 64.24 177.62 64.25 177.55 64.25L177.49 64.25C175.39 64.97 174.71 64.28 175.46 62.1C175.64 62.08 175.81 62.1 175.96 62.11C176.28 62.13 176.48 62.15 176.53 61.75C176.6 61.03 176.41 60.35 176.23 59.69C175.97 58.73 175.71 57.79 176.24 56.73C176.64 55.89 176.44 55.17 175.68 54.58C175.5 54.8 175.4 54.98 175.32 55.15C175.16 55.46 175.05 55.68 174.54 55.82C172.81 56 171.39 56.76 170.27 58.13C168.46 58.06 167.67 57.39 167.67 57.39C167.67 57.39 166.09 57.13 166.68 56.41C167.71 56.17 168.06 55.65 167.76 54.84C166.95 54.67 166.44 54.17 167.25 54.08C167.37 54.07 167.49 54.06 167.6 54.05C168.21 53.99 168.62 53.95 168.65 53.69C168.53 53.37 168.4 53.07 168.27 52.76C168.23 52.66 168.19 52.57 168.15 52.48C168.96 52.22 169.38 51.63 169.38 51.63C169.38 51.63 169.29 50.45 169.88 50.06C170.49 49.67 171.72 48.96 171.72 48.96C172.7 48.67 173.66 48.35 174.6 47.93C174.75 47.53 174.87 47.49 175.11 47.4C175.27 47.34 175.48 47.26 175.78 47.04C176.88 47 177.73 46.56 178.39 45.74C178.59 45.96 178.79 45.82 178.97 45.7C179.17 45.56 179.34 45.44 179.46 45.91C179.68 46.8 180.84 46.65 180.49 46.3C182.98 45.22 183.07 44.87 180.79 45.24C182.07 44.39 183.22 43.88 184.04 43.52C184.65 43.25 185.08 43.06 185.26 42.87C185.41 42.71 185.47 42.71 185.57 42.7C185.75 42.69 186.04 42.67 187.23 41.65C189.06 40.09 189.87 39.5 191.19 38.87C191.84 38.56 191.94 38.52 192 38.51L192.01 38.5C192.05 38.49 192.09 38.47 192.5 38.24C192.84 38.05 192.97 37.96 193.05 37.91C193.08 37.89 193.1 37.88 193.12 37.87C193.18 37.83 193.25 37.81 193.5 37.71L193.66 37.66C195.67 36.46 195.1 36.42 191.95 37.52C191.95 37.52 191.23 37.52 190.38 37.79C189.52 38.05 186.66 38.72 189.26 37.7C190.69 37.15 191.39 36.85 191.83 36.66C192.18 36.51 192.36 36.43 192.63 36.35C192.91 36.27 193.23 36.21 193.52 36.15C193.84 36.08 194.13 36.03 194.29 35.96C194.58 35.83 195.34 35.79 195.56 35.96C195.58 35.97 195.6 35.99 195.62 36.01C195.84 36.19 196.21 36.49 196.59 36.13C196.76 35.98 196.76 35.84 196.76 35.72C196.75 35.55 196.75 35.42 197.22 35.37C197.62 35.33 197.68 35.36 197.73 35.39C197.79 35.42 197.84 35.44 198.25 35.37C198.81 35.3 199.23 34.78 199.49 34.46C199.6 34.32 199.69 34.21 199.74 34.2C199.78 34.19 199.81 34.17 199.85 34.15C199.98 34.07 200.16 33.96 200.68 34.2C200.99 34.34 200.99 34.48 200.99 34.61C200.99 34.76 200.99 34.89 201.53 34.96C202.05 35.02 202.29 34.67 202.53 34.35C202.74 34.05 202.94 33.77 203.33 33.81C204.13 33.87 204.53 33.72 205.25 33.42C205.97 33.14 206.74 32.96 207.77 32.83C208.2 32.78 208.31 32.69 208.41 32.62C208.54 32.52 208.64 32.45 209.47 32.53C210.65 33.29 211.86 33.44 213.08 32.98C212.84 33.56 213.46 33.48 214.11 33.39C214.53 33.34 214.97 33.28 215.21 33.4C215.47 33.53 215.43 33.65 215.39 33.78C215.34 33.94 215.29 34.11 215.75 34.33C216.03 34.47 216.17 34.56 216.27 34.63C216.49 34.78 216.56 34.83 217.41 34.92C219.97 35.18 222.47 35.79 224.9 36.7C226.25 37.02 228.42 37.96 228.42 37.96C229.64 38.61 229.8 39.33 228.92 40.15C228.76 40.29 228.64 40.41 228.54 40.51C228.04 40.99 227.96 41.07 226.8 41.18C226.5 41.2 217.7 40.95 216.93 39.7C216.9 40.79 217.69 41.3 219.32 41.24C219.41 42.22 219.71 43.13 220.21 43.96C220.37 44.44 220.72 44.67 221.53 44.98C222.73 45.72 223.96 45.76 225.18 45.11C225 44.99 224.75 44.86 224.49 44.72C223.95 44.44 223.34 44.13 223.1 43.76C222.75 43.22 222.21 42.33 223.87 42.91C224.68 43.2 225.1 43.55 225.46 43.84C225.81 44.13 226.1 44.37 226.67 44.44C227.78 44.57 229.14 44.39 229.14 44.39C229.14 44.39 227.67 42.98 228.02 42.44C228.22 42.13 228.68 41.87 229.1 41.64C229.42 41.46 229.71 41.3 229.86 41.13C229.94 41.04 229.97 40.87 230 40.68C230.09 40.12 230.2 39.45 231.9 40.33C234.15 41.5 234.15 41.05 233.97 40.24C233.8 39.44 233.25 37.79 233.25 37.79L235.09 36.81C238.24 36.39 238.79 36.98 236.71 38.55C235.28 39.9 236.28 40.31 239.71 39.77C240.07 39.2 240.31 38.82 240.47 38.56L240.48 38.56C240.81 38.03 240.84 37.97 241.02 37.84C241.66 37.32 242.2 37.27 242.85 37.29C243.31 37.15 243.77 37.07 244.25 36.98C245.15 36.82 246.09 36.66 247.1 36.07C247.29 35.95 247.4 35.74 247.47 35.58C247.6 35.32 247.66 35.21 247.91 35.89C247.96 36.04 247.98 36.18 247.97 36.3L248.05 36.26C248.86 35.89 249.56 35.57 250.77 35.51C251.63 35.47 252.76 35.56 252.81 35.86C252.86 36.12 252.04 36.48 250.92 36.88C251.71 36.81 251.82 36.81 251.82 36.81C253.31 35.29 254.58 35.37 255.65 37.02L257.14 36.13L256.92 35.2C256.92 35.2 255.28 34.96 254.16 34.66C253.07 34.35 251.1 33.37 252.76 33.59C253.5 33.68 253.67 33.73 253.82 33.79C254.02 33.85 254.19 33.91 255.46 34C258.13 34.13 260.73 34.68 263.24 35.61C263.24 35.61 267.23 36.96 267.62 36.83C268.54 34.96 267.36 34.2 264.05 34.5C263.87 34.35 263.88 34.33 263.9 34.3C263.93 34.24 263.99 34.15 263.42 33.48C262.81 32.77 262.97 32.5 263.22 32.07C263.35 31.83 263.52 31.55 263.59 31.11C263.66 30.72 263.57 30.33 263.5 30.01C263.33 29.33 263.25 28.98 264.99 29.77C266.14 30.27 266.76 30.29 267.2 30.3C267.52 30.31 267.75 30.32 268.01 30.49C268.07 30.44 268.13 30.4 268.19 30.36C268.99 29.85 269.87 30.14 272.19 30.89L272.19 30.89C272.76 31.08 273.43 31.29 274.21 31.53L272.87 30.9L274.44 30.31C274.44 30.31 274.75 29.4 277 30.57C282.43 31.98 282.14 31.57 276.15 29.33C277.09 29.04 278.16 28.97 279.08 28.91C281.1 28.77 282.36 28.69 279.8 26.4C279.8 26.4 282.19 25.68 283.59 25.55C284.14 25.5 284.2 25.66 284.25 25.81C284.32 26.03 284.38 26.22 286.15 25.55C290.53 23.91 293.44 24.29 297.73 24.85C298.61 24.97 299.53 25.09 300.54 25.2C301.88 25.34 302.39 25.57 302.7 25.7C302.73 25.72 302.76 25.73 302.8 25.75C304.13 26.75 304.17 27.83 302.93 28.96C302.84 29.02 302.68 29.09 302.53 29.14C302.09 29.31 301.74 29.45 303.52 29.42C304.96 29.29 305.84 28.57 306.16 27.31C309.14 28.98 312.33 29.51 315.79 28.88C315.89 28.91 315.77 29 315.64 29.11C315.42 29.3 315.14 29.52 315.79 29.55C316.2 29.57 316.59 29.61 316.93 29.65C317.44 29.71 317.83 29.76 318.04 29.68C318.19 29.62 318.09 29.51 317.99 29.39C317.84 29.24 317.68 29.06 318.04 28.96C318.19 28.92 318.3 28.88 318.4 28.83C318.76 28.68 319.03 28.57 320.25 28.92C321.83 29.4 325.48 30.57 325.48 30.57C325.48 30.57 329.07 31.16 330.29 31.51C330.7 31.62 331.11 31.79 331.54 31.96C332.39 32.32 333.29 32.69 334.25 32.66C332.81 32.7 334.21 21.44 340.29 30.51C340.38 30.64 343.31 32.22 345.1 32.57C346.9 32.9 349.11 33.7 350.18 34.55C350.74 35 351.24 35.04 351.65 35.08C352.01 35.11 352.29 35.14 352.48 35.44C352.87 36.07 366.19 46.48 373.1 51.22C379.94 55.9 376.67 55.4 375.18 54.95C390.1 59.56 408.39 92.65 413.05 103.87C414.45 107.22 414.79 107.8 415.47 108.97L415.6 109.19C415.66 109.29 415.72 109.39 415.78 109.5C417.25 111.08 417.36 112.32 416.13 113.21C415.55 112.77 415.3 112.33 414.95 111.71C414.76 111.37 414.53 110.97 414.21 110.5C413.8 109.9 413.6 109.21 413.42 108.59C413.2 107.83 413.01 107.19 412.5 107L411.61 106.65C411.61 106.65 412.26 110.39 411.95 109.91C411.39 109.02 411.06 108.38 410.78 107.85C410.49 107.3 410.26 106.87 409.92 106.41C405.04 99.96 408.87 110.13 409.81 111.15L411.06 112.5C411.06 112.5 412.06 114.87 412.41 115.08C413 114.19 413.73 114.04 414.58 114.63C414.98 114.98 415.38 115.03 415.7 115.06C416.2 115.12 416.5 115.16 416.29 116.32C416.22 116.71 416.11 117.02 416.01 117.31C415.63 118.46 415.35 119.29 417.73 123.41C419.2 125.94 420.17 126.91 420.82 127.55C421.49 128.22 421.82 128.54 422 129.93C422.2 131.51 422.85 132.84 423.92 135.03C424.68 136.6 425.66 138.62 426.85 141.49C429.19 147.12 428.6 150.87 428.26 153.09C428.18 153.57 428.12 153.99 428.1 154.33ZM414.25 232.47C414.25 232.47 414.25 232.47 414.25 232.47C414.25 232.47 414.25 232.47 414.25 232.47ZM272.16 32.86C271.77 32.83 271.37 32.79 270.92 32.73C270.5 32.68 270.13 32.63 269.78 32.58L270.02 32.9C270.02 32.9 270.07 33.24 272.37 34.76C273.4 35.45 273.98 35.61 274.33 35.72C274.76 35.84 274.86 35.87 275.06 36.63C275.41 38.05 275.27 38.46 275.27 38.46C273.44 38.63 273.07 39.35 274.16 40.61L276.41 40.57C277.88 39.94 278.03 38.96 276.87 37.7C276.83 37.16 277.05 36.94 277.59 36.89C278.07 36.86 278.41 37.05 279.19 37.48C279.31 37.55 279.44 37.62 279.58 37.7C280.66 38.29 283.59 39.26 283.59 39.26L281.12 36.81L277.51 35.7L275.38 35.53L273.59 34.55L272.16 32.86ZM275.84 32.91L275.71 32.91C275.55 32.91 275.38 32.92 275.22 32.92L275.89 33.14L275.84 32.91ZM215.77 140.87C215.7 140.74 215.63 140.62 215.56 140.49C215.63 140.62 215.7 140.75 215.77 140.87ZM342.52 168.18C342.46 167.55 342.45 167.05 342.51 166.71C342.43 167.17 342.46 167.68 342.52 168.18ZM227.37 287.18C227.63 287.15 228 287.11 228.22 286.61C228.75 285.41 227.08 283.98 227.08 284L227.08 280.2C227.08 280.2 226.36 278.85 224.48 278.94C224.48 278.94 224.52 278.94 225.11 280.2C225.93 281.93 226.16 283.99 226.41 286.07C226.66 288.31 226.93 290.58 227.91 292.54C230.25 291.41 230.15 290 227.56 288.3C226.88 287.23 227.03 287.22 227.37 287.18ZM220.06 245.93L217.79 247.84L215.93 250.45L216.43 253.38L217.96 256.63C217.9 256.51 217.71 255.82 219.67 255.92C221.88 256.66 222.99 256.05 223.01 254.12C222.44 252.84 222.84 251.88 224.19 251.29C227.19 248.86 226.93 247.27 223.41 246.56C222.51 245.99 220.06 245.93 220.06 245.93ZM212.19 271.31C212.19 271.31 212.78 273.15 213.37 274.18C213.47 274.35 213.62 274.63 213.78 274.94L213.78 274.94C214.53 276.36 215.69 278.57 215.4 275.87C215.19 273.77 214.98 273.38 214.67 272.84C214.5 272.53 214.29 272.16 214.04 271.39C213.79 270.6 213.82 270.08 213.84 269.72C213.88 269.11 213.89 268.93 212.51 268.61C210.15 266.77 209.41 264.31 210.3 261.25C209.95 260.05 208.77 258.7 208.77 258.7C209.12 260.75 208.77 262.09 208.77 262.09L209.45 265.22L210.3 268.09L212.19 271.31ZM231.31 103.81C234 103.41 236.6 102.74 239.14 101.78L239.14 101.78C239.93 101.11 241.17 100.04 239.16 98.65C238.24 98.04 237.78 98.01 237.31 97.98C236.73 97.94 236.15 97.9 234.74 96.79C233.76 96.01 233.37 95.53 233.07 95.15C232.58 94.54 232.33 94.23 230.19 93.46C228.57 92.89 224.73 91.42 221.87 90.28C222.21 90.33 222.74 90.36 223.6 90.37C226.85 90.43 227.69 89.7 228.38 89.09C228.47 89.01 228.56 88.93 228.66 88.85C229 88.59 229.29 88.52 229.48 88.47C229.73 88.41 229.77 88.4 229.4 88.01C228.85 87.4 231.09 86.38 232.08 85.94L232.08 85.94C232.19 85.89 232.28 85.85 232.35 85.81C233.1 85.46 231.74 84.72 229.86 85.35C228.92 85.66 228.47 85.73 227.97 85.81C227.46 85.89 226.91 85.97 225.77 86.31L225.3 86.45C224.28 86.75 223.9 86.86 223.54 87.02C223.33 87.12 223.12 87.23 222.79 87.41L222.79 87.41C222.71 87.45 222.63 87.5 222.53 87.55C221.43 88.15 218.71 88.25 217.08 88.31C216.97 88.31 216.86 88.32 216.76 88.32C216.68 88.33 216.59 88.33 216.52 88.33C215.05 88.38 214.83 88.27 214.2 87.59C214.03 87.4 213.93 87.23 213.85 87.09C213.65 86.74 213.56 86.59 212.67 86.92C210.85 87.59 210.16 88.97 209.66 89.98C209.38 90.55 209.16 91.01 208.82 91.16C208.07 91.72 207.22 91.98 206.26 91.94C206.11 92.25 206.18 92.55 206.24 92.83C206.32 93.21 206.4 93.55 205.91 93.81C205.05 94.26 204.88 94.48 205.05 95.11C205.23 95.74 204.9 96.7 203.98 96.98C203.48 97.14 203.44 97.72 203.41 98.27C203.38 98.73 203.35 99.17 203.06 99.35C202.43 99.74 206.45 102.72 207.77 103.17C207.98 103.25 209.45 102.95 211.45 102.53L211.45 102.53C216.6 101.46 225.31 99.65 225.46 101.72C225.49 102.08 226.01 102.17 226.56 102.27C227.12 102.36 227.69 102.45 227.78 102.85C227.9 103.37 229.31 103.53 230.32 103.64C230.81 103.69 231.21 103.73 231.31 103.81ZM221.22 90.02C221.43 90.11 221.65 90.19 221.87 90.28C221.46 90.22 221.33 90.14 221.22 90.02ZM219.51 89.07C220.73 89.46 220.98 89.75 221.15 89.95L221.18 89.97C221.19 89.99 221.21 90.01 221.22 90.02C218.72 89.01 217.28 88.37 219.51 89.07ZM274.88 117.45C276.68 117.1 277.57 116.91 277.77 116.43C277.94 116.03 277.73 115.71 277.36 115.16C277.11 114.78 276.78 114.28 276.46 113.56C276.68 110.5 275.52 108.89 272.94 108.74C272.92 108.66 272.96 108.61 273.06 108.5C273.13 108.42 273.23 108.32 273.35 108.15L273.37 108.13C273.66 107.7 273.87 107.41 273.81 107.17C273.72 106.76 272.94 106.54 272.32 106.54C271.91 106.54 271.62 106.65 271.4 106.72C271.17 106.8 271.02 106.86 270.88 106.76C270.55 106.52 270.64 105.67 270.97 105.11C271.34 104.46 271.97 104.2 272.04 104.17C272.64 103.94 273.43 103.98 274.76 104.04L274.84 104.04L274.9 104.04C275.06 104.05 275.27 104.05 275.38 103.91C275.6 103.67 275.43 103.11 275.12 102.74C274.93 102.5 274.74 102.44 274.5 102.38C274.32 102.33 274.11 102.27 273.85 102.11C273.49 101.89 273.36 101.67 273.2 101.42C273.05 101.19 272.89 100.92 272.5 100.59C270.99 99.33 270.35 99.76 270.62 101.89C270.63 101.97 270.64 102.04 270.65 102.1C270.68 102.32 270.7 102.45 270.62 102.52C270.42 102.67 269.78 102.26 269.39 101.76C268.98 101.24 268.89 100.7 268.83 100.36L268.83 100.35C268.82 100.3 268.81 100.24 268.8 100.2C268.56 98.84 267.35 97.96 265.33 96.49L265.19 96.39C264.49 95.88 263.89 95.53 263.42 95.24C262.51 94.69 262.01 94.39 261.95 93.76C261.89 93 262.5 92.24 262.68 92.03C262.92 91.73 263.13 91.59 263.39 91.41C263.66 91.23 263.97 91.02 264.43 90.59C264.73 90.31 264.88 90.14 264.97 90.02L264.97 90.02C265.09 89.89 265.14 89.84 265.28 89.79C265.72 89.65 266.11 89.93 266.73 90.39C267.08 90.66 267.51 90.98 268.08 91.31L268.08 91.31C269 91.86 270.25 92.59 270.73 92.2C271.14 91.85 270.99 90.61 270.38 90.27C270.13 90.13 269.9 90.19 269.62 90.26C269.34 90.33 269.01 90.42 268.58 90.31C267.4 89.83 266.9 88.98 267.09 87.72C266.72 86.81 265.56 86.44 265.06 86.29C264.79 86.21 264.51 86.17 264.01 86.09L263.9 86.07C263.9 86.07 262.26 85.83 260.29 86.03C260.12 86.05 259.79 86.09 259.48 86.29C259.29 86.42 259.19 86.55 259.07 86.7C259.05 86.73 259.04 86.75 259.02 86.77C258.99 86.8 258.96 86.84 258.93 86.88C258.72 87.14 258.56 87.23 258.3 87.38C258.11 87.49 257.86 87.63 257.49 87.9C257.14 88.15 256.99 88.29 256.88 88.4C256.76 88.51 256.69 88.58 256.46 88.7C256.21 88.84 256.06 88.88 255.86 88.93C255.67 88.98 255.44 89.04 255.06 89.2C254.41 89.46 254.08 89.59 253.79 89.88C253.6 90.07 253.54 90.21 253.44 90.46C253.35 90.65 253.25 90.91 253.03 91.31C252.79 91.75 252.63 91.99 252.51 92.15C252.38 92.33 252.32 92.42 252.31 92.61C252.26 93.35 252.94 94.2 253.71 94.39C253.99 94.46 254.19 94.42 254.36 94.39C254.53 94.36 254.66 94.34 254.78 94.44C254.98 94.61 254.92 94.92 254.84 95.32C254.74 95.79 254.63 96.39 254.89 97.02C254.96 97.24 255.09 97.41 255.31 97.7C255.34 97.73 255.37 97.77 255.4 97.81C255.42 97.84 255.45 97.88 255.48 97.92C255.96 98.52 256.38 98.89 256.79 99.26C257.5 99.9 257.78 100.19 258 100.41C258.21 100.63 258.37 100.79 258.82 101.17C259.54 101.78 259.97 102.08 260.28 102.29C260.65 102.55 260.85 102.68 261.12 103.09C261.2 103.19 261.27 103.3 261.34 103.41C261.54 103.71 261.75 104.04 262.15 104.39L262.17 104.41C262.31 104.53 262.64 104.8 263.18 105.06C264 105.48 264.68 105.61 265.11 105.68C265.42 105.74 265.6 105.77 265.61 105.87C265.65 106.22 263.62 106.96 262.87 106.87C262.87 106.78 262.87 106.69 262.87 106.62C262.88 106.38 262.88 106.25 262.83 106.24C262.74 106.22 262.5 106.56 262.61 106.74C262.65 106.8 262.74 106.83 262.87 106.85L262.87 106.87C262.87 107.13 262.87 107.49 262.92 107.91C262.93 108.03 262.94 108.14 262.95 108.23C263 108.6 263.02 108.77 262.92 108.98C262.8 109.18 262.64 109.24 262.48 109.3C262.34 109.35 262.19 109.4 262.06 109.56C261.89 109.81 261.95 110.06 262.07 110.51C262.17 110.86 262.29 111.33 262.37 112.02C262.39 112.18 262.4 112.31 262.41 112.43L262.41 112.43C262.44 112.69 262.45 112.89 262.54 113.17C262.7 113.67 262.94 114.08 263.09 114.28C263.56 114.87 264.31 114.84 265.14 114.8C265.99 114.77 266.92 114.73 267.73 115.34C267.99 115.55 268.13 115.73 268.29 115.94C268.5 116.22 268.73 116.52 269.3 116.91C269.96 117.36 270.55 117.56 270.75 117.63C271.16 117.76 272.08 118 274.88 117.45ZM281.29 93.68C281.53 93.83 281.86 93.81 282.06 93.68C282.52 93.4 282.45 92.5 282.32 91.98C282.2 91.52 282 91.28 281.84 91.08C281.67 90.87 281.53 90.7 281.51 90.37C281.47 89.79 281.84 89.33 282.08 89.02C282.23 88.83 282.33 88.7 282.27 88.64C282.14 88.48 281.14 88.81 280.79 89.57C280.66 89.85 280.69 90.04 280.77 90.51C280.8 90.69 280.84 90.92 280.88 91.22C280.94 91.76 280.95 92.18 280.96 92.52C280.99 93.17 281 93.51 281.29 93.68ZM285.58 94.48C286.04 94.46 286.61 94.13 286.69 93.68C285.43 92.5 284.59 91.11 284.22 89.51C284.03 89.46 283.61 89.85 283.59 90.27C283.56 90.66 283.86 90.93 284.16 91.22C284.47 91.5 284.78 91.79 284.77 92.2C284.77 92.48 284.63 92.65 284.49 92.81C284.34 92.98 284.2 93.14 284.22 93.42C284.27 93.96 284.9 94.53 285.58 94.48ZM284.88 88.18C285.86 88.46 286.26 88.46 286.41 88.44C286.45 88.44 287.5 88.35 287.57 88.03C287.61 87.73 286.87 87.41 286.37 87.19L286.34 87.18C285.64 86.88 285.08 86.64 284.42 86.79C283.94 86.9 283.37 87.22 283.39 87.51C283.41 87.76 283.87 87.89 284.79 88.16L284.88 88.18ZM326.38 87.85C326.7 87.79 327.8 87.53 327.87 86.96C327.91 86.64 327.6 86.22 327.25 86.16C326.95 86.1 326.71 86.31 326.43 86.55C326.31 86.66 326.18 86.78 326.03 86.88C325.24 87.4 324.3 87.22 322.42 86.83C321.4 86.62 320.69 86.41 320.17 86.24C319.32 85.99 318.92 85.86 318.37 86.12C317.5 86.53 317.06 87.53 316.97 87.77C316.6 88.64 316.69 89.38 316.71 89.55L316.71 89.56C316.74 89.77 317.03 91.54 318.37 91.96C318.48 92 319.25 92.22 319.49 91.92C319.68 91.67 319.43 91.27 319.13 90.77C318.74 90.12 318.25 89.31 318.5 88.48C318.74 87.75 319.44 87.38 319.57 87.31C320.12 87.03 320.65 87.05 322.59 87.44C323 87.52 323.36 87.59 323.67 87.65C325.02 87.92 325.58 88.03 326.38 87.85ZM360.35 71.58C360.74 72.23 361.88 72.45 362.63 72.14C364.09 71.51 364.16 68.77 363.89 67.17C363.46 64.88 361.79 62.15 359.91 62.21C359.32 62.23 358.49 62.56 358.32 63.12C358.14 63.69 358.73 64.18 359.44 64.78C360.25 65.47 361.23 66.29 361.38 67.51C361.49 68.46 361.06 69.22 360.7 69.87C360.34 70.52 360.04 71.06 360.35 71.58ZM132.14 47.24C132.44 47.01 132.56 46.93 139.84 41.27L140.11 41.07L140.11 41.07C141.56 39.95 142.92 38.9 144.57 37.84C147.85 35.95 151.19 34.17 154.61 32.47C155.79 31.93 157.08 31.43 158.48 30.97C162.57 29.62 165.87 29.32 168.52 29.1L168.66 29.09C170.65 28.93 179.82 28.19 180.27 30.04L180.27 30.04C180.29 30.21 180.37 30.87 177.62 32.67C174.47 34.74 171.87 35.55 169.26 36.36C168.02 36.75 166.77 37.14 165.46 37.66C163.72 38.37 163.16 38.8 162.25 39.48C161.36 40.15 160.16 41.07 157.21 42.73C154.63 44.18 152.46 45.2 143.17 49.16C138.09 51.31 136.11 52.12 134.97 52.58L134.97 52.58C134.05 52.95 133.68 53.11 132.69 53.55C125.54 56.77 120.26 60.02 116.95 62.07L116.95 62.07C114.49 63.58 113.11 64.43 112.85 64.11C112.37 63.48 116.63 59.26 119.32 56.83C121.63 54.77 123 53.82 125 52.44C126.65 51.3 128.73 49.86 132.1 47.27L132.14 47.24ZM150.69 110.15L150.69 110.31C150.69 110.42 150.68 110.51 150.68 110.6C150.65 111.13 150.63 111.42 150.52 111.66C150.36 111.99 150.11 112.22 149.63 112.65L149.49 112.79L149.43 112.84C148.9 113.3 148.65 113.53 148.46 113.46C148.08 113.34 148.1 112.44 148.11 112.1C148.11 112.06 148.11 112.03 148.11 112.01L148.11 112C148.13 111.65 148.18 110.92 148.68 110.14C149.2 109.33 150.19 108.57 150.56 108.79C150.72 108.89 150.72 109.3 150.69 110.15ZM155.02 124.48C155.13 124.13 155.48 123.89 155.79 123.81C156.09 123.72 156.31 123.8 156.63 123.92C156.8 123.98 157 124.05 157.25 124.11L157.29 124.12C157.59 124.22 158.38 124.45 159.18 124.37C159.56 124.34 159.75 124.25 160.01 124.14C160.26 124.03 160.57 123.89 161.17 123.74L161.21 123.73C161.83 123.58 162.6 123.4 162.79 123.7C162.9 123.87 162.79 124.11 162.61 124.46C162.42 124.87 162.23 125.08 162.06 125.27C161.92 125.43 161.79 125.57 161.67 125.81C161.49 126.16 161.49 126.38 161.49 126.61C161.49 126.83 161.5 127.06 161.32 127.41C161.28 127.54 160.86 128.37 160.1 128.56C159.59 128.7 159.14 128.46 158.22 127.98C157.34 127.52 156.77 127.22 156.14 126.59C155.61 126.07 154.76 125.22 155.02 124.48ZM268.35 288.18C268.44 287.85 268.52 287.54 268.87 287.13C269.22 286.71 269.96 286.04 270.46 286.21C270.83 286.36 270.89 286.93 271.01 288.03L271.03 288.24C271.17 289.49 271.25 289.98 271.32 290.4C271.41 290.91 271.48 291.3 271.6 292.87C271.73 294.36 271.75 295.19 271.49 296.25C271.47 296.34 271.12 297.73 270.7 297.71C270.56 297.7 270.47 297.52 270.38 297.33C270.27 297.11 270.15 296.86 269.92 296.8C269.5 296.71 268.95 297.34 268.67 297.82C268.13 298.74 268.35 299.55 268.59 300.48C268.79 301.21 269 302.02 268.89 303.01C267.25 306.06 265.43 308.99 263.44 311.81C263.06 312.58 262.91 313.01 262.73 313.53C262.53 314.08 262.31 314.74 261.73 315.99C261.32 316.89 261.1 317.29 260.86 317.72C260.63 318.15 260.39 318.6 259.92 319.59C259.47 320.55 259.19 321.24 258.97 321.75C258.55 322.77 258.41 323.1 257.88 323.42C256.45 324.3 254.55 323.67 253.82 323.43L253.79 323.42C253.27 323.25 252.26 322.9 251.52 321.96C251.28 321.68 250.95 321.25 250.84 320.62C250.78 320.26 250.83 320.05 250.9 319.73C250.95 319.49 251.02 319.18 251.06 318.7C251.1 318.35 251.09 318.02 251.07 317.45C251.06 317.35 251.06 317.24 251.06 317.12C251.03 316.31 251 315.9 250.98 315.62L250.98 315.62C250.96 315.42 250.95 315.28 250.95 315.1C252.52 312.92 253.49 310.51 253.79 307.88C253.88 307.04 253.85 306.59 253.81 306.07C253.78 305.59 253.74 305.04 253.79 304.06C253.88 302.23 253.95 301.27 254.58 300.23C254.87 299.75 255.48 298.75 256.62 298.32C257.16 298.11 257.62 298.12 258.08 298.12C258.63 298.12 259.19 298.12 259.9 297.75C260.09 297.64 260.4 297.38 261.03 296.84L261.25 296.65C262.55 295.54 263.24 294.95 263.99 294.13C264.84 293.19 265.26 292.73 265.69 291.97C265.79 291.8 265.87 291.66 265.94 291.52C266.09 291.23 266.21 290.98 266.48 290.63C266.8 290.21 267.02 290.04 267.23 289.88C267.43 289.73 267.61 289.59 267.84 289.28C268.17 288.83 268.26 288.5 268.35 288.18ZM177.25 123.76C177.23 123.94 177.09 124.15 176.9 124.24C176.55 124.37 176.04 124.11 175.98 123.7C175.94 123.35 176.22 122.96 176.55 122.94C176.94 122.89 177.27 123.37 177.25 123.76ZM177.05 125.7C176.88 125.59 176.83 125.33 176.92 125.15C177.05 124.91 177.47 124.89 177.62 125.09C177.73 125.22 177.71 125.44 177.6 125.57C177.49 125.7 177.25 125.81 177.05 125.7ZM182.61 124.55C183.5 124.94 183.94 125.33 184.23 125.78C184.42 126.13 184.53 126.54 184.45 126.61C184.4 126.64 184.33 126.58 184.24 126.5C184.09 126.37 183.87 126.19 183.57 126.15C183.16 126.09 182.56 126.28 182.43 126.65C182.35 126.87 182.47 127.07 182.7 127.44C182.89 127.73 183.14 128.14 183.42 128.76C183.57 129.11 183.64 129.33 183.55 129.54C183.4 129.87 182.83 130.11 182.41 129.96C182.05 129.81 181.95 129.41 181.85 128.99C181.73 128.53 181.61 128.04 181.14 127.81C180.98 127.72 180.87 127.71 180.72 127.7C180.56 127.68 180.35 127.66 179.98 127.52L179.93 127.5C179.51 127.34 179.13 127.18 179.02 126.85C178.94 126.64 179.03 126.49 179.11 126.32C179.2 126.14 179.29 125.96 179.24 125.7C179.19 125.46 179.05 125.32 178.93 125.19C178.8 125.06 178.69 124.95 178.69 124.76C178.69 124.37 179.19 124.07 179.33 123.99L179.35 123.98C180.27 123.48 181.43 123.98 182.61 124.55ZM363.13 227.07L363.13 227.07L363.13 227.07C363.33 227.61 363.6 228.32 364 229.2C364.45 230.22 364.81 230.9 365.09 231.42C365.55 232.27 365.78 232.69 365.75 233.48C365.75 233.59 365.66 235.31 364.33 236.46C363.48 237.18 362.1 237.72 361.55 237.24C361.33 237.04 361.33 236.75 361.33 236.38L361.33 236.29C361.31 235.24 361.13 234.69 360.97 234.18C360.81 233.71 360.67 233.26 360.65 232.46C360.63 232.04 360.84 231.19 361.24 229.54L361.33 229.14C362.06 226.14 362.19 225.83 362.4 225.81C362.65 225.8 362.81 226.22 363.13 227.07ZM398.91 240.16C399.2 240.21 399.45 240.24 399.79 240.48C400.2 240.75 400.44 241.11 400.57 241.31C400.61 241.36 400.64 241.41 400.67 241.44C400.89 241.92 400.84 242.25 400.79 242.62C400.75 242.89 400.71 243.19 400.77 243.59C400.88 244.31 401.23 244.69 401.6 245.1C401.98 245.54 402.4 246 402.59 246.91C402.63 247.11 402.64 247.23 402.65 247.36C402.66 247.54 402.68 247.75 402.76 248.22C402.96 249.3 403.07 249.85 403.4 250.3C403.6 250.57 403.79 250.71 403.97 250.83C404.17 250.97 404.36 251.1 404.54 251.43C404.69 251.73 404.71 251.98 404.74 252.33L404.74 252.33L404.74 252.4L404.75 252.47C404.75 252.5 404.75 252.52 404.75 252.55L404.76 252.61L404.77 252.78C404.87 254.19 404.92 254.91 405.21 255.54C405.48 256.1 405.81 256.35 406.08 256.56C406.35 256.76 406.55 256.92 406.57 257.28C406.59 257.68 406.35 257.92 406.04 258.23C405.72 258.55 405.31 258.95 405.04 259.71C404.91 260.06 404.6 260.88 404.98 261.58C405.11 261.83 405.26 261.92 405.41 262.02C405.55 262.11 405.69 262.21 405.83 262.43C406.26 263.12 406.02 264.04 405.72 265.19C405.61 265.59 405.51 265.91 405.42 266.16C405.26 266.65 405.18 266.9 405.32 267.06C405.49 267.24 405.82 267.14 406.16 267.03C406.51 266.93 406.87 266.82 407.07 266.99C407.43 267.3 407.07 268.2 406.48 269.68C406.31 270.09 406.13 270.55 405.94 271.06C405.58 272.01 405.32 272.77 405.11 273.4C404.6 274.95 404.35 275.7 403.44 276.53C403.31 276.66 401.89 277.97 401.13 277.55C400.89 277.43 400.84 277.21 400.72 276.71C400.65 276.41 400.55 276.01 400.38 275.47C400.16 274.74 399.98 274.39 399.86 274.14C399.73 273.88 399.66 273.73 399.64 273.38C399.59 272.74 399.78 272.38 399.98 271.98C400.17 271.63 400.36 271.25 400.43 270.62C400.49 269.98 400.36 269.62 400.2 269.19C400.08 268.84 399.93 268.44 399.86 267.8C399.77 267.1 399.85 266.74 399.98 266.13C400.06 265.74 400.16 265.26 400.25 264.54L400.25 264.52C400.45 263.09 400.69 261.36 400.31 259.41C400.13 258.44 399.9 257.95 399.72 257.56C399.51 257.12 399.36 256.81 399.4 256.08C399.43 255.47 399.57 255.01 399.71 254.57C399.9 253.93 400.08 253.37 399.86 252.54C399.73 252.03 399.47 251.55 399.22 251.09L399.18 251.02C398.92 250.54 398.72 250.26 398.56 250.03C398.35 249.72 398.21 249.52 398.11 249.11C397.98 248.59 398 248.09 398.04 247.41C398.05 247.2 398.07 247.03 398.08 246.89C398.12 246.54 398.13 246.36 398.04 246.11C397.88 245.73 397.58 245.55 397.26 245.37C397.14 245.3 397.02 245.23 396.9 245.15C395.12 243.96 395.45 240.81 395.48 240.5L395.48 240.48L395.49 240.42C395.56 239.95 395.72 238.87 396.23 238.74C396.45 238.69 396.63 238.86 396.87 239.1C397.15 239.38 397.51 239.74 398.15 239.98C398.46 240.1 398.69 240.13 398.91 240.16ZM397.87 254.5C397.93 254.76 397.86 254.96 397.81 255.1L397.8 255.13C397.56 255.78 396.81 256.3 396.38 256.15C395.74 255.91 395.59 254.02 396.27 253.67C396.73 253.41 397.69 253.84 397.87 254.5ZM397.87 262.78C397.92 263.03 398 263.46 397.76 263.64C397.56 263.8 397.21 263.71 397.01 263.54C396.53 263.06 396.95 261.8 397.3 261.78C397.54 261.75 397.78 262.36 397.87 262.73L397.87 262.78ZM398.02 259.54C397.8 259.8 396.93 259.69 396.77 259.19C396.66 258.78 397.08 258.28 397.41 258.28C397.87 258.28 398.28 259.23 398.02 259.54ZM395.02 249.11C394.96 248.69 395.11 248.15 395.37 248.09C395.7 248 396.09 248.61 396.23 248.82C396.53 249.3 396.86 250.15 396.62 250.35C396.31 250.56 395.18 249.98 395.02 249.11ZM398.32 269.51C398.28 270.08 397.95 270.73 397.76 270.69C397.41 270.6 397.41 268.04 397.76 267.97C397.95 267.95 398.39 268.71 398.32 269.51ZM400.64 281.05C400.58 280.47 401.15 279.66 401.82 279.6C402.57 279.51 403.16 280.29 403.44 280.7C403.67 281.02 403.79 281.29 403.88 281.5C403.98 281.75 404.05 281.91 404.23 281.94C404.46 281.99 404.61 281.78 404.82 281.51C405.02 281.25 405.26 280.94 405.65 280.7C406.86 279.99 408.89 280.44 409.22 281.33C409.33 281.64 409.22 281.94 409.15 282.12C408.91 282.76 408.35 283.06 407.86 283.32C407.42 283.55 407.04 283.75 406.99 284.14C406.94 284.51 407.23 284.86 407.56 285.2C408 285.68 408.45 285.86 408.81 286C409.16 286.14 409.43 286.24 409.55 286.55C409.74 287.05 409.39 287.81 408.87 288.01C408.63 288.09 408.3 288.09 408.08 287.9C407.95 287.78 407.94 287.66 407.92 287.53C407.9 287.41 407.89 287.29 407.8 287.16C407.65 286.95 407.42 286.91 407.09 286.87C406.85 286.83 406.56 286.79 406.2 286.66L406.18 286.65C405.86 286.52 405.47 286.37 405.13 286.03C404.8 285.69 404.69 285.32 404.6 285.01C404.51 284.72 404.45 284.48 404.21 284.4C404.05 284.34 403.93 284.39 403.76 284.46C403.64 284.52 403.49 284.58 403.29 284.62C402.39 284.77 401.21 284.23 400.97 283.49C400.89 283.22 400.95 283.02 401.01 282.8C401.08 282.56 401.15 282.29 401.04 281.9C400.97 281.67 400.88 281.54 400.8 281.43C400.72 281.32 400.65 281.23 400.64 281.05ZM425.95 239.35C425.81 239.76 425.68 239.98 425.51 240.29L425.51 240.29L425.51 240.29L425.51 240.29L425.51 240.29C425.4 240.49 425.27 240.71 425.1 241.04C424.07 243.09 423.75 244.87 423.57 245.85C423.17 247.98 423.31 249.62 423.42 250.94C423.56 252.54 423.65 253.67 422.72 254.65C422.47 254.91 422.28 255.01 422.1 255.12C421.88 255.24 421.68 255.36 421.4 255.71C420.76 256.55 420.73 257.37 420.7 258.31C420.68 258.93 420.65 259.61 420.44 260.39C420.19 261.28 419.89 261.61 419.52 262.01C419.18 262.38 418.76 262.83 418.28 263.88C417.67 265.19 417.52 266.17 417.39 267.02C417.24 268.03 417.12 268.85 416.29 269.8C415.63 270.53 414.51 271.4 413.79 271.1C413.4 270.95 413.2 270.32 412.83 269.08C412.65 268.51 412.44 267.77 412.33 267.06C412.12 265.71 412.38 264.62 412.71 263.23C412.8 262.82 412.91 262.4 413 261.93C413.33 260.41 413.38 259.59 413.43 258.81C413.49 257.98 413.54 257.18 413.92 255.6C414.38 253.76 415.06 251.76 415.52 251.82C415.71 251.84 415.79 252.25 415.88 252.67C415.97 253.12 416.07 253.59 416.31 253.63C416.61 253.67 417.01 252.95 417.84 250.87C418.47 249.28 418.85 248.2 419.11 247.43C419.57 246.11 419.71 245.72 420.29 245.28C420.36 245.23 420.44 245.17 420.52 245.11C420.97 244.8 421.54 244.39 421.71 243.7C421.76 243.46 421.74 243.31 421.72 243.14C421.71 243.01 421.69 242.87 421.71 242.68C421.79 242.02 422.17 241.66 422.63 241.22C422.82 241.03 423.04 240.83 423.24 240.59C423.5 240.28 423.55 240.13 423.89 239.08L423.89 239.08C424.05 238.6 424.27 237.94 424.6 236.98C425.47 234.42 425.58 234.33 425.67 234.33C426.13 234.35 426.81 236.94 425.95 239.35ZM228.22 30.95C228.99 30.61 229.66 30.83 230.55 31.12C231.1 31.29 231.73 31.5 232.53 31.62C233.11 31.72 234.05 31.65 235.81 31.51L235.81 31.51C236.04 31.49 236.29 31.47 236.55 31.45C237.66 31.36 238.45 31.27 239.09 31.19C240.26 31.06 240.88 30.99 241.94 31.1C243.36 31.25 245.13 31.69 245.11 32.06C245.09 32.43 243.36 32.67 242.15 32.73C240.85 32.79 240.07 32.63 239.27 32.46C238.6 32.33 237.93 32.19 236.93 32.17C236.02 32.15 235.62 32.25 235.07 32.38C234.54 32.51 233.88 32.67 232.51 32.8C231.15 32.93 227.28 33.27 226.99 32.34C226.86 31.91 227.52 31.23 228.22 30.95ZM125.82 85.17C125.51 84.99 125.64 84.19 125.82 83.71C126.15 82.8 127.02 81.84 128.14 81.56C128.31 81.51 128.46 81.49 128.59 81.47C128.81 81.44 128.97 81.42 129.06 81.28C129.18 81.06 128.99 80.79 128.79 80.5C128.57 80.2 128.34 79.87 128.42 79.54C128.53 79.13 129.17 78.89 130.46 78.41C130.87 78.26 131.18 78.16 131.43 78.08L131.44 78.08L131.44 78.08C131.84 77.96 132.14 77.87 132.62 77.63C132.91 77.48 133.21 77.28 133.8 76.89C134.21 76.62 134.54 76.4 134.81 76.22L134.81 76.22C135.7 75.61 135.98 75.43 136.3 75.54C136.69 75.67 137.04 76.22 136.98 76.67C136.92 77.1 136.55 77.28 136.09 77.5C135.6 77.73 135.01 78.01 134.59 78.69C134.43 78.95 134.37 79.16 134.29 79.39C134.2 79.7 134.09 80.04 133.74 80.56C133.65 80.69 133.37 81.1 132.95 81.52C132.71 81.76 132.03 82.41 130.39 83.1C129.64 83.43 129.26 83.52 128.94 83.6C128.61 83.68 128.35 83.74 127.83 84.02C127.3 84.3 126.91 84.59 126.61 84.82C126.23 85.1 126 85.28 125.82 85.17ZM136.84 56.71C137.02 56.51 137.26 56.23 137.39 55.74C137.48 55.44 137.47 55.26 137.46 55.05C137.45 54.88 137.44 54.7 137.48 54.44C137.63 53.74 138.03 53.27 138.22 53.03C138.9 52.2 140.13 51.4 140.61 51.72C140.85 51.89 140.81 52.29 140.76 52.68C140.72 53.05 140.68 53.4 140.89 53.53C141.09 53.64 141.32 53.47 141.71 53.2C142.05 52.96 142.51 52.63 143.17 52.35C144.22 51.92 145.11 51.88 145.73 51.85L145.74 51.85C146.78 51.81 147.78 51.77 148.11 52.31C148.49 52.94 147.72 54 147.46 54.36L147.43 54.4C145.81 56.59 142.97 57.09 141.2 57.37C138.92 57.74 136.78 57.63 136.65 57.09C136.62 56.97 136.71 56.86 136.84 56.71ZM357.98 347.83C352.03 350.31 347.83 351.44 347.61 350.98C347.51 350.78 348.21 350.35 349.47 349.59C351.85 348.15 356.23 345.5 361 340.83C365.59 336.33 370.1 330.42 370.75 329.55C371.81 328.16 372.58 327.09 373.22 326.2C374.61 324.25 375.37 323.19 377.12 321.67C378.79 320.21 379.96 319.58 381.54 318.71C382.77 318.04 384.25 317.24 386.42 315.8C388.06 314.71 391.43 312.47 394.6 309.48C394.99 309.11 395.37 308.74 395.74 308.37C385.11 323.23 372.37 336.53 357.98 347.83ZM430.5 212.85C430.61 213.24 430.96 214.49 431.33 214.49C431.69 214.47 431.9 213.47 432.14 212.1C431.86 218.38 431.27 224.55 430.37 230.66C429.54 232.61 428.49 234.85 428.27 234.76C428.21 234.72 428.23 234.5 428.27 234.13C428.39 232.89 428.32 232.16 428.27 231.54C428.22 231 428.18 230.54 428.27 229.9C428.38 229.06 428.61 228.74 428.85 228.41C429.08 228.1 429.31 227.78 429.45 226.96C429.6 226.12 429.51 225.55 429.39 224.84C429.29 224.19 429.16 223.43 429.17 222.23C429.17 221.98 429.21 221.57 429.27 220.85C429.3 220.62 429.32 220.37 429.35 220.07C429.47 218.72 429.58 217.69 429.66 216.88C429.9 214.6 429.95 214.09 429.74 213.14C429.58 212.45 429.42 212.11 429.25 211.77C429.06 211.38 428.86 210.98 428.67 210.03C428.42 208.88 428.42 208.11 428.44 206.21L428.45 205.93C428.46 204.41 428.45 204.12 428.44 203.81C428.43 203.42 428.42 203.02 428.45 200.02C428.45 199.09 428.46 198.38 428.46 197.83C428.48 196.29 428.48 195.89 428.45 195.06C428.41 194.21 428.37 193.56 428.34 193.09C428.29 192.4 428.27 192.1 428.34 192.09C428.58 192.04 430.15 195.19 430.04 199.02C430 200.34 429.77 201.41 429.57 202.37C429.25 203.82 429 204.98 429.58 206.3C429.62 206.38 429.66 206.47 429.71 206.57C429.94 207.06 430.27 207.75 430.33 208.73C430.35 209.07 430.33 209.3 430.3 209.56C430.27 209.88 430.24 210.25 430.26 210.93C430.29 212.06 430.44 212.62 430.48 212.79C430.49 212.81 430.49 212.83 430.5 212.85Z" />
	<path id="Layer" class="shp4" d="M365.07 42.5C391.22 75.08 406.86 116.36 406.86 161.28C406.86 266.61 320.91 352 214.88 352C169.66 352 128.12 336.48 95.3 310.49C130.48 354.32 184.69 382.42 245.5 382.42C351.53 382.42 437.48 297.04 437.48 191.71C437.48 131.29 409.2 77.42 365.07 42.5Z" />
	<g id="Layer">
		<path id="Layer" class="shp1" d="M93.36 356.47C93.36 354.26 95.15 352.47 97.36 352.47L121.89 352.47C124.1 352.47 125.89 354.26 125.89 356.47L125.89 381C125.89 383.21 124.1 385 121.89 385L97.36 385C95.15 385 93.36 383.21 93.36 381L93.36 356.47Z" />
	</g>
	<path id="Layer" class="shp5" d="M124 337C124 334.79 125.79 333 128 333L140 333C142.21 333 144 334.79 144 337L144 349C144 351.21 142.21 353 140 353L128 353C125.79 353 124 351.21 124 349L124 337Z" />
	<g id="Clip-Path" clip-path="url(#cp1)">
		<g id="Layer">
		</g>
	</g>
	<path id="Layer" class="shp6" d="M400 100.91C400 99.53 401.12 98.41 402.5 98.41L402.5 98.41C403.88 98.41 405 99.53 405 100.91L405 100.91C405 102.29 403.88 103.41 402.5 103.41L402.5 103.41C401.12 103.41 400 102.29 400 100.91L400 100.91Z" />
	<path id="Layer" class="shp6" d="M400 113.91C400 112.53 401.12 111.41 402.5 111.41L402.5 111.41C403.88 111.41 405 112.53 405 113.91L405 113.91C405 115.29 403.88 116.41 402.5 116.41L402.5 116.41C401.12 116.41 400 115.29 400 113.91L400 113.91Z" />
	<path id="Layer" class="shp6" d="M400 126.91C400 125.53 401.12 124.41 402.5 124.41L402.5 124.41C403.88 124.41 405 125.53 405 126.91L405 126.91C405 128.29 403.88 129.41 402.5 129.41L402.5 129.41C401.12 129.41 400 128.29 400 126.91L400 126.91Z" />
	<path id="Layer" class="shp6" d="M400 139.91C400 138.53 401.12 137.41 402.5 137.41L402.5 137.41C403.88 137.41 405 138.53 405 139.91L405 139.91C405 141.29 403.88 142.41 402.5 142.41L402.5 142.41C401.12 142.41 400 141.29 400 139.91L400 139.91Z" />
	<path id="Layer" class="shp6" d="M427 100.91C427 99.53 428.12 98.41 429.5 98.41L429.5 98.41C430.88 98.41 432 99.53 432 100.91L432 100.91C432 102.29 430.88 103.41 429.5 103.41L429.5 103.41C428.12 103.41 427 102.29 427 100.91L427 100.91Z" />
	<path id="Layer" class="shp6" d="M427 113.91C427 112.53 428.12 111.41 429.5 111.41L429.5 111.41C430.88 111.41 432 112.53 432 113.91L432 113.91C432 115.29 430.88 116.41 429.5 116.41L429.5 116.41C428.12 116.41 427 115.29 427 113.91L427 113.91Z" />
	<path id="Layer" class="shp6" d="M427 126.91C427 125.53 428.12 124.41 429.5 124.41L429.5 124.41C430.88 124.41 432 125.53 432 126.91L432 126.91C432 128.29 430.88 129.41 429.5 129.41L429.5 129.41C428.12 129.41 427 128.29 427 126.91L427 126.91Z" />
	<path id="Layer" class="shp6" d="M427 139.91C427 138.53 428.12 137.41 429.5 137.41L429.5 137.41C430.88 137.41 432 138.53 432 139.91L432 139.91C432 141.29 430.88 142.41 429.5 142.41L429.5 142.41C428.12 142.41 427 141.29 427 139.91L427 139.91Z" />
	<path id="Layer" class="shp6" d="M413 100.91C413 99.53 414.12 98.41 415.5 98.41L415.5 98.41C416.88 98.41 418 99.53 418 100.91L418 100.91C418 102.29 416.88 103.41 415.5 103.41L415.5 103.41C414.12 103.41 413 102.29 413 100.91L413 100.91Z" />
	<path id="Layer" class="shp6" d="M413 113.91C413 112.53 414.12 111.41 415.5 111.41L415.5 111.41C416.88 111.41 418 112.53 418 113.91L418 113.91C418 115.29 416.88 116.41 415.5 116.41L415.5 116.41C414.12 116.41 413 115.29 413 113.91L413 113.91Z" />
	<path id="Layer" class="shp6" d="M413 126.91C413 125.53 414.12 124.41 415.5 124.41L415.5 124.41C416.88 124.41 418 125.53 418 126.91L418 126.91C418 128.29 416.88 129.41 415.5 129.41L415.5 129.41C414.12 129.41 413 128.29 413 126.91L413 126.91Z" />
	<path id="Layer" class="shp6" d="M413 139.91C413 138.53 414.12 137.41 415.5 137.41L415.5 137.41C416.88 137.41 418 138.53 418 139.91L418 139.91C418 141.29 416.88 142.41 415.5 142.41L415.5 142.41C414.12 142.41 413 141.29 413 139.91L413 139.91Z" />
	<g id="Clip-Path" clip-path="url(#cp2)">
		<g id="Layer">
		</g>
	</g>
	<g id="Clip-Path" clip-path="url(#cp3)">
		<g id="Layer">
		</g>
	</g>
	<g id="Clip-Path" clip-path="url(#cp4)">
		<g id="Layer">
		</g>
	</g>
	<g id="Clip-Path" clip-path="url(#cp5)">
		<g id="Layer">
		</g>
	</g>
	<path id="Layer" class="shp7" d="M309 7.41C309 5.75 310.34 4.41 312 4.41L338 4.41C339.66 4.41 341 5.75 341 7.41L341 33.41C341 35.07 339.66 36.41 338 36.41L312 36.41C310.34 36.41 309 35.07 309 33.41L309 7.41Z" />
</svg>