<svg version="1.2" baseProfile="tiny-ps" xmlns="http://www.w3.org/2000/svg" viewBox="0 0 550 489" width="550" height="489">
	<title>Group 2298-with circles-svg</title>
	<defs>
		<clipPath clipPathUnits="userSpaceOnUse" id="cp1">
			<path d="M172.8 140.28C150.41 140.28 132.31 122.18 132.31 99.78C132.31 77.39 150.41 59.29 172.8 59.29C195.2 59.29 213.3 77.39 213.3 99.78C213.3 122.18 195.2 140.28 172.8 140.28Z" />
		</clipPath>
		<clipPath clipPathUnits="userSpaceOnUse" id="cp2">
			<path d="M305.77 282.57C274.21 282.57 248.7 257.06 248.7 225.5C248.7 193.94 274.21 168.43 305.77 168.43C337.33 168.43 362.84 193.94 362.84 225.5C362.84 257.06 337.33 282.57 305.77 282.57Z" />
		</clipPath>
		<clipPath clipPathUnits="userSpaceOnUse" id="cp3">
			<path d="M418.19 126.06C397.64 126.06 381.04 109.45 381.04 88.9C381.04 68.36 397.64 51.75 418.19 51.75C438.74 51.75 455.34 68.36 455.34 88.9C455.34 109.45 438.74 126.06 418.19 126.06Z" />
		</clipPath>
		<clipPath clipPathUnits="userSpaceOnUse" id="cp4">
			<path d="M126.63 333.62C101.73 333.62 81.61 313.49 81.61 288.59C81.61 263.69 101.73 243.57 126.63 243.57C151.53 243.57 171.65 263.69 171.65 288.59C171.65 313.49 151.53 333.62 126.63 333.62Z" />
		</clipPath>
		<clipPath clipPathUnits="userSpaceOnUse" id="cp5">
			<path d="M349.49 483.71C327.8 483.71 310.27 466.18 310.27 444.49C310.27 422.8 327.8 405.27 349.49 405.27C371.18 405.27 388.71 422.8 388.71 444.49C388.71 466.18 371.18 483.71 349.49 483.71Z" />
		</clipPath>
		<clipPath clipPathUnits="userSpaceOnUse" id="cp6">
			<path d="M483.58 339.38C508.52 339.38 528.68 319.22 528.68 294.28C528.68 269.34 508.52 249.18 483.58 249.18C458.64 249.18 438.48 269.34 438.48 294.28C438.48 319.22 458.64 339.38 483.58 339.38Z" />
		</clipPath>
	</defs>
	<style>
		tspan { white-space:pre }
		.shp0 { opacity: 0.502;fill: #e9edfb } 
		.shp1 { mix-blend-mode: darken;fill: #e9edfb } 
		.shp2 { opacity: 0.4;mix-blend-mode: darken;fill: #e9edfb } 
		.shp3 { opacity: 0.502;mix-blend-mode: darken;fill: #e9edfb } 
		.shp4 { fill: #ccdaf5 } 
		.shp5 { opacity: 0.851;fill: #7aa4e4 } 
		.shp6 { opacity: 0.039;fill: #0e1e3e } 
		.shp7 { fill: #39c677 } 
		.shp8 { fill: #2346c1 } 
		.shp9 { fill: #ffbb0b } 
	</style>
	<path id="Layer" class="shp0" d="M104.51 4.77C104.51 2.56 106.3 0.77 108.51 0.77L252.81 0.77C255.02 0.77 256.81 2.56 256.81 4.77L256.81 149.08C256.81 151.29 255.02 153.08 252.81 153.08L108.51 153.08C106.3 153.08 104.51 151.29 104.51 149.08L104.51 4.77Z" />
	<g id="Layer">
		<path id="Layer" class="shp1" d="M21.1 155.87C21.1 153.66 22.89 151.87 25.1 151.87L100.51 151.87C102.72 151.87 104.51 153.66 104.51 155.87L104.51 231.28C104.51 233.49 102.72 235.28 100.51 235.28L25.1 235.28C22.89 235.28 21.1 233.49 21.1 231.28L21.1 155.87Z" />
	</g>
	<g id="Layer">
		<path id="Layer" class="shp2" d="M520 397.75C520 395.55 521.79 393.75 524 393.75L546 393.75C548.21 393.75 550 395.55 550 397.75L550 419.75C550 421.96 548.21 423.75 546 423.75L524 423.75C521.79 423.75 520 421.96 520 419.75L520 397.75Z" />
	</g>
	<g id="Layer">
		<path id="Layer" class="shp2" d="M429 306.75C429 304.55 430.79 302.75 433 302.75L516 302.75C518.21 302.75 520 304.55 520 306.75L520 389.75C520 391.96 518.21 393.75 516 393.75L433 393.75C430.79 393.75 429 391.96 429 389.75L429 306.75Z" />
	</g>
	<g id="Layer">
		<path id="Layer" class="shp3" d="M0 133.75C0 131.55 1.79 129.75 4 129.75L18 129.75C20.21 129.75 22 131.55 22 133.75L22 147.75C22 149.96 20.21 151.75 18 151.75L4 151.75C1.79 151.75 0 149.96 0 147.75L0 133.75Z" />
	</g>
	<path id="Layer" class="shp4" d="M278.3 462.59C406.04 462.59 508.91 359.03 508.06 231.29C507.21 103.55 402.97 0 275.23 0C147.48 0 44.61 103.55 45.46 231.29C46.31 359.03 150.55 462.59 278.3 462.59Z" />
	<path id="Layer" fill-rule="evenodd" class="shp5" d="M497.48 186.11C497.35 188.43 498.07 192.23 498.07 192.23C498.07 192.23 500.02 194.7 498.09 196.91C497.43 197.65 496.76 198.07 496.16 198.46C495 199.2 494.08 199.78 493.94 202.22C493.94 202.28 493.93 202.34 493.93 202.41C494.01 202.23 494.11 202.13 494.2 202.12C494.82 202.07 495.59 206.23 495.82 207.44C495.84 207.57 495.86 207.66 495.87 207.72C496.19 209.77 496.77 214.31 496.13 214.47C495.56 214.6 494.04 211.41 493.62 207.95C493.41 209.76 493.01 210.69 492.09 208.97C491.43 203.32 490.03 202.64 487.86 206.92C486.54 210.54 486.22 214.25 486.85 218.03C487.62 219.45 490.21 224.83 491.45 229.19C492.07 231.39 492.4 232.3 492.64 232.95C492.88 233.59 493.02 233.97 493.23 235.05C493.99 238.41 494.13 241.75 493.65 245.14C493.25 246.85 489.79 256.07 488.57 257.75C487.38 261.37 486.3 261.95 485.27 259.45L486.03 257.06C485.98 255.09 485.29 253.31 483.97 251.76C483.76 249.89 483.42 248.47 483.42 248.47C483.42 248.47 482.68 246.22 482.25 245.4C482.02 244.96 481.35 244.83 480.69 244.71C480.15 244.62 479.62 244.52 479.37 244.25C479.11 242.93 478.76 241.65 478.34 240.36C477.86 241.09 477.25 242.62 477.18 244.04C477.14 244.59 477.34 244.39 477.51 244.22C477.77 243.96 477.97 243.76 477.1 246.69C475.67 250.16 474.93 253.78 474.9 257.51C475.05 258.12 475.12 258.59 475.18 258.93C475.31 259.7 475.32 259.82 475.8 259.35C478.15 258.69 478.5 260.3 476.83 264.18C476.33 267.96 477.68 269.49 479.03 271.03C480.66 272.88 482.31 274.75 480.75 280.57C480.98 279.75 479.87 295.83 477.76 291.92C475.75 288.93 475.25 285.7 476.22 282.2C475.62 278.34 475.4 274.45 475.62 270.54C474.16 264.26 474.39 258.56 474.63 252.78C474.83 247.85 475.03 242.87 474.19 237.42C473.47 232.71 472.6 229.48 471.78 227.3C470.96 225.12 469.38 221.92 469.11 223.84C468.93 225.16 468.81 225.3 468.33 225.86C468.12 226.11 467.85 226.43 467.47 226.96C466.72 228.04 466.35 228.98 466.11 229.57C465.95 229.97 465.86 230.21 465.75 230.25C465.58 230.28 465.05 229.91 464.56 229.58C464.31 229.4 464.07 229.23 463.9 229.14C463.77 229.07 463.65 229.08 463.53 229.08C463.2 229.1 462.94 229.11 463 227.51C463.06 225.33 463.13 221.39 463.13 221.39C463.61 216.3 462.71 214.64 460.46 216.43C459.78 217.32 459.35 217.19 459.7 215.27C460.04 213.35 460.04 212.41 460.04 212.41L458.8 210.91L457.5 209.34C455.63 208.6 454.88 207.37 455.31 205.63C455.31 205.63 453.72 207.86 453.8 205.34C453.85 202.82 452.69 200.35 452.69 200.35L451.26 198.88C451.26 198.88 449.41 200.53 449.68 201.3C449.97 202.06 450.23 204.11 450.23 204.11L449.2 206.44L446.93 206.44L446.32 205.19L446.05 204.21L444.41 203.79C444.41 203.79 443.51 201.06 443.04 202.64C442.98 202.83 442.93 203 442.88 203.15C442.74 203.63 442.67 203.85 442.59 204.06C442.52 204.24 442.44 204.41 442.29 204.71L442.28 204.73C442.24 204.82 442.19 204.92 442.14 205.03C441.37 206.44 441.03 208 441.19 209.65C441.19 209.65 439.63 211.96 439.2 212.17C438.28 211.99 437.54 212.22 436.93 212.85C435.63 214.69 434.23 216.43 432.75 218.11C432.06 219.4 431.03 222.39 431.03 222.39C431.03 222.39 429.66 223.7 429.52 224.99C429.1 226.88 428.1 227.64 426.51 227.3C425.95 228.85 424.95 230.01 423.5 230.77C423.48 231.39 423.59 231.96 423.72 232.62C423.95 233.77 424.22 235.18 423.92 237.52C423.44 241.2 423.65 244.14 423.65 244.14L423.05 247.42C423.05 247.42 422.23 247.56 422.44 250.16C422.62 252.76 422.7 253.44 422.7 253.44C422.7 253.44 424.37 253.05 422.44 254.54C420.69 255.94 420.48 256.5 420.19 257.28C420.17 257.34 420.14 257.41 420.11 257.49C419.77 258.38 419.77 259.88 419.77 259.88C419.77 259.88 418.23 259.67 416.81 261.63C402.47 261.11 397.03 249.5 400.49 226.8C400.4 226.57 395.64 212.09 394.31 204.71C394.42 205.8 394.23 206.66 392.88 206.89C384.94 208.26 381.82 202.82 385.87 199.25C385.94 199.18 386.02 199.11 386.1 199.05C386.65 198.58 387.09 198.2 385.05 198.43C382.72 198.7 380.53 197.62 379.84 196.86C379.15 196.12 378.94 194.55 378.94 194.55C378.94 194.55 376.82 196.81 375.58 193.94C374.71 190.68 372.73 188.43 369.68 187.19C368.23 186.19 365.98 186.54 363.8 186.87C362.89 187.01 361.99 187.15 361.17 187.19C358.39 189.48 355.91 189.79 353.69 188.14C353.69 188.14 352.73 190.37 350.88 188.74C350.57 188.48 350.51 188.32 350.57 188.22C349.88 188.14 348.82 187.95 347.23 187.66C340.94 187.56 335.6 185.38 331.18 181.12C327.14 182.65 323.38 182.31 319.94 180.1C319.94 180.1 320.37 178.73 316.59 177.5C312.96 174.56 309.82 171.22 307.2 167.41C305.47 167.7 304.4 166.85 303.74 166.33C303.19 165.9 302.93 165.69 302.81 166.52C301.51 169.17 299.4 169.91 296.44 168.7C296.03 169.03 295.36 169.19 294.76 169.33C293.53 169.62 292.64 169.83 295.19 171.35C298.95 173.61 301.01 174.42 301.01 174.42L304.63 176.34C304.63 176.34 303.68 177.63 306.7 180.15L309.71 182.67L309.92 186.27C309.92 186.27 314.47 188.58 315.42 190.63C315.7 191.24 315.87 191.78 316 192.25C316.33 193.36 316.52 194.01 317.88 193.91C318.7 193.86 319.22 193.63 319.7 193.41C320.36 193.12 320.95 192.86 322.14 193.1C325.26 193.81 327.22 192.68 328.04 189.69C328.21 189.43 328.36 189.21 328.49 189C329.22 187.89 329.51 187.45 330.79 186.4C331.4 185.9 331.83 185 332.16 184.3C332.64 183.28 332.92 182.71 333.25 184.49C333.34 184.98 333.41 185.39 333.47 185.75C333.79 187.52 333.83 187.75 334.62 189.11C334.99 189.75 334.85 190.04 334.74 190.26C334.57 190.6 334.49 190.76 336.68 191.84C340.25 193.63 343 195.39 343 195.39C343 195.39 346.7 196.88 347.52 197.99C347.39 202.11 346.49 206.08 344.77 209.83C344.37 209.66 344.01 209.5 343.71 209.35C342.05 208.58 341.8 208.47 342.16 211.46C342.35 213.03 343.04 214.06 343.51 214.75C344.09 215.62 344.31 215.94 342.71 216.09C341.78 216.17 341.07 216.07 340.5 215.99C339.32 215.82 338.74 215.74 337.9 217.58C336.88 219.81 336.15 219.94 335.03 220.14C334.77 220.19 334.5 220.24 334.2 220.31C333.5 220.5 333.55 220.68 333.64 220.96C333.75 221.34 333.92 221.91 332.43 222.92C328.25 223.81 324.78 225.88 322.01 229.19C322.01 229.19 325.18 232.35 319.1 232.77C316.89 232.91 315.65 232.75 314.81 232.63C313.33 232.44 313.1 232.41 311.06 234.5C310.53 235.04 310.09 235.51 309.7 235.91C307.75 237.96 307.36 238.37 305.9 238.28C305.8 238.28 305.71 238.27 305.62 238.26C305.1 238.23 304.79 238.21 304.48 238.26C304 238.34 303.55 238.59 302.39 239.24C302.24 239.32 302.07 239.42 301.88 239.52C299.84 240.65 299.49 240.68 297.97 240.8C297.59 240.83 297.13 240.87 296.54 240.94C295.24 241.08 294.7 241.84 294.16 242.59C293.5 243.5 292.86 244.39 290.88 244.11C287.59 243.63 285.59 238.72 284.8 236.79C284.73 236.61 284.67 236.46 284.62 236.34C284.48 232.14 283.66 228.09 282.16 224.18C280.58 222.12 279.6 220.31 278.37 218.04C277.82 217.03 277.22 215.93 276.5 214.67C275.28 212.57 274.15 211.66 273.01 210.75C271.93 209.87 270.85 209 269.7 207.1C268.43 201.64 265.89 196.83 262.09 192.68C257.88 187.56 257.46 183.88 257.46 183.88L251.59 178.15C251.59 178.15 248.6 178.05 249.31 175.61C249.37 175.42 249.43 175.22 249.49 175L249.61 174.62C250.39 171.99 251.54 168.09 250.45 169.99C249.53 176.01 247.68 177.81 244.91 175.37C245.17 175.89 245.44 176.48 245.72 177.16C246.86 179.95 247.37 180.96 247.78 181.77C248.15 182.5 248.44 183.06 249.02 184.62C250.27 187.9 252.01 190.24 252.01 190.24C252.01 190.24 254.89 192.79 254.07 194.13C253.94 194.35 253.82 194.53 253.72 194.68C253.23 195.41 253.2 195.46 253.47 196.57C254.44 200.73 257.72 205.26 261.03 209.83C264.37 214.44 267.74 219.09 268.8 223.44C269.75 227.41 271 231.22 271 231.22L280.46 237.5C284.38 246.82 290.57 252.36 298.84 252.34C298.84 252.34 302.55 251.52 306.11 250.97C307.69 250.73 309.19 250.75 310.48 250.77C312.1 250.79 313.38 250.81 314.07 250.29C321.13 244.82 295.11 289.19 290.41 293.34C286.7 296.63 282.87 301.93 282.87 301.93C281.65 305.43 279.51 306.03 279.51 306.03C279.51 306.03 277.08 305.92 276.66 307.16C276.1 308.79 275.1 310.13 273.64 311.18C273.43 312.6 271.37 315.25 271.37 315.25L267.75 317.9L267.75 325.26C267.75 325.26 272.19 324.84 271.37 326.07C270.55 327.31 271.02 329.14 271.02 329.14C271.02 329.14 272.27 331.8 272.48 333.64C272.55 334.34 272.29 334.96 272.06 335.53C271.67 336.45 271.34 337.25 272.48 338.13C273.4 338.84 273.71 338.53 273.87 338.38C273.91 338.33 273.94 338.31 273.97 338.31C274.05 338.31 274.11 338.57 274.33 339.55C275.1 344.12 275.55 348.71 275.68 353.34C276.21 355.07 276.1 355.89 276.1 355.89L274.57 357.23L273.85 359.77L271.58 361.51L269.23 363.35C266.3 363.87 265.15 365.18 263.97 366.52C263.25 367.33 262.53 368.16 261.4 368.84C259.65 369.81 258.23 371.1 257.14 372.73C256.74 373.07 256.43 373.19 256.21 373.27C255.84 373.42 255.76 373.45 256.03 374.35C256.19 374.92 256.53 375.55 256.87 376.19C257.4 377.16 257.93 378.14 257.8 378.92C257.72 379.45 257.57 379.73 257.47 379.92C257.32 380.2 257.26 380.31 257.59 380.76C258.41 381.89 258.52 383.07 257.86 384.36C257.86 384.36 257.91 385.52 258.12 386.12C258.33 386.75 257.91 388.04 257.91 388.04L256.75 388.8L252.78 389.56L251.01 390.93C251.01 390.93 249.42 391.45 250.45 392.56C250.97 393.11 251.26 392.93 251.4 392.83C251.55 392.74 251.55 392.74 251.48 393.66C251.42 394.47 251.63 394.82 251.78 395.09C251.99 395.44 252.11 395.67 251.53 396.55C251.31 396.89 251.11 397.19 250.93 397.44C250.29 398.37 249.96 398.84 250.11 399.52C250.17 399.77 250.28 400 250.39 400.2C250.64 400.69 250.8 401.02 249.84 401.1C248.48 401.19 244.91 407.13 243.43 409.58C243.22 409.93 243.05 410.21 242.94 410.39C241.91 412.02 240.99 413.05 240.99 413.05L237.89 414.18C237.89 414.18 236.67 414.18 236.46 414.68C236.4 414.82 236.39 414.94 236.39 415.04C236.37 415.27 236.37 415.35 235.64 415.28C235.13 415.23 235.28 415.17 235.35 415.15C235.43 415.12 235.43 415.12 234.61 415.17C233.87 415.22 233.48 415.3 233.22 415.35C232.9 415.41 232.78 415.44 232.44 415.31C231.36 414.94 230.22 414.73 229.06 414.68C228.63 414.98 228.63 415.4 228.62 415.74C228.62 416.18 228.62 416.48 227.63 416.2C227 416.01 226.64 415.81 226.38 415.67C225.91 415.41 225.76 415.32 224.96 415.78C224.57 416 224.35 416.2 224.17 416.36C223.79 416.71 223.67 416.81 222.69 416.3C222.08 416.01 221.81 415.74 221.63 415.56C221.38 415.3 221.28 415.2 220.62 415.38C219.77 415.62 219.39 415.16 218.73 414.35C218.51 414.08 218.26 413.77 217.95 413.44C215.39 410.69 211.31 405.6 207.93 401.38L207.92 401.38C206.97 400.19 206.08 399.07 205.29 398.1C203.12 395.45 200.45 391.87 198.38 388.7C197.51 387.34 197.13 386.03 196.78 384.79C196.3 383.12 195.85 381.57 194.26 380.21C187.89 376.09 183.42 370.68 180.88 363.95C180.88 363.95 179.11 361.38 179.53 359.75C179.76 358.85 179.68 357.55 179.58 356.07C179.5 354.86 179.41 353.52 179.48 352.18C183.21 347.61 183.18 342.7 179.45 337.47C178.56 336.67 177.76 336.21 177.18 335.87C176.13 335.26 175.77 335.05 176.75 334C178 332.68 177.22 331.62 176.17 330.17C175.92 329.84 175.66 329.48 175.41 329.09C174.92 328.33 174.41 327.41 173.88 326.45C172.98 324.81 172.02 323.07 170.99 321.84C170.1 320.79 170.03 320.4 169.95 319.99C169.88 319.64 169.81 319.28 169.24 318.48C169.01 318.11 162.82 309.84 160.97 309.73C159.99 307.63 158.56 305.9 156.71 304.48C153.32 302.93 153.32 300.12 156.68 296.07C156.65 295.04 156.56 294.35 156.49 293.8C156.39 293.04 156.32 292.53 156.47 291.71C156.59 291.04 156.5 290.73 156.43 290.48C156.34 290.19 156.28 290 156.6 289.45C157.24 287.62 157.26 285.83 156.68 284.07C155.97 282.31 154.67 281.34 152.77 281.2C152.98 280.6 152.85 279.84 151.95 279.58C150.79 277.71 149.97 277.69 149.49 279.5C148.19 278.76 147.32 279 146.85 280.21C146.38 279.75 146.32 279.8 146.14 279.94C146.04 280.02 145.91 280.13 145.66 280.21C145.32 280.31 145.04 280.3 144.78 280.29C144.49 280.29 144.21 280.28 143.86 280.42C143.82 280.43 143.78 280.44 143.75 280.46C143.18 280.66 143.04 280.71 142.27 280C141.99 279.74 141.77 279.56 141.58 279.41C141.21 279.12 140.97 278.92 140.69 278.42C140.63 278.32 140.59 278.25 140.55 278.19C140.45 278 140.42 277.94 140.4 277.87C140.38 277.84 140.38 277.8 140.37 277.75C140.35 277.65 140.33 277.51 140.26 277.24C140.16 276.83 140.3 276.29 140.41 275.88C140.53 275.42 140.61 275.13 140.26 275.35C139.63 275.73 139.38 275.35 139.1 274.92C139.07 274.88 139.05 274.84 139.02 274.8C138.81 274.45 134.79 269.33 133.52 271.12C133.36 271.34 131.17 271.52 130.37 271.59C130.22 271.61 130.12 271.61 130.08 271.62C130.08 271.62 129.55 271.99 128.68 271.93C128.54 271.92 128.42 271.91 128.31 271.91C127.73 271.86 127.51 271.84 127.2 272.19C126.38 272.93 125.48 273.61 124.53 274.17C122.76 274.17 121.25 274.77 120.01 275.98C119.63 276.19 119.36 276.22 119.13 276.25C118.83 276.28 118.61 276.31 118.37 276.74C118.23 276.98 118.17 277.19 118.11 277.38C118.01 277.74 117.94 277.97 117.34 278.03C117 278.06 116.9 278.15 116.83 278.22C116.72 278.33 116.69 278.37 115.75 277.9C114.51 277.16 113.16 276.85 111.7 276.95C108.32 276.29 105.91 276.16 103.35 278.39C103.35 278.39 102.32 278.84 102.11 279.26C102.05 279.37 102.03 279.53 102.01 279.71C101.95 280.22 101.88 280.8 100.92 280.23C100.6 280.05 100.19 279.87 99.72 279.67C98.23 279.02 96.21 278.14 95.31 276.24C95.14 275.88 94.99 275.56 94.85 275.27C94.05 273.54 93.75 272.89 92.21 271.75C91.64 271.32 91.24 271.06 90.93 270.86C90.27 270.43 90.06 270.3 89.65 269.49C89.43 269.09 89.38 268.85 89.34 268.69C89.27 268.36 89.26 268.29 88.25 267.86C87.4 266.39 86.42 265.02 85.37 263.71C85.25 263.3 85.16 263.08 85.1 262.93C84.98 262.66 84.95 262.59 85.05 261.82C85.1 261.46 85.15 261.24 85.19 261.07C85.29 260.7 85.31 260.62 85 259.88C84.86 259.54 84.76 259.16 84.65 258.76C84.43 257.89 84.19 256.99 83.51 256.64C82.96 256.36 82.74 255.92 82.47 255.37C82.25 254.94 82.01 254.46 81.56 253.94C80.95 253.25 80.86 252.81 80.78 252.46C80.73 252.22 80.68 252.01 80.47 251.78C80.26 251.57 77.56 247.98 78.3 247.46C77.69 247.86 76.93 247.26 76.67 245.98C76.43 244.72 76.11 243.64 76.11 243.64C76.11 243.64 75.4 241.25 76.11 240.17C76.77 239.18 76.12 237.97 75.15 236.21C75.08 236.07 75 235.93 74.92 235.79C74.26 234.57 74.99 233.62 75.68 232.73C76.12 232.15 76.54 231.61 76.56 231.03C76.61 229.56 76.72 227.78 76.93 226.75C77.14 225.73 77.67 219.76 77.3 216.59C77.17 215.43 76.95 214.53 76.79 213.84C76.5 212.63 76.37 212.07 77.09 211.94C77.94 211.78 77.67 210.56 77.41 209.39C77.32 208.99 77.24 208.6 77.19 208.26C77.67 203.03 79.05 198.07 81.32 193.34C81.34 193.25 81.36 193.17 81.38 193.1C81.46 192.76 81.5 192.58 81.59 192.42C81.68 192.24 81.81 192.09 82.1 191.77C82.18 191.69 82.26 191.6 82.35 191.5C82.85 190.94 83.63 189.41 84.44 187.82C85.03 186.65 85.63 185.46 86.16 184.59C86.72 183.67 87.2 183.25 87.61 182.88C88.13 182.43 88.55 182.07 88.88 180.97C89.49 178.97 91.18 176.16 93.46 175.84C95.71 175.53 99.88 171.38 100.65 168.07C101.42 164.73 104.01 156.64 107.45 154.99C107.79 154.82 108.15 154.65 108.5 154.49C111.67 153 114.99 151.44 115.54 148.37C116.15 144.98 118.68 142.03 118.76 144.43C118.84 146.82 121.51 146.69 121.51 146.69C121.51 146.69 124.05 145.61 124.74 146.42C125.43 147.24 126.06 147.47 128.18 146.87C134.37 142.35 141.27 140.33 148.83 140.77C149.18 140.98 149.39 141.23 149.59 141.46C150.08 142.04 150.44 142.47 152.43 141.51C154.5 140.51 156.52 140.56 157.4 140.66C157.58 140.13 157.47 139.66 157.38 139.25C157.28 138.82 157.2 138.45 157.47 138.16C158 137.55 159.27 137.92 159.35 137.95L159.36 137.95C159.62 138.03 160.07 138.16 160.3 138.55C160.53 138.93 160.39 139.37 160.2 139.98L160.15 140.12C160.13 140.18 160.11 140.25 160.09 140.31C160.05 140.46 160.01 140.6 159.98 140.72L161.57 140.72C161.57 140.72 163.85 138.12 164.35 139.46C164.49 139.82 164.56 140.08 164.6 140.27C164.65 140.46 164.68 140.57 164.75 140.6C164.83 140.65 164.98 140.58 165.32 140.42C165.43 140.37 165.55 140.31 165.7 140.25C167.05 139.65 169.19 139.33 167.76 140.67C167.23 141.16 166.63 141.4 166.14 141.6C165.32 141.92 164.79 142.13 165.3 143.22C165.63 143.91 166.31 144.18 166.86 144.39C167.69 144.72 168.21 144.93 166.73 146.29C164.27 148.55 163.85 149.26 163.85 149.26C163.85 149.26 160.68 149.26 162.1 151.81C162.24 152.05 162.37 152.27 162.49 152.48C163.6 154.46 163.87 154.93 165.09 155.38C166.44 155.88 167.37 156.19 167.37 156.19L172.6 157.11C172.6 157.11 177.44 157.61 177.55 158.03C177.59 158.19 177.76 158.36 177.99 158.59C178.36 158.95 178.88 159.46 179.19 160.29C182.07 162.92 185.32 164.89 188.97 166.23C194.71 167.75 196.8 166.31 195.24 161.95C195.03 160.71 194.81 159.29 197.09 158.27C199.63 156.9 202.35 156.43 205.21 156.85C206.32 157.46 206.42 157.66 206.63 158.27C206.72 158.5 206.36 158.66 206.08 158.79C205.64 158.99 205.39 159.1 207.35 159.29C208.87 159.44 209.74 159.36 210.4 159.3C211.13 159.23 211.59 159.19 212.4 159.5C213.17 159.81 213.47 159.52 213.62 159.38C213.67 159.34 213.7 159.31 213.73 159.31C213.79 159.32 213.82 159.51 213.93 160.11C214.62 163.05 216.9 163.94 220.73 162.76C221.34 162.97 221.76 163.13 222.08 163.24C222.65 163.45 222.84 163.52 223.03 163.55C223.13 163.56 223.22 163.56 223.36 163.57C223.69 163.58 224.27 163.61 225.67 163.78C227.35 164.01 228.14 164.35 228.64 164.56C229.31 164.84 229.46 164.91 230.51 164.21C231.6 163.47 234.96 161.26 236.49 162C238.08 161.68 239.29 162.16 240.14 163.42C240.44 163.33 240.61 163.36 240.89 163.4C241.31 163.46 241.98 163.56 243.79 163.37C244.83 163.26 245.57 163.25 246.12 163.23C247.13 163.21 247.51 163.2 248.04 162.71C249.6 158.93 251.06 155.09 252.35 151.2C252.79 150.04 252.67 148.66 252.56 147.41C252.47 146.37 252.38 145.41 252.62 144.72C253.81 141.22 251.67 139.51 248.26 141.25C245.96 143.3 243.31 144.14 240.38 143.69C238.6 141.51 236.41 140.77 233.74 141.48C233.66 141.98 233.77 142.38 233.84 142.69C233.98 143.22 234.04 143.46 232.97 143.32C230.75 144 229.24 143.4 228.4 141.54C227.88 141.28 227.57 141.4 227.32 141.5C227.06 141.6 226.86 141.67 226.55 141.22C225.2 140.41 223.85 139.67 222.42 139.01C222.46 138.81 222.56 138.55 222.68 138.26C223.06 137.33 223.54 136.13 222.13 135.81C218.61 136.34 217.74 135.7 219.51 133.92C219.51 133.92 221.23 134.16 221.44 133.47C221.55 132.66 221.34 131.92 220.84 131.24C220.86 131.07 220.9 130.94 220.94 130.85C220.97 130.78 220.99 130.72 220.97 130.69C220.94 130.61 220.75 130.6 220.16 130.56L220.01 130.56C219.55 130.53 219.09 130.59 218.73 130.65C218 130.75 217.66 130.8 218.43 129.98C219.25 129.1 219.63 129.06 220.02 129.01C220.18 129 220.34 128.98 220.54 128.9C222.18 130.53 224.19 130.95 226.57 130.21C226.57 130.21 229.06 129.35 229.11 128.69C229.13 128.49 229.04 128.2 228.96 127.88C228.75 127.14 228.51 126.28 229.38 126.22C230.04 126.18 230.41 126.22 230.65 126.25C230.86 126.27 230.97 126.28 231.09 126.22C230.01 124.72 228.45 124.44 226.36 125.33C225.57 125.29 225.36 125.08 225.24 124.96C225.08 124.8 225.04 124.76 224.17 125.33C221.89 126.8 219.86 126.96 217.58 125.46C217.58 125.46 216.21 124.51 215.65 124.86C215.46 124.97 215.33 125.11 215.22 125.25C215 125.51 214.81 125.73 214.28 125.59C214.03 125.53 213.84 125.44 213.69 125.37C213.35 125.2 213.17 125.11 212.69 125.67C211.79 126.75 207.61 128.09 207.48 127.51C207.68 128.43 208.24 128.9 208.8 129.38C209.2 129.72 209.6 130.07 209.89 130.58C210.57 131.82 211.53 133.1 211.53 133.1C211.53 133.1 212.21 134 212.29 134.68C212.32 135.04 212.13 135.15 211.9 135.27C211.72 135.37 211.51 135.49 211.4 135.76C211.76 136.89 211.4 137.54 210.28 137.68C210.28 137.68 209.12 135.57 208.7 135.23C208.3 134.89 206.71 134.81 206.71 134.81C205.42 134.34 204.12 134.26 202.8 134.6C202.69 134.58 202.58 134.6 202.47 134.62C202.12 134.69 201.69 134.76 201.08 133.84C200.39 132.76 199.79 131.61 199.31 130.43C198.94 129.96 198.93 129.84 198.91 129.71C198.89 129.58 198.88 129.44 198.49 128.93C198.2 127.77 197.54 127.09 196.51 126.83C196.45 125.54 196.96 124.51 198.01 123.75C198.16 123.54 198.33 123.36 198.47 123.21C198.83 122.82 199.06 122.57 198.62 122.18C197.7 120.84 196.48 119.81 195 119.1C194.62 118.74 194.28 118.6 193.91 118.46C193.47 118.29 192.99 118.11 192.38 117.47C192 117.07 191.86 116.75 191.75 116.5C191.54 116.04 191.43 115.78 190.06 115.5C187.33 114.9 186.12 113.27 186.43 110.59C186.36 110.22 186.39 109.94 186.41 109.77C186.42 109.65 186.43 109.57 186.4 109.55C186.35 109.5 186.19 109.58 185.77 109.79C185.7 109.83 185.62 109.87 185.53 109.91C184.91 110.21 184.58 110.74 184.34 111.14C184.05 111.61 183.89 111.89 183.47 111.33C183.15 110.9 183.36 110.46 183.53 110.07C183.78 109.52 183.98 109.09 182.57 109.02C180.06 108.88 176.17 112.22 180.46 114.61C182.22 115.6 181.94 116.41 181.69 117.14C181.51 117.66 181.34 118.15 181.96 118.63C182.94 119.37 183.55 120.05 183.55 120.05C183.55 120.05 184.29 120.89 184.85 121.15C185.4 121.41 186.35 121.49 186.35 121.49C187.89 120.92 188.39 121.41 187.86 122.99C187.86 122.99 189.21 123.75 190.32 124.36C192.33 125.28 193.86 126.72 194.92 128.72C193.49 129.66 192.22 129.01 191.22 127.3L188.68 127.09C188.68 127.09 187.36 127.9 187.91 128.59C188.47 129.27 189.08 130.16 189.08 130.16L189.69 132.13C189.69 132.13 190.35 132.29 188.92 132.89C187.46 133.52 187.12 134.08 187.12 134.08C187.12 134.08 186.96 134.84 186.06 135.18C185.58 135.36 185.25 135.62 184.97 135.84C184.73 136.03 184.54 136.18 184.32 136.23C183.84 136.34 183.34 136.15 183.47 135.68C183.53 135.46 183.61 135.41 183.71 135.35C183.82 135.27 183.95 135.18 184.13 134.84C184.47 134.16 184.56 134.08 185.45 133.55C186.33 131.66 185.98 129.95 184.37 128.4C183.31 127.85 182.54 127.06 181.99 126.04C180.75 124.07 178.95 123.07 176.59 123.07C176.58 123.04 176.47 122.88 176.3 122.62C175.06 120.73 170.37 113.57 171.6 113.82C170.41 112.61 169.01 112.27 167.42 112.8C166.93 112.84 166.6 112.84 166.37 112.84C166.1 112.84 165.96 112.84 165.84 112.9C165.72 112.96 165.62 113.08 165.42 113.33L165.41 113.35C164.75 114.11 163.93 114.69 162.95 115.08C162.68 115.39 162.29 115.65 161.88 115.93C161.49 116.19 161.08 116.47 160.73 116.82C160.58 116.97 160.48 117.09 160.42 117.18C160.35 117.27 160.3 117.33 160.24 117.36C160.13 117.41 159.96 117.36 159.49 117.23C159.3 117.17 159.07 117.11 158.77 117.03C156.92 116.53 155.89 116.21 155.89 116.21C155.89 116.21 155.18 115.29 154.04 115.4C153.47 115.45 153.5 115.25 153.51 115.15C153.51 115.12 153.52 115.1 153.51 115.09C153.48 115.07 153.37 115.16 152.9 115.5C152.11 116.09 151.82 116.26 151.56 116.41C151.41 116.5 151.27 116.59 151.05 116.74C150.87 116.86 150.75 116.91 150.67 116.93C150.63 116.95 150.59 116.96 150.56 116.98C150.48 117.05 150.45 117.19 150.35 117.77L150.34 117.87C150.25 118.4 150.23 118.75 150.22 119.03C150.21 119.41 150.2 119.63 150.02 119.92C149.73 120.44 149.31 121.47 149.31 121.47C149.31 121.47 147.98 121.89 147.67 122.31C147.35 122.73 146.63 123.88 146.63 123.88C146.52 123.94 145.94 124.13 145.22 124.37C143.68 124.87 141.47 125.59 141.4 125.8C141.19 126.51 141.19 127.27 141.19 127.27C141.45 130 140.39 131 137.99 130.24L137.94 130.19C137.87 130.22 137.75 130.28 137.56 130.35C135.53 130.66 135.11 132 136.22 134.44C134.68 135.21 133.68 136.39 133.23 138.02C133.23 138.02 130.56 138.41 130.35 138.72C130.28 138.83 130.2 138.83 130.12 138.83C129.95 138.84 129.78 138.84 129.63 139.75C129.42 141.06 127.67 141.27 127.67 141.27C127.67 141.27 126.64 140.46 126.33 141.48C126.01 142.51 125.51 142.82 124.26 142.51C124.08 142.46 123.88 142.41 123.66 142.36C119.43 141.34 108.14 138.61 114.37 131.97C114.66 131.67 114.92 131.39 115.16 131.14C116.54 129.67 117 129.19 117.3 128.63C117.45 128.36 117.56 128.07 117.73 127.65L117.76 127.59C118.01 126.95 118.23 126.58 118.44 126.24C118.73 125.75 119 125.3 119.29 124.22C119.47 123.56 119.56 122.96 119.64 122.44C119.78 121.51 119.88 120.82 120.4 120.36C121.33 119.55 123.07 117.24 123.07 117.24L125.53 115.56C125.53 115.56 126.78 115.08 130.37 115.58C132.47 115.89 132.75 116.04 132.96 116.16C133.12 116.24 133.24 116.31 133.97 116.4C135.61 117.11 137.27 117.37 139.02 117.24C139.02 117.24 141.96 115 142.17 113.43C142.3 112.46 142.35 112.22 142.43 111.82C142.48 111.58 142.54 111.27 142.64 110.7C142.8 109.86 143.81 107.49 144.28 107.1C144.01 106.64 143.81 106.17 143.69 105.69C142.03 106.15 140.7 106.53 139.64 106.83C136.91 107.62 136 107.88 135.87 107.61C135.66 107.21 137.41 105.95 138.46 105.3C139.56 104.62 140.55 104.24 141.26 103.97C142 103.69 142.44 103.51 142.43 103.25C142.42 102.93 141.78 102.74 141.08 102.53C140.25 102.29 139.34 102.01 139.28 101.49C139.23 100.95 140.05 100.46 140.34 100.29C140.36 100.27 140.38 100.26 140.39 100.25C140.61 100.13 140.81 100.05 141.02 99.98C140.75 99.93 140.48 99.91 140.18 99.9C140.18 99.9 141.16 98.4 141.77 98.27C142.07 98.21 142.83 98.2 143.75 98.2L143.79 98.2C143.78 97.96 143.81 97.69 143.96 97.39C144.25 96.79 144.76 96.5 145.6 96.02C146.44 95.55 147.05 95.39 147.51 95.26C148 95.12 148.33 95.02 148.62 94.66C149.3 93.76 148.88 92.32 148.75 91.93C148.38 90.69 147.59 90.01 146.94 89.44C146.34 88.93 145.85 88.5 145.87 87.83C145.87 87.54 145.97 87.17 148.06 85.39C149.41 84.23 152.19 81.97 152.45 82.26C152.54 82.35 152.29 82.71 152.04 83.07C151.79 83.43 151.54 83.8 151.63 83.89C151.79 84.06 152.81 83.36 153.83 82.67C154.84 81.97 155.86 81.27 156.02 81.44C156.08 81.52 155.97 81.69 155.83 81.91C155.61 82.24 155.32 82.69 155.47 83.07C155.65 83.54 156.39 83.61 157.1 83.68C157.74 83.74 158.35 83.8 158.48 84.15C158.61 84.49 158.17 84.86 157.54 85.38C156.66 86.1 155.43 87.12 154.91 88.77C154.9 88.82 154.9 88.83 154.87 89.07C154.85 89.34 154.79 89.92 154.65 91.22C154.59 91.73 154.54 92.18 154.5 92.57L154.5 92.6C154.42 93.33 154.36 93.87 154.32 94.29C154.47 94.21 154.63 94.15 154.81 94.1C154.99 94.06 155.2 94.13 155.42 94.2C155.81 94.33 156.24 94.48 156.66 94.1C157.34 93.49 157.95 92.47 157.95 92.47C158.56 90.55 159.86 89.73 161.81 90.02C162.61 89.93 163.69 89.23 164.79 88.51C165.29 88.19 165.8 87.85 166.28 87.58C166.86 87.26 167.3 87.11 167.66 86.99C168.26 86.8 168.65 86.67 169.06 85.9C169.98 84.22 172.42 81.99 174.77 82.59C175.75 82.83 176.07 83.09 176.07 83.09C176.07 83.09 175.64 82.72 177.49 82.17C179.32 81.99 180.77 81.17 181.86 79.78C181.91 79.52 181.92 79.32 181.92 79.16C181.92 78.88 181.92 78.74 182.23 78.7C182.68 78.65 183.87 78.7 183.87 78.7C183.87 78.7 184.32 79.2 184.63 79.67C184.75 79.85 184.67 79.9 184.62 79.94C184.54 80 184.51 80.02 185.29 80.38C186.17 81.01 187.09 81.17 188.07 80.86C189.29 80.09 190.61 79.65 192.04 79.57C192.05 79.57 192.06 79.56 192.07 79.56C192.25 79.49 192.6 79.36 193.07 80.17C194.29 82.69 196.43 82.67 199.5 80.09C202.11 77.39 204.18 77.26 205.66 79.67C206.77 79.99 207.85 80.04 208.96 79.81C209.01 79.54 209.57 78.52 209.57 78.52C209.57 78.52 210.31 78.28 211.08 78.23C211.84 78.18 212.11 77.63 212.11 77.63C211.76 76.31 212.06 75.1 212.96 73.97C212.96 73.97 213.06 73.05 213.38 72.84C214.7 69.88 216.47 69.4 218.67 71.43C220.81 72.87 221.84 69.38 221.76 69.32C220.94 68.83 219.83 67.77 220.41 67.01C220.45 66.96 220.49 66.92 220.52 66.87C221.02 66.21 221.22 65.94 222.26 65.65C224.8 64.94 227.82 65.07 230.43 65.38C231.91 64.75 233.4 64.2 234.9 63.7C233.63 62.99 231.54 62.44 231.54 62.44C231.54 62.44 228.74 62.84 227.02 63.39C225.28 64.07 223.45 64.33 221.57 64.18C221.57 64.18 218.56 63.97 218.09 63.73C218.05 63.71 218 63.69 217.96 63.67C217.4 63.4 216.25 62.86 216.76 61.86C217.34 60.79 217.95 59.79 217.95 59.79C218.4 56.87 220.86 54.82 224.38 53.88C226.86 54.25 228.08 53.54 228.03 51.75L226.73 51.65L223.8 51.65C223.8 51.65 223.48 49.75 222.76 50.52C222.29 51.02 222.03 51.03 221.8 51.04C221.67 51.05 221.55 51.05 221.42 51.15C221.3 51.23 221.13 51.3 220.96 51.36C220.61 51.5 220.26 51.64 220.33 51.96C220.37 52.1 220.46 52.27 220.55 52.44C220.74 52.8 220.94 53.17 220.65 53.38C220.23 53.69 218.43 54.19 218.43 54.19C218.43 54.19 217.05 54.96 215.92 55.27C215.59 55.36 215.36 55.39 215.16 55.42C214.66 55.48 214.34 55.52 213.14 56.4L212.88 56.58C211.39 57.63 211.11 57.83 210.76 57.98C210.39 58.13 208.86 60.13 208.86 60.13L208.43 62.07L209.86 63.1C209.86 63.1 210.57 63.62 210.36 64.12C210.15 64.62 210.02 64.83 209.65 65.09C209.31 65.33 208.94 65.65 208.94 65.65C208.94 65.65 209.81 66.41 208.94 66.57C208.38 66.67 208.18 66.7 208 66.78C207.89 66.83 207.79 66.89 207.64 66.99C207.47 67.08 207.22 67.3 206.95 67.53C206.53 67.89 206.07 68.3 205.76 68.38C205.56 68.44 205.5 68.36 205.46 68.31C205.38 68.22 205.35 68.17 204.92 68.75C204.61 69.15 204.43 69.27 204.3 69.35C204.13 69.46 204.04 69.52 203.86 70.14C203.71 70.63 203.46 71 203.23 71.32C202.97 71.71 202.73 72.04 202.75 72.48C202.43 75.29 200.92 76.23 198.23 75.29C198.23 75.29 196.51 74.08 196.24 75.18C196.12 75.68 196.19 75.9 196.23 76.05C196.28 76.22 196.31 76.3 195.98 76.63C195.78 76.82 195.73 76.94 195.69 77.03C195.68 77.06 195.67 77.09 195.65 77.11C195.59 77.18 195.45 77.19 194.84 77.22C194.76 77.22 194.66 77.23 194.55 77.23C192.01 78.1 191.19 77.26 192.09 74.63C192.32 74.61 192.52 74.62 192.69 74.63C193.09 74.66 193.33 74.68 193.39 74.21C193.47 73.33 193.25 72.51 193.03 71.71C192.71 70.55 192.4 69.42 193.04 68.14C193.52 67.12 193.28 66.25 192.35 65.54C192.14 65.8 192.03 66.03 191.93 66.22C191.74 66.6 191.6 66.87 190.98 67.04C188.89 67.25 187.17 68.17 185.82 69.82C183.63 69.74 182.68 68.93 182.68 68.93C182.68 68.93 180.77 68.61 181.49 67.75C182.73 67.46 183.15 66.83 182.78 65.86C181.81 65.65 181.2 65.04 182.18 64.94C182.32 64.92 182.46 64.91 182.59 64.9C183.34 64.82 183.82 64.78 183.87 64.46C183.72 64.08 183.57 63.71 183.41 63.33L183.4 63.33C183.35 63.22 183.31 63.11 183.26 62.99C184.24 62.68 184.74 61.97 184.74 61.97C184.74 61.97 184.63 60.55 185.35 60.08C186.09 59.6 187.57 58.74 187.57 58.74C188.76 58.4 189.92 58 191.06 57.5C191.23 57.02 191.38 56.96 191.67 56.85C191.86 56.78 192.12 56.69 192.49 56.43C193.81 56.37 194.84 55.85 195.63 54.85C195.88 55.12 196.12 54.95 196.33 54.8C196.58 54.63 196.79 54.48 196.93 55.06C197.19 56.14 198.6 55.95 198.17 55.53C201.19 54.22 201.29 53.8 198.54 54.25C200.08 53.22 201.47 52.61 202.47 52.17C203.2 51.85 203.72 51.62 203.94 51.38C204.12 51.19 204.2 51.18 204.31 51.18C204.53 51.16 204.88 51.14 206.32 49.91C208.54 48.02 209.52 47.31 211.1 46.55C211.9 46.17 212.02 46.13 212.09 46.11L212.1 46.1C212.15 46.09 212.2 46.06 212.69 45.79C213.11 45.56 213.27 45.45 213.36 45.39C213.39 45.37 213.42 45.35 213.45 45.34C213.52 45.29 213.6 45.26 213.91 45.15L214.09 45.08C216.53 43.63 215.84 43.58 212.03 44.92C212.03 44.92 211.16 44.92 210.13 45.24C209.09 45.55 205.63 46.37 208.78 45.13C210.51 44.47 211.35 44.1 211.88 43.88C212.31 43.69 212.53 43.6 212.85 43.5C213.19 43.4 213.58 43.33 213.93 43.26C214.32 43.18 214.66 43.11 214.86 43.03C215.2 42.87 216.13 42.82 216.39 43.03C216.41 43.05 216.44 43.07 216.46 43.09C216.74 43.31 217.18 43.67 217.63 43.24C217.85 43.05 217.84 42.88 217.84 42.73C217.84 42.53 217.83 42.38 218.4 42.32C218.88 42.27 218.95 42.31 219.02 42.34C219.09 42.37 219.15 42.4 219.65 42.32C220.32 42.23 220.82 41.61 221.14 41.22C221.28 41.04 221.38 40.92 221.44 40.9C221.49 40.89 221.53 40.86 221.58 40.84C221.74 40.74 221.95 40.62 222.58 40.9C222.95 41.07 222.95 41.24 222.96 41.39C222.96 41.58 222.96 41.73 223.61 41.82C224.24 41.89 224.53 41.47 224.81 41.08C225.07 40.72 225.31 40.38 225.78 40.43C226.76 40.51 227.23 40.32 228.11 39.96C228.98 39.61 229.91 39.4 231.15 39.25C231.67 39.18 231.81 39.08 231.93 38.99C232.08 38.87 232.2 38.79 233.21 38.88C234.64 39.8 236.09 39.98 237.57 39.43C237.28 40.13 238.03 40.03 238.81 39.93C239.32 39.86 239.86 39.78 240.14 39.93C240.46 40.1 240.42 40.24 240.37 40.4C240.3 40.59 240.24 40.79 240.8 41.06C241.14 41.22 241.3 41.34 241.43 41.42C241.69 41.6 241.78 41.66 242.81 41.77C245.9 42.08 248.92 42.82 251.85 43.92C253.49 44.32 256.11 45.45 256.11 45.45C257.59 46.23 257.78 47.1 256.72 48.1C256.53 48.27 256.38 48.41 256.25 48.53C255.65 49.11 255.55 49.2 254.15 49.33C253.79 49.36 243.16 49.06 242.22 47.55C242.19 48.87 243.14 49.48 245.11 49.41C245.22 50.59 245.59 51.7 246.19 52.7C246.38 53.27 246.8 53.56 247.78 53.93C249.24 54.82 250.72 54.88 252.2 54.09C251.98 53.94 251.68 53.79 251.36 53.62C250.71 53.28 249.97 52.9 249.68 52.46C249.26 51.8 248.6 50.73 250.61 51.44C251.59 51.79 252.1 52.2 252.53 52.55C252.96 52.91 253.31 53.19 254 53.27C255.34 53.43 256.98 53.22 256.98 53.22C256.98 53.22 255.21 51.51 255.63 50.86C255.88 50.48 256.43 50.18 256.94 49.89C257.32 49.68 257.67 49.48 257.86 49.28C257.95 49.16 257.99 48.96 258.02 48.74C258.13 48.06 258.26 47.24 260.31 48.31C263.04 49.73 263.04 49.18 262.83 48.2C262.62 47.23 261.95 45.24 261.95 45.24L264.18 44.05C267.98 43.55 268.64 44.26 266.13 46.16C264.41 47.79 265.62 48.28 269.76 47.63C270.2 46.95 270.49 46.49 270.69 46.17C271.09 45.53 271.13 45.46 271.34 45.3C272.12 44.68 272.77 44.61 273.56 44.63C274.11 44.47 274.67 44.37 275.24 44.27C276.33 44.07 277.47 43.87 278.69 43.16C278.92 43.02 279.05 42.77 279.15 42.57C279.3 42.26 279.38 42.12 279.67 42.95C279.74 43.13 279.75 43.3 279.74 43.44L279.84 43.4C280.82 42.95 281.66 42.55 283.13 42.49C284.16 42.44 285.54 42.54 285.59 42.91C285.65 43.22 284.67 43.65 283.31 44.14C284.27 44.05 284.4 44.05 284.4 44.05C286.2 42.22 287.74 42.32 289.03 44.32L290.83 43.24L290.57 42.11C290.57 42.11 288.58 41.82 287.23 41.45C285.91 41.09 283.53 39.9 285.54 40.17C286.43 40.27 286.63 40.34 286.82 40.4C287.06 40.48 287.27 40.55 288.79 40.67C292.02 40.82 295.17 41.48 298.21 42.61C298.21 42.61 303.02 44.24 303.5 44.08C304.61 41.82 303.18 40.9 299.19 41.27C298.97 41.08 298.98 41.06 299 41.02C299.04 40.95 299.11 40.84 298.42 40.03C297.69 39.17 297.88 38.84 298.17 38.33C298.34 38.04 298.54 37.7 298.63 37.17C298.72 36.7 298.6 36.22 298.51 35.83C298.32 35.01 298.22 34.6 300.32 35.54C301.7 36.15 302.45 36.18 303 36.19C303.37 36.2 303.65 36.21 303.97 36.41C304.04 36.36 304.11 36.31 304.18 36.26C305.15 35.65 306.22 35.99 309.02 36.9C309.72 37.12 310.52 37.39 311.46 37.67L309.84 36.91L311.75 36.2C311.75 36.2 312.12 35.1 314.84 36.51C321.4 38.22 321.06 37.72 313.81 35.02C314.95 34.67 316.24 34.58 317.35 34.5C319.79 34.34 321.32 34.24 318.23 31.47C318.23 31.47 321.11 30.6 322.8 30.45C323.47 30.38 323.54 30.58 323.6 30.76C323.69 31.03 323.76 31.25 325.89 30.45C331.19 28.46 334.71 28.92 339.9 29.6C340.95 29.74 342.07 29.89 343.29 30.03C344.91 30.19 345.52 30.46 345.9 30.63C345.94 30.65 345.98 30.67 346.02 30.68C347.63 31.89 347.68 33.2 346.18 34.57C346.07 34.64 345.88 34.72 345.69 34.79C345.17 35 344.74 35.16 346.89 35.12C348.63 34.97 349.69 34.1 350.09 32.57C353.69 34.6 357.55 35.23 361.73 34.47C361.84 34.5 361.7 34.62 361.55 34.75C361.27 34.97 360.94 35.25 361.73 35.28C362.22 35.3 362.69 35.36 363.1 35.4C363.71 35.48 364.19 35.53 364.45 35.44C364.63 35.37 364.51 35.24 364.38 35.09C364.21 34.9 364.01 34.69 364.45 34.57C364.62 34.52 364.75 34.47 364.88 34.41C365.31 34.23 365.64 34.09 367.12 34.52C369.02 35.1 373.44 36.51 373.44 36.51C373.44 36.51 377.78 37.22 379.26 37.64C379.75 37.78 380.25 37.99 380.76 38.2C381.79 38.63 382.88 39.07 384.04 39.04C382.3 39.08 383.99 25.48 391.34 36.44C391.45 36.59 394.99 38.51 397.16 38.93C399.33 39.33 402 40.3 403.29 41.32C403.98 41.86 404.58 41.92 405.07 41.97C405.5 42.01 405.85 42.04 406.07 42.4C406.55 43.16 422.65 55.74 431.01 61.47C439.27 67.14 435.32 66.53 433.52 65.98C451.55 71.56 473.67 111.55 479.29 125.12C480.98 129.17 481.4 129.87 482.22 131.28C482.34 131.47 482.46 131.69 482.6 131.92C484.37 133.84 484.5 135.34 483.02 136.41C482.32 135.87 482.02 135.34 481.59 134.59C481.36 134.18 481.09 133.71 480.69 133.13C480.2 132.41 479.96 131.57 479.74 130.83C479.47 129.91 479.25 129.13 478.63 128.9L477.55 128.48C477.55 128.48 478.34 133 477.97 132.42C477.29 131.34 476.88 130.57 476.54 129.93C476.2 129.27 475.93 128.75 475.51 128.19C469.61 120.39 474.24 132.68 475.38 133.92L476.88 135.55C476.88 135.55 478.1 138.41 478.52 138.67C479.24 137.6 480.11 137.41 481.14 138.12C481.63 138.55 482.11 138.61 482.5 138.65C483.1 138.72 483.46 138.76 483.2 140.17C483.12 140.64 483 141.01 482.88 141.37C482.41 142.76 482.08 143.76 484.95 148.73C486.73 151.8 487.9 152.97 488.68 153.74C489.5 154.55 489.89 154.94 490.11 156.61C490.35 158.53 491.14 160.13 492.43 162.78C493.35 164.68 494.54 167.12 495.98 170.59C498.8 177.4 498.09 181.93 497.68 184.61C497.59 185.2 497.51 185.7 497.48 186.11ZM480.75 280.57C480.75 280.57 480.75 280.57 480.75 280.57C480.75 280.57 480.75 280.57 480.75 280.57ZM384.04 39.04C384.04 39.04 384.04 39.04 384.04 39.04C384.04 39.04 384.04 39.04 384.04 39.04ZM308.98 39.28C308.52 39.24 308.03 39.19 307.49 39.13C306.98 39.06 306.53 39 306.11 38.95L306.4 39.33C306.4 39.33 306.46 39.75 309.24 41.58C310.48 42.41 311.18 42.61 311.61 42.73C312.13 42.88 312.25 42.92 312.49 43.84C312.91 45.55 312.75 46.05 312.75 46.05C310.53 46.26 310.08 47.13 311.4 48.65L314.13 48.6C315.9 47.84 316.08 46.65 314.68 45.13C314.63 44.47 314.89 44.21 315.56 44.16C316.13 44.11 316.54 44.34 317.48 44.86L317.48 44.87C317.63 44.95 317.79 45.04 317.96 45.13C319.26 45.84 322.8 47.02 322.8 47.02L319.81 44.05L315.45 42.71L312.88 42.5L310.72 41.32L308.98 39.28ZM313.44 39.34L313.28 39.34C313.08 39.35 312.88 39.35 312.69 39.36L313.49 39.61L313.44 39.34ZM240.83 169.84C240.74 169.69 240.65 169.54 240.56 169.38C240.65 169.54 240.74 169.7 240.83 169.84ZM394.04 202.85C393.96 202.1 393.95 201.5 394.03 201.09C393.92 201.66 393.96 202.26 394.04 202.85ZM394.03 201.09C394.03 201.09 394.03 201.08 394.03 201.07C394.03 201.08 394.03 201.09 394.03 201.09ZM254.85 346.7C255.16 346.67 255.61 346.62 255.87 346.01C256.51 344.56 254.5 342.83 254.5 342.86L254.5 338.26C254.5 338.26 253.62 336.63 251.35 336.74C251.35 336.74 251.4 336.74 252.12 338.26C253.1 340.36 253.39 342.84 253.68 345.36C253.99 348.06 254.31 350.81 255.5 353.18C258.33 351.81 258.2 350.11 255.08 348.06C254.25 346.77 254.43 346.75 254.85 346.7ZM246.01 296.83L243.26 299.15L241.01 302.3L241.62 305.85L243.47 309.76C243.39 309.59 243.22 308.79 245.53 308.92C248.2 309.81 249.55 309.08 249.58 306.74C248.89 305.19 249.37 304.03 251.01 303.32C254.63 300.38 254.31 298.46 250.06 297.6C248.97 296.91 246.01 296.83 246.01 296.83ZM243.47 309.76C243.47 309.76 243.47 309.77 243.47 309.77L243.47 309.76ZM236.49 327.52C236.49 327.52 237.2 329.75 237.92 330.98C238.04 331.2 238.22 331.53 238.41 331.9C239.32 333.63 240.72 336.29 240.38 333.03C240.12 330.5 239.86 330.03 239.49 329.37C239.28 328.99 239.04 328.55 238.74 327.62C238.43 326.67 238.47 326.04 238.5 325.6C238.54 324.86 238.55 324.64 236.89 324.26C234.03 322.03 233.13 319.06 234.22 315.35C233.79 313.91 232.36 312.28 232.36 312.28C232.79 314.75 232.36 316.38 232.36 316.38L233.18 320.16L234.22 323.63L236.49 327.52ZM259.6 125.04C262.85 124.57 266 123.75 269.07 122.6L269.07 122.59C270.02 121.78 271.52 120.49 269.09 118.81C267.99 118.07 267.42 118.03 266.85 117.99C266.16 117.95 265.46 117.9 263.75 116.56C262.57 115.62 262.1 115.03 261.74 114.58C261.14 113.84 260.84 113.46 258.25 112.54C256.29 111.84 251.65 110.07 248.2 108.69C248.6 108.75 249.25 108.79 250.29 108.81C254.22 108.88 255.23 107.99 256.06 107.26C256.18 107.16 256.29 107.06 256.4 106.97C256.81 106.65 257.17 106.56 257.39 106.5C257.7 106.43 257.75 106.42 257.3 105.94C256.63 105.21 259.34 103.98 260.54 103.44C260.67 103.38 260.78 103.33 260.87 103.29C261.77 102.87 260.13 101.98 257.86 102.74C256.72 103.1 256.17 103.19 255.57 103.28C254.96 103.38 254.29 103.48 252.91 103.89C252.71 103.95 252.52 104.01 252.34 104.06C251.11 104.42 250.65 104.56 250.22 104.75C249.96 104.87 249.71 105 249.31 105.22C249.21 105.27 249.11 105.33 249 105.39C247.66 106.11 244.37 106.24 242.41 106.31C242.16 106.32 241.93 106.33 241.72 106.34C239.95 106.39 239.69 106.26 238.92 105.44C238.71 105.22 238.6 105.01 238.5 104.84C238.25 104.41 238.16 104.23 237.07 104.63C234.87 105.44 234.05 107.1 233.44 108.33C233.1 109.02 232.83 109.57 232.42 109.75C231.52 110.43 230.49 110.75 229.32 110.7C229.14 111.08 229.23 111.44 229.3 111.78C229.4 112.23 229.5 112.64 228.9 112.96C227.87 113.51 227.66 113.77 227.87 114.53C228.08 115.29 227.68 116.45 226.57 116.79C225.96 116.98 225.92 117.68 225.88 118.35C225.84 118.91 225.81 119.44 225.46 119.65C224.7 120.13 229.56 123.73 231.15 124.28C231.41 124.37 233.18 124 235.6 123.5C241.83 122.21 252.35 120.02 252.54 122.52C252.57 122.96 253.21 123.07 253.87 123.18C254.54 123.29 255.24 123.41 255.34 123.88C255.49 124.52 257.19 124.7 258.41 124.83C259.01 124.9 259.49 124.95 259.6 125.04ZM247.41 108.38C247.66 108.48 247.93 108.58 248.2 108.69C247.71 108.62 247.55 108.52 247.41 108.38ZM245.35 107.23C246.82 107.7 247.12 108.05 247.33 108.29C247.36 108.32 247.38 108.35 247.41 108.38C244.38 107.16 242.65 106.38 245.35 107.23ZM312.28 141.54C314.44 141.12 315.53 140.88 315.77 140.3C315.97 139.82 315.71 139.43 315.27 138.77C314.97 138.3 314.57 137.7 314.18 136.83C314.44 133.13 313.04 131.19 309.92 131C309.91 130.91 309.96 130.85 310.08 130.71C310.16 130.62 310.28 130.49 310.43 130.29L310.44 130.26C310.8 129.75 311.06 129.4 310.98 129.11C310.87 128.61 309.92 128.35 309.18 128.35C308.68 128.35 308.33 128.47 308.06 128.57C307.79 128.66 307.61 128.73 307.44 128.61C307.04 128.32 307.15 127.3 307.54 126.62C307.99 125.83 308.76 125.51 308.84 125.49C309.56 125.2 310.52 125.25 312.13 125.32L312.22 125.33C312.25 125.33 312.27 125.33 312.29 125.33C312.5 125.33 312.74 125.33 312.88 125.17C313.15 124.88 312.94 124.2 312.57 123.75C312.33 123.46 312.1 123.39 311.82 123.32C311.6 123.26 311.35 123.19 311.03 122.99C310.6 122.72 310.43 122.46 310.24 122.16C310.07 121.88 309.87 121.56 309.39 121.15C307.57 119.63 306.8 120.15 307.12 122.73C307.13 122.82 307.14 122.91 307.16 122.98C307.2 123.25 307.22 123.41 307.12 123.49C306.88 123.67 306.11 123.17 305.64 122.57C305.14 121.94 305.03 121.29 304.96 120.87C304.95 120.8 304.94 120.73 304.92 120.68C304.64 119.03 303.17 117.97 300.73 116.2L300.56 116.08C299.71 115.47 299 115.03 298.42 114.68C297.32 114.02 296.72 113.66 296.65 112.9C296.57 111.98 297.31 111.06 297.52 110.8C297.81 110.44 298.07 110.27 298.39 110.06C298.71 109.84 299.09 109.59 299.64 109.07C300 108.73 300.18 108.52 300.3 108.38C300.44 108.22 300.5 108.15 300.67 108.1C301.21 107.93 301.67 108.27 302.42 108.83C302.85 109.15 303.37 109.53 304.05 109.94L304.06 109.94C305.17 110.6 306.67 111.48 307.25 111.01C307.75 110.59 307.57 109.09 306.83 108.67C306.53 108.51 306.25 108.58 305.92 108.67C305.58 108.76 305.18 108.86 304.66 108.73C303.23 108.15 302.62 107.12 302.86 105.6C302.41 104.5 301.01 104.05 300.4 103.87C300.08 103.77 299.74 103.72 299.14 103.63L299 103.6C299 103.6 297.02 103.32 294.64 103.55C294.43 103.58 294.03 103.63 293.66 103.87C293.42 104.02 293.3 104.18 293.16 104.37C293.11 104.43 293.06 104.5 293 104.58C292.74 104.89 292.55 105 292.23 105.19C292 105.32 291.7 105.49 291.25 105.81C290.83 106.12 290.65 106.29 290.51 106.42C290.37 106.55 290.28 106.64 290.01 106.78C289.71 106.95 289.52 107 289.28 107.06C289.05 107.12 288.78 107.2 288.32 107.39C287.52 107.7 287.13 107.86 286.78 108.2C286.55 108.44 286.48 108.61 286.35 108.91C286.25 109.14 286.13 109.45 285.86 109.94C285.58 110.47 285.37 110.75 285.23 110.95C285.07 111.17 285 111.27 284.99 111.51C284.93 112.4 285.75 113.43 286.68 113.67C287.02 113.74 287.27 113.7 287.47 113.66C287.68 113.63 287.83 113.6 287.97 113.72C288.22 113.92 288.14 114.3 288.05 114.78C287.93 115.35 287.79 116.08 288.11 116.84C288.19 117.1 288.35 117.31 288.62 117.66C288.66 117.71 288.7 117.76 288.74 117.81C288.76 117.84 288.79 117.88 288.82 117.92C289.4 118.66 289.9 119.1 290.41 119.55C291.27 120.33 291.6 120.67 291.87 120.94C292.13 121.2 292.32 121.4 292.87 121.86C293.73 122.6 294.25 122.96 294.63 123.21C295.08 123.53 295.31 123.68 295.64 124.17C295.73 124.3 295.82 124.43 295.9 124.56C296.14 124.93 296.4 125.32 296.89 125.75L296.91 125.77C297.08 125.91 297.47 126.24 298.13 126.56C299.12 127.07 299.95 127.22 300.47 127.31C300.84 127.38 301.05 127.42 301.06 127.53C301.12 127.95 298.66 128.85 297.76 128.74C297.76 128.73 297.76 128.73 297.76 128.72C297.76 128.62 297.76 128.52 297.76 128.44C297.76 128.15 297.77 128 297.7 127.98C297.6 127.95 297.31 128.38 297.44 128.59C297.49 128.66 297.6 128.69 297.76 128.72L297.76 128.74C297.76 129.06 297.76 129.49 297.81 130C297.83 130.15 297.84 130.28 297.86 130.39C297.91 130.84 297.94 131.04 297.81 131.29C297.67 131.54 297.48 131.61 297.29 131.68C297.11 131.74 296.93 131.8 296.78 132C296.57 132.3 296.65 132.6 296.8 133.15C296.91 133.57 297.06 134.14 297.15 134.97C297.18 135.16 297.19 135.32 297.2 135.47C297.23 135.78 297.25 136.02 297.36 136.36C297.55 136.97 297.84 137.46 298.02 137.7C298.59 138.42 299.49 138.38 300.5 138.34C301.52 138.29 302.65 138.25 303.63 138.99C303.94 139.23 304.12 139.46 304.3 139.7C304.56 140.04 304.84 140.41 305.53 140.88C306.33 141.43 307.04 141.67 307.28 141.75C307.78 141.9 308.89 142.19 312.28 141.54ZM320.02 112.8C320.31 112.98 320.71 112.96 320.95 112.8C321.5 112.46 321.43 111.38 321.27 110.75C321.12 110.19 320.89 109.91 320.68 109.65C320.48 109.41 320.31 109.2 320.29 108.81C320.24 108.1 320.68 107.54 320.98 107.16C321.16 106.94 321.28 106.78 321.21 106.7C321.06 106.52 319.84 106.91 319.42 107.83C319.26 108.17 319.3 108.4 319.39 108.96C319.43 109.19 319.48 109.47 319.52 109.83C319.59 110.47 319.61 110.99 319.63 111.4C319.66 112.19 319.68 112.59 320.02 112.8ZM325.21 113.77C325.76 113.74 326.45 113.35 326.56 112.8C325.02 111.38 324.02 109.7 323.57 107.75C323.33 107.7 322.83 108.17 322.8 108.67C322.76 109.15 323.12 109.48 323.49 109.82C323.86 110.16 324.24 110.51 324.23 111.01C324.23 111.35 324.05 111.55 323.88 111.75C323.71 111.95 323.54 112.15 323.57 112.48C323.62 113.14 324.39 113.82 325.21 113.77ZM324.36 106.15C325.55 106.49 326.03 106.49 326.21 106.47C326.26 106.47 327.53 106.36 327.61 105.97C327.67 105.61 326.77 105.22 326.16 104.95L326.13 104.94C325.29 104.58 324.6 104.29 323.81 104.47C323.22 104.6 322.54 105 322.56 105.34C322.59 105.64 323.14 105.8 324.26 106.12L324.36 106.15ZM374.52 105.76C374.92 105.68 376.24 105.36 376.32 104.68C376.37 104.29 376 103.79 375.58 103.71C375.22 103.64 374.93 103.89 374.59 104.18C374.44 104.31 374.28 104.45 374.1 104.58C373.15 105.21 372.01 105 369.74 104.52C368.5 104.27 367.65 104.01 367.02 103.81C366 103.5 365.51 103.35 364.85 103.66C363.79 104.16 363.26 105.36 363.15 105.65C362.7 106.7 362.81 107.6 362.83 107.81L362.84 107.82C362.88 108.08 363.22 110.21 364.85 110.72C364.98 110.78 365.9 111.04 366.19 110.67C366.42 110.37 366.13 109.88 365.76 109.28C365.29 108.49 364.7 107.52 365 106.52C365.29 105.63 366.14 105.18 366.3 105.1C366.96 104.76 367.6 104.79 369.95 105.26C370.44 105.35 370.88 105.44 371.25 105.51C372.89 105.84 373.56 105.97 374.52 105.76ZM415.59 86.08C416.07 86.87 417.44 87.13 418.34 86.77C420.11 86 420.19 82.69 419.87 80.75C419.35 77.99 417.33 74.68 415.06 74.76C414.35 74.79 413.34 75.18 413.13 75.86C412.92 76.55 413.63 77.15 414.48 77.87C415.47 78.7 416.65 79.69 416.83 81.17C416.97 82.31 416.45 83.23 416.01 84.02C415.58 84.8 415.21 85.46 415.59 86.08ZM139.73 56.66C140.1 56.39 140.23 56.29 149.04 49.45L149.36 49.2C151.12 47.85 152.76 46.59 154.75 45.3C158.72 43.01 162.76 40.86 166.89 38.81C168.32 38.15 169.88 37.55 171.57 37C176.51 35.37 180.51 35 183.71 34.74L183.88 34.73C186.28 34.53 197.37 33.64 197.91 35.87C197.93 36.08 198.03 36.87 194.71 39.05C190.9 41.55 187.75 42.53 184.6 43.51C183.1 43.98 181.59 44.45 180 45.09C177.91 45.94 177.22 46.46 176.13 47.29C175.06 48.1 173.59 49.21 170.04 51.21C166.91 52.97 164.3 54.2 153.06 58.99C146.92 61.58 144.53 62.56 143.15 63.12C142.04 63.57 141.59 63.75 140.39 64.29C131.75 68.18 125.38 72.12 121.37 74.59C118.39 76.42 116.72 77.45 116.41 77.06C115.83 76.3 120.98 71.2 124.24 68.26C127.02 65.77 128.68 64.62 131.1 62.94C133.1 61.57 135.61 59.83 139.68 56.7L139.73 56.66ZM162.16 132.71L162.16 132.9C162.15 133.03 162.14 133.15 162.13 133.25C162.1 133.89 162.08 134.24 161.94 134.53C161.75 134.94 161.45 135.22 160.88 135.74C160.82 135.79 160.76 135.84 160.7 135.9L160.63 135.96C159.99 136.52 159.69 136.79 159.46 136.71C159 136.57 159.03 135.48 159.03 135.06C159.03 135.04 159.03 134.97 159.03 134.95L159.04 134.95C159.06 134.52 159.12 133.63 159.72 132.69C160.36 131.72 161.55 130.8 162 131.06C162.2 131.19 162.18 131.69 162.16 132.71ZM167.39 150.03C167.52 149.61 167.95 149.32 168.32 149.22C168.68 149.12 168.95 149.21 169.34 149.35C169.54 149.43 169.78 149.51 170.09 149.59L170.13 149.6C170.5 149.71 171.44 150 172.42 149.9C172.88 149.86 173.11 149.76 173.42 149.62C173.72 149.48 174.1 149.32 174.82 149.14L174.86 149.13C175.62 148.95 176.54 148.72 176.78 149.09C176.91 149.3 176.78 149.59 176.57 150C176.33 150.5 176.11 150.75 175.9 150.99C175.73 151.18 175.57 151.35 175.43 151.63C175.2 152.06 175.21 152.33 175.21 152.61C175.21 152.88 175.22 153.15 175.01 153.58C174.95 153.74 174.45 154.73 173.53 154.97C172.92 155.13 172.36 154.84 171.25 154.26C170.19 153.71 169.51 153.34 168.74 152.58C168.1 151.95 167.07 150.93 167.39 150.03ZM304.38 347.91C304.49 347.51 304.59 347.13 305 346.64C305.43 346.14 306.33 345.33 306.93 345.54C307.38 345.71 307.46 346.4 307.6 347.74L307.62 347.98C307.79 349.5 307.89 350.09 307.98 350.59C308.08 351.21 308.16 351.69 308.31 353.57C308.47 355.39 308.49 356.38 308.18 357.67C308.15 357.78 307.73 359.46 307.23 359.43C307.05 359.42 306.95 359.21 306.83 358.97C306.7 358.7 306.56 358.4 306.27 358.33C305.77 358.22 305.11 358.99 304.77 359.56C304.11 360.68 304.38 361.66 304.68 362.78C304.91 363.67 305.17 364.64 305.03 365.84C303.05 369.52 300.85 373.07 298.45 376.48C297.98 377.4 297.8 377.92 297.58 378.56C297.35 379.23 297.07 380.01 296.38 381.52C295.88 382.62 295.61 383.11 295.33 383.62C295.05 384.14 294.75 384.68 294.19 385.88C293.65 387.04 293.3 387.87 293.04 388.49C292.53 389.73 292.36 390.12 291.73 390.51C290 391.57 287.7 390.81 286.81 390.52L286.78 390.51C286.15 390.3 284.93 389.88 284.03 388.75C283.74 388.41 283.35 387.88 283.21 387.12C283.14 386.69 283.2 386.43 283.28 386.05C283.35 385.76 283.43 385.39 283.48 384.81C283.52 384.38 283.51 383.98 283.49 383.29L283.49 383.27C283.49 383.15 283.48 383.03 283.48 382.89C283.45 381.91 283.41 381.42 283.38 381.08C283.36 380.83 283.35 380.67 283.35 380.45C285.25 377.82 286.41 374.9 286.78 371.73C286.89 370.71 286.86 370.17 286.81 369.54C286.77 368.96 286.72 368.3 286.78 367.1C286.89 364.9 286.97 363.74 287.74 362.48C288.08 361.9 288.82 360.69 290.19 360.17C290.85 359.92 291.41 359.92 291.96 359.92C292.63 359.93 293.31 359.93 294.16 359.49C294.4 359.35 294.77 359.04 295.54 358.38L295.8 358.15C297.37 356.81 298.2 356.09 299.11 355.1C300.14 353.97 300.64 353.42 301.17 352.5C301.29 352.29 301.38 352.11 301.46 351.95C301.64 351.6 301.8 351.3 302.12 350.87C302.51 350.36 302.78 350.16 303.03 349.96C303.26 349.78 303.48 349.62 303.76 349.24C304.16 348.7 304.27 348.3 304.38 347.91ZM194.26 149.16C194.23 149.38 194.07 149.64 193.83 149.74C193.41 149.9 192.8 149.59 192.72 149.09C192.67 148.67 193.01 148.19 193.41 148.17C193.89 148.11 194.28 148.69 194.26 149.16ZM194.02 151.5C193.81 151.37 193.75 151.06 193.86 150.85C194.02 150.56 194.52 150.53 194.71 150.77C194.84 150.92 194.81 151.19 194.68 151.34C194.55 151.5 194.26 151.63 194.02 151.5ZM200.74 150.11C201.82 150.58 202.35 151.06 202.69 151.61C202.93 152.03 203.06 152.53 202.96 152.61C202.9 152.64 202.82 152.57 202.7 152.47C202.53 152.32 202.26 152.1 201.9 152.05C201.4 151.97 200.68 152.21 200.52 152.66C200.42 152.92 200.57 153.16 200.85 153.6C201.07 153.96 201.38 154.46 201.71 155.21C201.9 155.63 201.98 155.89 201.87 156.15C201.69 156.55 201 156.84 200.5 156.65C200.07 156.47 199.95 156 199.82 155.48C199.68 154.93 199.53 154.34 198.96 154.05C198.77 153.95 198.63 153.94 198.46 153.92C198.26 153.9 198.01 153.88 197.56 153.71L197.5 153.68C197 153.48 196.53 153.3 196.4 152.9C196.31 152.65 196.4 152.46 196.51 152.25C196.62 152.04 196.73 151.82 196.66 151.5C196.6 151.22 196.43 151.04 196.28 150.89C196.14 150.74 196 150.6 196 150.37C196 149.9 196.61 149.54 196.78 149.44L196.8 149.43C197.91 148.82 199.31 149.43 200.74 150.11ZM418.95 274.04C419.19 274.69 419.52 275.55 420 276.62C420.55 277.85 420.99 278.67 421.32 279.3C421.88 280.32 422.15 280.83 422.12 281.79C422.12 281.93 422.01 284 420.4 285.39C419.37 286.26 417.7 286.92 417.04 286.34C416.77 286.1 416.78 285.74 416.78 285.3L416.78 285.18C416.75 283.91 416.54 283.26 416.33 282.64C416.15 282.07 415.97 281.53 415.96 280.56C415.93 280.05 416.18 279.02 416.66 277.03L416.78 276.54C417.65 272.92 417.81 272.55 418.07 272.52C418.37 272.5 418.56 273.01 418.95 274.04ZM462.2 289.87C462.55 289.92 462.85 289.96 463.26 290.25C463.76 290.58 464.05 291.01 464.21 291.25C464.26 291.32 464.29 291.37 464.32 291.41C464.6 291.99 464.54 292.39 464.47 292.84C464.43 293.17 464.38 293.53 464.45 294.01C464.58 294.88 465 295.34 465.45 295.84C465.92 296.36 466.42 296.92 466.65 298.03C466.69 298.27 466.71 298.41 466.72 298.57C466.74 298.78 466.76 299.04 466.86 299.6C467.1 300.92 467.23 301.57 467.63 302.13C467.87 302.45 468.1 302.61 468.31 302.76C468.56 302.94 468.79 303.1 469 303.49C469.19 303.85 469.21 304.16 469.24 304.58C469.25 304.68 469.26 304.79 469.27 304.91L469.28 305.12C469.4 306.82 469.47 307.7 469.82 308.46C470.14 309.13 470.54 309.44 470.87 309.69C471.19 309.94 471.44 310.13 471.46 310.56C471.49 311.05 471.2 311.33 470.82 311.7C470.43 312.1 469.94 312.58 469.61 313.5C469.45 313.92 469.08 314.92 469.53 315.76C469.69 316.06 469.87 316.17 470.05 316.29C470.22 316.4 470.4 316.52 470.56 316.78C471.09 317.62 470.8 318.73 470.43 320.12C470.3 320.61 470.18 320.99 470.07 321.3C469.88 321.88 469.78 322.19 469.95 322.38C470.15 322.6 470.55 322.48 470.97 322.35C471.39 322.22 471.82 322.09 472.07 322.3C472.5 322.67 472.07 323.76 471.35 325.54C471.15 326.05 470.93 326.6 470.69 327.21C470.26 328.36 469.95 329.28 469.7 330.04C469.07 331.92 468.77 332.82 467.68 333.83C467.52 333.99 465.8 335.56 464.88 335.07C464.6 334.92 464.53 334.65 464.39 334.05C464.3 333.68 464.19 333.2 463.98 332.54C463.71 331.67 463.5 331.24 463.35 330.94C463.2 330.62 463.11 330.44 463.08 330.02C463.02 329.24 463.25 328.81 463.5 328.33C463.72 327.91 463.96 327.45 464.03 326.69C464.11 325.91 463.95 325.48 463.76 324.95C463.61 324.53 463.44 324.04 463.34 323.27C463.25 322.43 463.34 321.99 463.49 321.25C463.59 320.79 463.71 320.21 463.82 319.33L463.82 319.31C464.06 317.58 464.35 315.49 463.9 313.13C463.68 311.97 463.4 311.38 463.18 310.9C462.93 310.37 462.75 309.99 462.79 309.11C462.83 308.38 463 307.81 463.17 307.29C463.4 306.51 463.61 305.83 463.34 304.83C463.19 304.21 462.88 303.63 462.57 303.08L462.52 302.99C462.22 302.42 461.98 302.07 461.78 301.79C461.52 301.42 461.35 301.18 461.23 300.68C461.07 300.05 461.1 299.45 461.15 298.63C461.17 298.37 461.18 298.17 461.2 298C461.24 297.57 461.26 297.35 461.15 297.06C460.96 296.59 460.59 296.39 460.2 296.16C460.06 296.08 459.92 296 459.77 295.9C457.62 294.45 458.01 290.66 458.05 290.27L458.06 290.25L458.07 290.18C458.15 289.61 458.35 288.3 458.95 288.15C459.23 288.09 459.44 288.3 459.74 288.59C460.07 288.92 460.51 289.36 461.28 289.65C461.65 289.79 461.94 289.83 462.2 289.87ZM460.94 307.19C461.01 307.51 460.93 307.76 460.87 307.92L460.86 307.96C460.57 308.75 459.67 309.38 459.14 309.19C458.37 308.9 458.19 306.62 459.01 306.2C459.56 305.88 460.73 306.41 460.94 307.19ZM460.95 317.21C461 317.51 461.1 318.03 460.81 318.25C460.57 318.44 460.14 318.33 459.91 318.12C459.32 317.55 459.83 316.02 460.25 316C460.54 315.97 460.83 316.7 460.94 317.15L460.95 317.21ZM461.12 313.29C460.86 313.61 459.8 313.47 459.62 312.87C459.48 312.37 459.99 311.77 460.38 311.77C460.94 311.77 461.44 312.92 461.12 313.29ZM457.5 300.68C457.42 300.18 457.61 299.52 457.92 299.45C458.32 299.34 458.8 300.08 458.95 300.34C459.32 300.92 459.72 301.94 459.43 302.18C459.06 302.44 457.69 301.73 457.5 300.68ZM461.49 325.35C461.44 326.03 461.04 326.82 460.81 326.76C460.38 326.66 460.38 323.56 460.81 323.48C461.04 323.46 461.57 324.38 461.49 325.35ZM464.3 339.3C464.22 338.59 464.9 337.62 465.73 337.54C466.62 337.43 467.34 338.38 467.68 338.88C467.96 339.26 468.1 339.58 468.2 339.83C468.33 340.14 468.42 340.33 468.63 340.37C468.91 340.43 469.09 340.18 469.35 339.85C469.58 339.54 469.88 339.15 470.35 338.88C471.81 338.01 474.27 338.56 474.66 339.64C474.8 340 474.66 340.37 474.58 340.58C474.29 341.36 473.61 341.72 473.01 342.04C472.49 342.31 472.03 342.56 471.96 343.03C471.91 343.47 472.26 343.89 472.65 344.31C473.18 344.89 473.73 345.11 474.17 345.28C474.59 345.44 474.92 345.57 475.06 345.94C475.3 346.55 474.87 347.46 474.24 347.7C473.95 347.81 473.55 347.81 473.29 347.57C473.13 347.43 473.11 347.28 473.09 347.12C473.07 346.98 473.05 346.84 472.94 346.68C472.76 346.42 472.48 346.38 472.09 346.32C471.8 346.28 471.44 346.23 471.01 346.07L470.99 346.06C470.6 345.91 470.13 345.72 469.72 345.31C469.31 344.9 469.18 344.45 469.08 344.08C468.97 343.73 468.89 343.44 468.61 343.34C468.41 343.26 468.26 343.33 468.06 343.42C467.92 343.48 467.74 343.56 467.5 343.6C466.41 343.79 464.98 343.13 464.69 342.24C464.59 341.92 464.66 341.67 464.74 341.41C464.82 341.11 464.91 340.79 464.77 340.32C464.69 340.04 464.58 339.88 464.49 339.75C464.39 339.62 464.31 339.51 464.3 339.3ZM494.89 288.89C494.71 289.39 494.56 289.65 494.35 290.02C494.22 290.25 494.06 290.53 493.86 290.94C492.62 293.4 492.22 295.56 492.01 296.74C491.53 299.32 491.7 301.31 491.83 302.9C491.99 304.83 492.11 306.2 490.98 307.38C490.68 307.69 490.45 307.82 490.23 307.95C489.97 308.1 489.72 308.24 489.39 308.67C488.61 309.68 488.58 310.66 488.54 311.8C488.51 312.56 488.48 313.38 488.23 314.31C487.93 315.4 487.57 315.79 487.12 316.27C486.7 316.73 486.2 317.27 485.61 318.54C484.87 320.12 484.69 321.31 484.54 322.34C484.36 323.56 484.21 324.55 483.2 325.69C482.41 326.58 481.06 327.63 480.19 327.26C479.71 327.08 479.48 326.32 479.03 324.82C478.81 324.14 478.55 323.25 478.42 322.38C478.17 320.75 478.48 319.43 478.88 317.75C479 317.26 479.12 316.75 479.24 316.18C479.63 314.34 479.7 313.36 479.76 312.41C479.82 311.4 479.88 310.44 480.35 308.54C480.9 306.3 481.72 303.89 482.28 303.96C482.51 303.99 482.61 304.48 482.71 304.99C482.82 305.53 482.94 306.1 483.23 306.14C483.6 306.2 484.08 305.33 485.08 302.81C485.85 300.89 486.3 299.58 486.62 298.66C487.18 297.06 487.34 296.59 488.04 296.06C488.13 295.99 488.23 295.93 488.33 295.85C488.87 295.47 489.56 294.98 489.76 294.14C489.82 293.85 489.8 293.67 489.78 293.47C489.76 293.31 489.74 293.14 489.76 292.91C489.85 292.12 490.32 291.68 490.87 291.15C491.11 290.92 491.36 290.68 491.61 290.38C491.92 290.01 491.98 289.82 492.4 288.56C492.59 287.99 492.85 287.18 493.25 286.02C494.31 282.92 494.44 282.82 494.55 282.82C495.1 282.85 495.92 285.97 494.89 288.89ZM255.87 36.97C256.81 36.56 257.61 36.82 258.69 37.17C259.35 37.39 260.12 37.64 261.08 37.79C261.78 37.9 262.91 37.81 265.05 37.65C265.33 37.62 265.63 37.6 265.94 37.58C267.28 37.47 268.24 37.36 269.01 37.27C270.43 37.1 271.18 37.02 272.45 37.16C274.17 37.34 276.31 37.87 276.29 38.31C276.26 38.76 274.17 39.05 272.71 39.13C271.14 39.2 270.19 39 269.23 38.8C268.43 38.64 267.61 38.47 266.39 38.44C265.3 38.43 264.81 38.55 264.15 38.71C263.51 38.86 262.71 39.05 261.05 39.2C259.41 39.36 254.73 39.78 254.39 38.65C254.23 38.13 255.02 37.31 255.87 36.97ZM132.09 102.51C131.72 102.3 131.88 101.33 132.09 100.75C132.49 99.65 133.54 98.49 134.89 98.15C135.1 98.1 135.28 98.07 135.43 98.05C135.71 98.01 135.9 97.98 136 97.81C136.15 97.54 135.92 97.22 135.68 96.87C135.42 96.51 135.14 96.11 135.24 95.71C135.37 95.21 136.14 94.92 137.7 94.34C138.2 94.16 138.56 94.05 138.88 93.95C139.37 93.8 139.73 93.69 140.31 93.4C140.66 93.21 141.03 92.98 141.74 92.5C142.23 92.18 142.63 91.92 142.96 91.69C144.03 90.96 144.37 90.73 144.76 90.88C145.23 91.03 145.66 91.69 145.58 92.24C145.51 92.76 145.06 92.98 144.5 93.24C143.91 93.52 143.2 93.86 142.69 94.68C142.5 95 142.42 95.25 142.33 95.53C142.22 95.9 142.09 96.31 141.66 96.94C141.56 97.1 141.21 97.6 140.71 98.1C140.42 98.39 139.6 99.18 137.62 100.02C136.71 100.41 136.25 100.52 135.86 100.61C135.47 100.71 135.15 100.79 134.52 101.12C133.88 101.46 133.41 101.81 133.04 102.09C132.59 102.43 132.31 102.64 132.09 102.51ZM145.42 68.11C145.63 67.87 145.91 67.54 146.08 66.94C146.18 66.58 146.17 66.35 146.16 66.1C146.15 65.9 146.14 65.68 146.18 65.37C146.37 64.53 146.84 63.95 147.08 63.66C147.9 62.66 149.38 61.69 149.97 62.08C150.26 62.29 150.21 62.77 150.15 63.24C150.1 63.68 150.05 64.11 150.31 64.27C150.54 64.4 150.83 64.2 151.3 63.87C151.71 63.58 152.27 63.18 153.06 62.85C154.33 62.32 155.41 62.27 156.15 62.24L156.16 62.24C157.43 62.19 158.64 62.14 159.03 62.79C159.49 63.55 158.56 64.84 158.25 65.27L158.22 65.32C156.26 67.97 152.82 68.57 150.68 68.91C147.93 69.36 145.34 69.23 145.18 68.57C145.14 68.42 145.26 68.29 145.42 68.11ZM412.73 420.02C405.53 423.01 400.45 424.38 400.19 423.82C400.07 423.58 400.92 423.07 402.44 422.15C405.32 420.4 410.61 417.19 416.37 411.56C421.93 406.12 427.37 398.98 428.17 397.93C429.44 396.24 430.37 394.94 431.14 393.87C432.82 391.51 433.74 390.23 435.86 388.39C437.88 386.63 439.3 385.86 441.2 384.82C442.69 384.01 444.48 383.03 447.1 381.3C449.08 379.98 453.16 377.28 456.99 373.65C457.47 373.21 457.92 372.76 458.37 372.31C445.51 390.28 430.12 406.36 412.73 420.02ZM500.38 256.86C500.52 257.33 500.95 258.83 501.4 258.83C501.82 258.81 502.08 257.6 502.37 255.95C502.03 263.54 501.32 271 500.23 278.38C499.23 280.74 497.96 283.45 497.69 283.34C497.62 283.29 497.64 283.03 497.69 282.58C497.84 281.08 497.76 280.2 497.69 279.45C497.63 278.8 497.58 278.24 497.69 277.46C497.83 276.44 498.11 276.06 498.39 275.67C498.67 275.29 498.95 274.89 499.12 273.91C499.3 272.89 499.19 272.21 499.05 271.34C498.92 270.56 498.77 269.64 498.78 268.19C498.78 267.89 498.82 267.39 498.9 266.52C498.93 266.25 498.96 265.94 498.99 265.59C499.14 263.95 499.27 262.7 499.37 261.73C499.66 258.97 499.72 258.35 499.47 257.21C499.28 256.37 499.08 255.96 498.88 255.54C498.65 255.08 498.41 254.59 498.17 253.45C497.87 252.05 497.88 251.12 497.9 248.83L497.91 248.49C497.92 246.65 497.91 246.3 497.9 245.93C497.89 245.46 497.88 244.97 497.91 241.34C497.91 240.22 497.92 239.36 497.93 238.69C497.94 236.83 497.94 236.35 497.91 235.35C497.86 234.32 497.81 233.54 497.77 232.97C497.72 232.14 497.69 231.77 497.77 231.75C498.06 231.7 499.97 235.51 499.84 240.13C499.78 241.73 499.5 243.03 499.26 244.18C498.88 245.94 498.58 247.34 499.28 248.93C499.32 249.03 499.38 249.14 499.43 249.26C499.71 249.85 500.11 250.69 500.18 251.87C500.2 252.28 500.18 252.56 500.15 252.88C500.11 253.26 500.07 253.71 500.1 254.53C500.13 255.84 500.3 256.53 500.36 256.76L500.37 256.79C500.37 256.81 500.38 256.83 500.38 256.86ZM480.75 280.57L480.75 280.57Z" />
	<path id="Layer" class="shp6" d="M421.3 50.94C452.9 90.31 471.81 140.22 471.81 194.52C471.81 321.84 367.91 425.05 239.74 425.05C185.08 425.05 134.87 406.3 95.2 374.88C137.72 427.86 203.25 461.83 276.76 461.83C404.93 461.83 508.83 358.62 508.83 231.29C508.83 158.27 474.64 93.15 421.3 50.94Z" />
	<g id="Layer">
		<path id="Layer" class="shp1" d="M92.85 429.62C92.85 427.41 94.64 425.62 96.85 425.62L128.17 425.62C130.38 425.62 132.17 427.41 132.17 429.62L132.17 460.95C132.17 463.16 130.38 464.95 128.17 464.95L96.85 464.95C94.64 464.95 92.85 463.16 92.85 460.95L92.85 429.62Z" />
	</g>
	<path id="Layer" class="shp7" d="M129.89 406.09C129.89 403.88 131.68 402.09 133.89 402.09L150.07 402.09C152.28 402.09 154.07 403.88 154.07 406.09L154.07 422.27C154.07 424.48 152.28 426.27 150.07 426.27L133.89 426.27C131.68 426.27 129.89 424.48 129.89 422.27L129.89 406.09Z" />
	<g id="Clip-Path: Clip-Path" clip-path="url(#cp1)">
		<g id="Clip-Path">
			<g id="Layer">
			</g>
		</g>
	</g>
	<path id="Layer" class="shp8" d="M463.52 121.54C463.52 119.87 464.87 118.52 466.54 118.52L466.54 118.52C468.21 118.52 469.56 119.87 469.56 121.54L469.56 121.54C469.56 123.21 468.21 124.56 466.54 124.56L466.54 124.56C464.87 124.56 463.52 123.21 463.52 121.54L463.52 121.54Z" />
	<path id="Layer" class="shp8" d="M463.52 137.25C463.52 135.59 464.87 134.23 466.54 134.23L466.54 134.23C468.21 134.23 469.56 135.59 469.56 137.25L469.56 137.25C469.56 138.92 468.21 140.28 466.54 140.28L466.54 140.28C464.87 140.28 463.52 138.92 463.52 137.25L463.52 137.25Z" />
	<path id="Layer" class="shp8" d="M463.52 152.97C463.52 151.3 464.87 149.95 466.54 149.95L466.54 149.95C468.21 149.95 469.56 151.3 469.56 152.97L469.56 152.97C469.56 154.64 468.21 155.99 466.54 155.99L466.54 155.99C464.87 155.99 463.52 154.64 463.52 152.97L463.52 152.97Z" />
	<path id="Layer" class="shp8" d="M463.52 168.68C463.52 167.01 464.87 165.66 466.54 165.66L466.54 165.66C468.21 165.66 469.56 167.01 469.56 168.68L469.56 168.68C469.56 170.35 468.21 171.7 466.54 171.7L466.54 171.7C464.87 171.7 463.52 170.35 463.52 168.68L463.52 168.68Z" />
	<path id="Layer" class="shp8" d="M496.16 121.54C496.16 119.87 497.51 118.52 499.18 118.52L499.18 118.52C500.85 118.52 502.2 119.87 502.2 121.54L502.2 121.54C502.2 123.21 500.85 124.56 499.18 124.56L499.18 124.56C497.51 124.56 496.16 123.21 496.16 121.54L496.16 121.54Z" />
	<path id="Layer" class="shp8" d="M513 121.54C513 119.87 514.35 118.52 516.02 118.52L516.02 118.52C517.69 118.52 519.04 119.87 519.04 121.54L519.04 121.54C519.04 123.21 517.69 124.56 516.02 124.56L516.02 124.56C514.35 124.56 513 123.21 513 121.54L513 121.54Z" />
	<path id="Layer" class="shp8" d="M496.16 137.25C496.16 135.59 497.51 134.23 499.18 134.23L499.18 134.23C500.85 134.23 502.2 135.59 502.2 137.25L502.2 137.25C502.2 138.92 500.85 140.28 499.18 140.28L499.18 140.28C497.51 140.28 496.16 138.92 496.16 137.25L496.16 137.25Z" />
	<path id="Layer" class="shp8" d="M513 137.25C513 135.59 514.35 134.23 516.02 134.23L516.02 134.23C517.69 134.23 519.04 135.59 519.04 137.25L519.04 137.25C519.04 138.92 517.69 140.28 516.02 140.28L516.02 140.28C514.35 140.28 513 138.92 513 137.25L513 137.25Z" />
	<path id="Layer" class="shp8" d="M496.16 152.97C496.16 151.3 497.51 149.95 499.18 149.95L499.18 149.95C500.85 149.95 502.2 151.3 502.2 152.97L502.2 152.97C502.2 154.64 500.85 155.99 499.18 155.99L499.18 155.99C497.51 155.99 496.16 154.64 496.16 152.97L496.16 152.97Z" />
	<path id="Layer" class="shp8" d="M513 152.97C513 151.3 514.35 149.95 516.02 149.95L516.02 149.95C517.69 149.95 519.04 151.3 519.04 152.97L519.04 152.97C519.04 154.64 517.69 155.99 516.02 155.99L516.02 155.99C514.35 155.99 513 154.64 513 152.97L513 152.97Z" />
	<path id="Layer" class="shp8" d="M496.16 168.68C496.16 167.01 497.51 165.66 499.18 165.66L499.18 165.66C500.85 165.66 502.2 167.01 502.2 168.68L502.2 168.68C502.2 170.35 500.85 171.7 499.18 171.7L499.18 171.7C497.51 171.7 496.16 170.35 496.16 168.68L496.16 168.68Z" />
	<path id="Layer" class="shp8" d="M513 168.68C513 167.01 514.35 165.66 516.02 165.66L516.02 165.66C517.69 165.66 519.04 167.01 519.04 168.68L519.04 168.68C519.04 170.35 517.69 171.7 516.02 171.7L516.02 171.7C514.35 171.7 513 170.35 513 168.68L513 168.68Z" />
	<path id="Layer" class="shp8" d="M479.23 121.54C479.23 119.87 480.59 118.52 482.25 118.52L482.25 118.52C483.92 118.52 485.28 119.87 485.28 121.54L485.28 121.54C485.28 123.21 483.92 124.56 482.25 124.56L482.25 124.56C480.59 124.56 479.23 123.21 479.23 121.54L479.23 121.54Z" />
	<path id="Layer" class="shp8" d="M479.23 137.25C479.23 135.59 480.59 134.23 482.25 134.23L482.25 134.23C483.92 134.23 485.28 135.59 485.28 137.25L485.28 137.25C485.28 138.92 483.92 140.28 482.25 140.28L482.25 140.28C480.59 140.28 479.23 138.92 479.23 137.25L479.23 137.25Z" />
	<path id="Layer" class="shp8" d="M479.23 152.97C479.23 151.3 480.59 149.95 482.25 149.95L482.25 149.95C483.92 149.95 485.28 151.3 485.28 152.97L485.28 152.97C485.28 154.64 483.92 155.99 482.25 155.99L482.25 155.99C480.59 155.99 479.23 154.64 479.23 152.97L479.23 152.97Z" />
	<path id="Layer" class="shp8" d="M479.23 168.68C479.23 167.01 480.59 165.66 482.25 165.66L482.25 165.66C483.92 165.66 485.28 167.01 485.28 168.68L485.28 168.68C485.28 170.35 483.92 171.7 482.25 171.7L482.25 171.7C480.59 171.7 479.23 170.35 479.23 168.68L479.23 168.68Z" />
	<g id="Clip-Path: Clip-Path" clip-path="url(#cp2)">
		<g id="Clip-Path">
			<g id="Layer">
			</g>
		</g>
	</g>
	<g id="Clip-Path: Clip-Path" clip-path="url(#cp3)">
		<g id="Clip-Path">
			<g id="Layer">
			</g>
		</g>
	</g>
	<g id="Clip-Path: Clip-Path" clip-path="url(#cp4)">
		<g id="Clip-Path">
			<g id="Layer">
			</g>
		</g>
	</g>
	<g id="Clip-Path: Clip-Path" clip-path="url(#cp5)">
		<g id="Clip-Path">
			<g id="Layer">
			</g>
		</g>
	</g>
	<g id="Clip-Path: Clip-Path" clip-path="url(#cp6)">
		<g id="Clip-Path">
			<g id="Layer">
			</g>
		</g>
	</g>
	<path id="Layer" class="shp9" d="M353.52 7.89C353.52 6.23 354.86 4.89 356.52 4.89L389.2 4.89C390.86 4.89 392.2 6.23 392.2 7.89L392.2 40.57C392.2 42.23 390.86 43.57 389.2 43.57L356.52 43.57C354.86 43.57 353.52 42.23 353.52 40.57L353.52 7.89Z" />
</svg>