<?xml version="1.0" encoding="UTF-8"?>
<svg xmlns="http://www.w3.org/2000/svg" version="1.2" viewBox="0 0 423 109" width="127" height="33">
  <title>finixio-logo-light-svg</title>
  <style>
		.s0 { fill: #ffffff } 
		.s1 { fill: #ffbb0b } 
		.s2 { fill: #3d77ff } 
		.s3 { fill: #e12b6d } 
		.s4 { fill: #14b46e } 
	</style>
  <path id="Layer" class="s0" d="m268.4 50.9l-12.3-18.5q-0.1-0.2-0.3-0.3-0.3-0.1-0.5-0.1h-20.2q-0.3 0-0.5 0.1-0.2 0.1-0.4 0.4-0.1 0.2-0.1 0.5 0 0.3 0.2 0.5l23.3 35.1q0.2 0.2 0.2 0.5 0 0.3-0.2 0.6l-23.3 35.1q-0.2 0.2-0.2 0.5 0 0.3 0.1 0.5 0.2 0.2 0.4 0.4 0.2 0.1 0.5 0.1h20.2q0.3 0 0.5-0.1 0.2-0.1 0.3-0.3l12.3-18.5q0.2-0.2 0.4-0.3 0.2-0.1 0.5-0.1 0.2 0 0.4 0.1 0.3 0.1 0.4 0.3l12.3 18.5q0.1 0.2 0.4 0.3 0.2 0.1 0.4 0.1h20.2q0.3 0 0.5-0.1 0.3-0.2 0.4-0.4 0.1-0.2 0.1-0.5 0-0.3-0.1-0.5l-23.4-35.1q-0.1-0.3-0.1-0.6 0-0.3 0.1-0.5l23.4-35.1q0.1-0.2 0.1-0.5 0-0.3-0.1-0.5-0.1-0.3-0.4-0.4-0.2-0.1-0.5-0.1h-20.2q-0.2 0-0.5 0.1-0.2 0.1-0.3 0.3l-12.3 18.5q-0.1 0.2-0.4 0.3-0.2 0.1-0.4 0.1-0.3 0-0.5-0.1-0.2-0.1-0.4-0.3z"></path>
  <path id="Layer" fill-rule="evenodd" class="s0" d="m422.6 64.8c0.6 5.9-0.1 11.8-2.1 17.4-2 5.6-5.3 10.6-9.5 14.8-4.3 4.2-9.4 7.4-15 9.4-5.7 2-11.7 2.7-17.7 2.1-18.9-1.9-34.2-16.9-36.1-35.6-0.6-5.9 0.1-11.8 2.1-17.4 2.1-5.6 5.3-10.6 9.6-14.8 4.2-4.2 9.3-7.4 15-9.4 5.7-2 11.7-2.7 17.7-2.1 18.9 1.9 34.2 16.9 36 35.6zm-37.1 27c5.1-0.7 9.9-3 13.5-6.6 3.7-3.6 6-8.3 6.7-13.4 0.6-4.7-0.3-9.6-2.6-13.9-2.3-4.2-5.9-7.7-10.3-9.8-4.4-2.2-9.3-2.9-14.2-2.1-4.8 0.8-9.3 3.1-12.7 6.5-3.5 3.4-5.8 7.8-6.6 12.6-0.8 4.7-0.1 9.6 2.1 14 2.2 4.3 5.7 7.9 10 10.1 4.3 2.3 9.2 3.2 14.1 2.6z"></path>
  <path id="Layer" class="s0" d="m105.2 32h-17.8c-0.5 0-0.9 0.4-0.9 0.9v72.5c0 0.5 0.4 0.9 0.9 0.9h17.8c0.5 0 0.9-0.4 0.9-0.9v-72.5c0-0.5-0.4-0.9-0.9-0.9z"></path>
  <path id="Layer" class="s0" d="m224.1 32h-17.8c-0.5 0-0.9 0.4-0.9 0.9v72.5c0 0.5 0.4 0.9 0.9 0.9h17.8c0.5 0 0.9-0.4 0.9-0.9v-72.5c0-0.5-0.4-0.9-0.9-0.9z"></path>
  <path id="Layer" class="s0" d="m72.7 0h-71.7q-0.4 0-0.7 0.3-0.3 0.3-0.3 0.7v104.3q0 0.2 0.1 0.4 0.1 0.2 0.2 0.4 0.1 0.1 0.3 0.2 0.2 0 0.4 0h17.7q0.4 0 0.7-0.2 0.3-0.3 0.3-0.8v-84.9q0-0.2 0-0.4 0.1-0.2 0.3-0.3 0.1-0.2 0.3-0.2 0.2-0.1 0.4-0.1h52q0.4 0 0.7-0.3 0.3-0.3 0.3-0.7v-17.4q0-0.4-0.3-0.7-0.3-0.3-0.7-0.3z"></path>
  <path id="Layer" class="s1" d="m51.1 43.5h-17.7c-0.5 0-1 0.5-1 1v17.5c0 0.5 0.5 0.9 1 0.9h17.7c0.6 0 1-0.4 1-0.9v-17.5c0-0.5-0.4-1-1-1z"></path>
  <path id="Layer" class="s2" d="m105.2 0h-17.8c-0.5 0-0.9 0.4-0.9 1v17.4c0 0.6 0.4 1 0.9 1h17.8c0.5 0 0.9-0.4 0.9-1v-17.4c0-0.6-0.4-1-0.9-1z"></path>
  <path id="Layer" class="s0" d="m156.9 48.7c9.1 0.6 16 8.5 16 17.6v39.1q0.1 0.4 0.3 0.7 0.3 0.3 0.7 0.3h17.7q0.2 0 0.4-0.1 0.2-0.1 0.3-0.2 0.2-0.2 0.2-0.3 0.1-0.2 0.1-0.4v-38.8c0-19.7-15.5-36.6-35.5-37.3-4.9-0.2-9.9 0.7-14.5 2.4-4.6 1.8-8.8 4.4-12.4 7.8-3.6 3.4-6.4 7.4-8.4 11.9-1.9 4.5-2.9 9.4-2.9 14.2v39.8q0 0.2 0.1 0.4 0.1 0.1 0.2 0.3 0.1 0.1 0.3 0.2 0.2 0.1 0.4 0.1h17.7q0.4 0 0.7-0.3 0.3-0.3 0.3-0.7v-39.7c0-2.4 0.5-4.7 1.4-6.8 0.9-2.1 2.3-4 4-5.6 1.7-1.6 3.8-2.8 6-3.6 2.2-0.8 4.5-1.1 6.9-1z"></path>
  <path id="Layer" class="s3" d="m224.1 0h-17.7c-0.6 0-1 0.4-1 1v17.4c0 0.6 0.4 1 1 1h17.7c0.5 0 0.9-0.4 0.9-1v-17.4c0-0.6-0.4-1-0.9-1z"></path>
  <path id="Layer" class="s4" d="m332.2 0h-17.8c-0.5 0-0.9 0.4-0.9 1v17.4c0 0.6 0.4 1 0.9 1h17.8c0.5 0 0.9-0.4 0.9-1v-17.4c0-0.6-0.4-1-0.9-1z"></path>
  <path id="Layer" class="s0" d="m332.2 32h-17.8c-0.5 0-0.9 0.4-0.9 0.9v72.5c0 0.5 0.4 0.9 0.9 0.9h17.8c0.5 0 0.9-0.4 0.9-0.9v-72.5c0-0.5-0.4-0.9-0.9-0.9z"></path>
</svg>
