<svg width="16" height="17" viewBox="0 0 16 17" fill="none" xmlns="http://www.w3.org/2000/svg">
<path d="M8.00179 4.14316C5.73162 4.14316 3.9005 5.97469 3.9005 8.24536C3.9005 10.516 5.73162 12.3476 8.00179 12.3476C10.2719 12.3476 12.1031 10.516 12.1031 8.24536C12.1031 5.97469 10.2719 4.14316 8.00179 4.14316ZM8.00179 10.9123C6.53475 10.9123 5.33542 9.7163 5.33542 8.24536C5.33542 6.77443 6.53118 5.5784 8.00179 5.5784C9.47239 5.5784 10.6682 6.77443 10.6682 8.24536C10.6682 9.7163 9.46882 10.9123 8.00179 10.9123ZM13.2274 3.97536C13.2274 4.50733 12.7991 4.93219 12.2708 4.93219C11.739 4.93219 11.3142 4.50376 11.3142 3.97536C11.3142 3.44697 11.7426 3.01854 12.2708 3.01854C12.7991 3.01854 13.2274 3.44697 13.2274 3.97536ZM15.9438 4.94647C15.8831 3.66475 15.5904 2.52942 14.6516 1.59402C13.7165 0.658616 12.5814 0.365857 11.2999 0.301592C9.97925 0.226618 6.02075 0.226618 4.70006 0.301592C3.4222 0.362286 2.28712 0.655046 1.34835 1.59045C0.409593 2.52585 0.120468 3.66118 0.0562186 4.9429C-0.0187395 6.26388 -0.0187395 10.2233 0.0562186 11.5443C0.116899 12.826 0.409593 13.9613 1.34835 14.8967C2.28712 15.8321 3.41863 16.1249 4.70006 16.1891C6.02075 16.2641 9.97925 16.2641 11.2999 16.1891C12.5814 16.1284 13.7165 15.8357 14.6516 14.8967C15.5868 13.9613 15.8795 12.826 15.9438 11.5443C16.0187 10.2233 16.0187 6.26745 15.9438 4.94647ZM14.2376 12.9616C13.9592 13.6614 13.4202 14.2005 12.717 14.4826C11.664 14.9003 9.16542 14.8039 8.00179 14.8039C6.83815 14.8039 4.33597 14.8967 3.28656 14.4826C2.58695 14.2041 2.04796 13.665 1.76598 12.9616C1.34835 11.9084 1.44473 9.40926 1.44473 8.24536C1.44473 7.08147 1.35192 4.57873 1.76598 3.52908C2.04439 2.82932 2.58338 2.29021 3.28656 2.00816C4.33954 1.59045 6.83815 1.68684 8.00179 1.68684C9.16542 1.68684 11.6676 1.59402 12.717 2.00816C13.4166 2.28664 13.9556 2.82575 14.2376 3.52908C14.6552 4.5823 14.5588 7.08147 14.5588 8.24536C14.5588 9.40926 14.6552 11.912 14.2376 12.9616Z" fill="white"/>
</svg>
