<svg width="20" height="16" viewBox="0 0 20 16" fill="none" xmlns="http://www.w3.org/2000/svg">
<path d="M9.77799 10.6669C10.6641 10.6836 11.9398 9.45021 12.5815 8.94187C17.65 4.92928 18.0358 4.57927 19.2046 3.57925C19.4261 3.39174 19.556 3.10007 19.556 2.79173V2.00004C19.556 0.895853 18.7348 0 17.7226 0H1.83337C0.821199 0 0 0.895853 0 2.00004V2.79173C0 3.10007 0.129864 3.38758 0.351397 3.57925C1.52017 4.5751 1.90595 4.92928 6.97446 8.94187C7.61614 9.45021 8.89186 10.6836 9.77799 10.6669Z" fill="#97AEFF"/>
<path d="M19.1855 5.28311C19.3345 5.15395 19.556 5.27478 19.556 5.47895V14C19.556 15.1042 18.7348 16 17.7226 16H1.83337C0.821199 16 0 15.1042 0 14V5.48312C0 5.27478 0.217713 5.15811 0.370494 5.28728C1.22607 6.0123 2.36047 6.93315 6.25639 10.0207C7.06231 10.6624 8.42206 12.0124 9.77799 12.0041C11.1416 12.0166 12.5281 10.6374 13.3034 10.0207C17.1993 6.93315 18.3299 6.00813 19.1855 5.28311Z" fill="#395CD8"/>
</svg>
