<svg width="17" height="17" viewBox="0 0 17 17" fill="none" xmlns="http://www.w3.org/2000/svg">
<path d="M3.75206 16.2454H0.276877V5.56298H3.75206V16.2454ZM2.0126 4.1058C0.901347 4.1058 0 3.22721 0 2.16648C7.95385e-09 1.65696 0.212041 1.16832 0.589476 0.808043C0.966911 0.447764 1.47882 0.245361 2.0126 0.245361C2.54637 0.245361 3.05828 0.447764 3.43572 0.808043C3.81315 1.16832 4.02519 1.65696 4.02519 2.16648C4.02519 3.22721 3.12347 4.1058 2.0126 4.1058ZM16.7585 16.2454H13.2908V11.0452C13.2908 9.80593 13.2646 8.21661 11.484 8.21661C9.67722 8.21661 9.40035 9.56307 9.40035 10.956V16.2454H5.92891V5.56298H9.26191V7.02016H9.31055C9.7745 6.18085 10.9078 5.29512 12.5986 5.29512C16.1157 5.29512 16.7623 7.50588 16.7623 10.3774V16.2454H16.7585Z" fill="white"/>
</svg>
