<svg width="19" height="17" viewBox="0 0 19 17" fill="none" xmlns="http://www.w3.org/2000/svg">
<path d="M16.2021 4.23285C16.2135 4.40784 16.2135 4.58287 16.2135 4.75786C16.2135 10.0953 12.4896 16.2454 5.68334 16.2454C3.58645 16.2454 1.63855 15.5828 0 14.4329C0.297928 14.4704 0.584357 14.4829 0.893748 14.4829C2.62393 14.4829 4.21666 13.8454 5.48854 12.7579C3.86146 12.7204 2.49791 11.5579 2.02811 9.95786C2.25729 9.99533 2.48645 10.0203 2.72709 10.0203C3.05937 10.0203 3.39169 9.97032 3.70105 9.88287C2.00522 9.50784 0.733303 7.88285 0.733303 5.92035V5.87037C1.22599 6.17037 1.79896 6.35787 2.40621 6.38284C1.40933 5.65783 0.756229 4.42034 0.756229 3.02033C0.756229 2.27035 0.939528 1.58285 1.26038 0.982843C3.08227 3.43284 5.82082 5.03281 8.89163 5.20784C8.83435 4.90784 8.79996 4.59537 8.79996 4.28287C8.79996 2.05784 10.45 0.245361 12.501 0.245361C13.5666 0.245361 14.5291 0.73286 15.2052 1.52036C16.0416 1.34537 16.8437 1.00785 17.5541 0.545364C17.2791 1.48288 16.6947 2.27039 15.927 2.77035C16.6718 2.68289 17.3937 2.45784 18.0583 2.14537C17.5542 2.94534 16.924 3.65781 16.2021 4.23285Z" fill="white"/>
</svg>
